<svg xmlns="http://www.w3.org/2000/svg" width="100%" height="100%" viewBox="0 0 33 32" fill="none">
        <g clipPath="url(#clip0_6804_23802)">
          <path
            fill-rule="evenodd"
            clip-rules="evenodd"
            d="M16.5 0C25.3372 0 32.5 7.16282 32.5 16C32.5 24.8372 25.3372 32 16.5 32C7.66282 32 0.5 24.8372 0.5 16C0.5 7.16282 7.66282 0 16.5 0Z"
            fill="#6058FD"
          />
          <path
            d="M9.29354 16L9.30508 20.2308L12.9 22.3462V24.8231L7.20123 21.4808V14.7628L9.29354 16ZM9.29354 11.7692V14.2346L7.19995 12.9962V10.5308L9.29354 9.29231L11.3974 10.5308L9.29354 11.7692ZM14.4012 10.5308L16.4948 9.29231L18.5987 10.5308L16.4948 11.7692L14.4012 10.5308Z"
            fill="white"
          />
          <path
            d="M10.8064 19.3538V16.8769L12.9 18.1154V20.5808L10.8064 19.3538ZM14.4013 23.2333L16.4949 24.4718L18.5987 23.2333V25.6987L16.4949 26.9372L14.4013 25.6987V23.2333ZM21.6013 10.5308L23.6949 9.29231L25.7987 10.5308V12.9962L23.6949 14.2346V11.7692L21.6013 10.5308ZM23.6949 20.2308L23.7064 16L25.8 14.7615V21.4795L20.1013 24.8218V22.3449L23.6949 20.2308Z"
            fill="white"
          />
          <path d="M22.1937 19.3538L20.1001 20.5808V18.1154L22.1937 16.8769V19.3538Z" fill="white" />
          <path
            d="M22.1936 12.6462L22.2051 15.1231L18.6 17.2385V21.4795L16.5064 22.7064L14.4128 21.4795V17.2385L10.8077 15.1231V12.6462L12.9102 11.4077L16.4936 13.5333L20.0987 11.4077L22.2025 12.6462H22.1936ZM10.8064 8.41667L16.4949 5.06282L22.1936 8.41667L20.1 9.65513L16.4949 7.52949L12.9 9.65513L10.8064 8.41667Z"
            fill="white"
          />
        </g>
        <defs>
          <clipPath id="clip0_6804_23802">
            <rect width="32" height="32" fill="white" transform="translate(0.5)" />
          </clipPath>
        </defs>
      </svg>