<svg width="100%" height="100%" viewBox="0 0 40 40" fill="none" xmlns="http://www.w3.org/2000/svg">
<g clip-path="url(#clip0_2824_2287)">
<path d="M40 20C40 8.9543 31.0457 0 20 0C8.9543 0 0 8.9543 0 20C0 31.0457 8.9543 40 20 40C31.0457 40 40 31.0457 40 20Z" fill="#090918"/>
<path opacity="0.3" d="M4.31738 90H0.902344V86.585H4.31738V90ZM11.1465 90H7.73145V86.585H11.1465V90ZM17.9756 90H14.5605V86.585H17.9756V90ZM24.8047 90H21.3896V86.585H24.8047V90ZM31.6338 90H28.2197V86.585H31.6338V90ZM38.4629 90H35.0488V86.585H38.4629V90ZM4.31738 83.1709H0.902344V79.7559H4.31738V83.1709ZM11.1465 83.1709H7.73145V79.7559H11.1465V83.1709ZM17.9756 83.1709H14.5605V79.7559H17.9756V83.1709ZM24.8047 83.1709H21.3896V79.7559H24.8047V83.1709ZM31.6338 83.1709H28.2197V79.7559H31.6338V83.1709ZM38.4629 83.1709H35.0488V79.7559H38.4629V83.1709ZM4.31738 76.3418H0.902344V72.9268H4.31738V76.3418ZM11.1465 76.3418H7.73145V72.9268H11.1465V76.3418ZM17.9756 76.3418H14.5605V72.9268H17.9756V76.3418ZM24.8047 76.3418H21.3896V72.9268H24.8047V76.3418ZM31.6338 76.3418H28.2197V72.9268H31.6338V76.3418ZM38.4629 76.3418H35.0488V72.9268H38.4629V76.3418ZM4.31738 69.5127H0.902344V66.0977H4.31738V69.5127ZM11.1465 69.5127H7.73145V66.0977H11.1465V69.5127ZM17.9756 69.5127H14.5605V66.0977H17.9756V69.5127ZM24.8047 69.5127H21.3896V66.0977H24.8047V69.5127ZM31.6338 69.5127H28.2197V66.0977H31.6338V69.5127ZM38.4629 69.5127H35.0488V66.0977H38.4629V69.5127ZM4.31738 62.6826H0.902344V59.2686H4.31738V62.6826ZM11.1465 62.6826H7.73145V59.2686H11.1465V62.6826ZM17.9756 62.6826H14.5605V59.2686H17.9756V62.6826ZM24.8047 62.6826H21.3896V59.2686H24.8047V62.6826ZM31.6338 62.6826H28.2197V59.2686H31.6338V62.6826ZM38.4629 62.6826H35.0488V59.2686H38.4629V62.6826ZM4.31738 55.8535H0.902344V52.4385H4.31738V55.8535ZM11.1465 55.8535H7.73145V52.4385H11.1465V55.8535ZM17.9756 55.8535H14.5605V52.4385H17.9756V55.8535ZM24.8047 55.8535H21.3896V52.4385H24.8047V55.8535ZM31.6338 55.8535H28.2197V52.4385H31.6338V55.8535ZM38.4629 55.8535H35.0488V52.4385H38.4629V55.8535ZM4.31738 49.0244H0.902344V45.6094H4.31738V49.0244ZM11.1465 49.0244H7.73145V45.6094H11.1465V49.0244ZM17.9756 49.0244H14.5605V45.6094H17.9756V49.0244ZM24.8047 49.0244H21.3896V45.6094H24.8047V49.0244ZM31.6338 49.0244H28.2197V45.6094H31.6338V49.0244ZM38.4629 49.0244H35.0488V45.6094H38.4629V49.0244ZM4.31738 42.1953H0.902344V38.7803H4.31738V42.1953ZM11.1465 42.1953H7.73145V38.7803H11.1465V42.1953ZM17.9756 42.1953H14.5605V38.7803H17.9756V42.1953ZM24.8047 42.1953H21.3896V38.7803H24.8047V42.1953ZM31.6338 42.1953H28.2197V38.7803H31.6338V42.1953ZM38.4629 42.1953H35.0488V38.7803H38.4629V42.1953ZM4.31738 35.3662H0.902344V31.9512H4.31738V35.3662ZM11.1465 35.3662H7.73145V31.9512H11.1465V35.3662ZM17.9756 35.3662H14.5605V31.9512H17.9756V35.3662ZM24.8047 35.3662H21.3896V31.9512H24.8047V35.3662ZM31.6338 35.3662H28.2197V31.9512H31.6338V35.3662ZM38.4629 35.3662H35.0488V31.9512H38.4629V35.3662ZM4.31738 28.5361H0.902344V25.1221H4.31738V28.5361ZM11.1465 28.5361H7.73145V25.1221H11.1465V28.5361ZM17.9756 28.5361H14.5605V25.1221H17.9756V28.5361ZM24.8047 28.5361H21.3896V25.1221H24.8047V28.5361ZM31.6338 28.5361H28.2197V25.1221H31.6338V28.5361ZM38.4629 28.5361H35.0488V25.1221H38.4629V28.5361ZM4.31738 21.707H0.902344V18.293H4.31738V21.707ZM11.1465 21.707H7.73145V18.293H11.1465V21.707ZM17.9756 21.707H14.5605V18.293H17.9756V21.707ZM24.8047 21.707H21.3896V18.293H24.8047V21.707ZM31.6338 21.707H28.2197V18.293H31.6338V21.707ZM38.4629 21.707H35.0488V18.293H38.4629V21.707ZM4.31738 14.8779H0.902344V11.4639H4.31738V14.8779ZM11.1465 14.8779H7.73145V11.4639H11.1465V14.8779ZM17.9756 14.8779H14.5605V11.4639H17.9756V14.8779ZM24.8047 14.8779H21.3896V11.4639H24.8047V14.8779ZM31.6338 14.8779H28.2197V11.4639H31.6338V14.8779ZM38.4629 14.8779H35.0488V11.4639H38.4629V14.8779ZM4.31738 8.04883H0.902344V4.63379H4.31738V8.04883ZM11.1465 8.04883H7.73145V4.63379H11.1465V8.04883ZM17.9756 8.04883H14.5605V4.63379H17.9756V8.04883ZM24.8047 8.04883H21.3896V4.63379H24.8047V8.04883ZM31.6338 8.04883H28.2197V4.63379H31.6338V8.04883ZM38.4629 8.04883H35.0488V4.63379H38.4629V8.04883ZM4.31738 1.21973H0.902344V-2.19531H4.31738V1.21973ZM11.1465 1.21973H7.73145V-2.19531H11.1465V1.21973ZM17.9756 1.21973H14.5605V-2.19531H17.9756V1.21973ZM24.8047 1.21973H21.3896V-2.19531H24.8047V1.21973ZM31.6338 1.21973H28.2197V-2.19531H31.6338V1.21973ZM38.4629 1.21973H35.0488V-2.19531H38.4629V1.21973ZM4.31738 -5.60938H0.902344V-9.02441H4.31738V-5.60938ZM11.1465 -5.60938H7.73145V-9.02441H11.1465V-5.60938ZM17.9756 -5.60938H14.5605V-9.02441H17.9756V-5.60938ZM24.8047 -5.60938H21.3896V-9.02441H24.8047V-5.60938ZM31.6338 -5.60938H28.2197V-9.02441H31.6338V-5.60938ZM38.4629 -5.60938H35.0488V-9.02441H38.4629V-5.60938ZM4.31738 -12.4395H0.902344V-15.8535H4.31738V-12.4395ZM11.1465 -12.4395H7.73145V-15.8535H11.1465V-12.4395ZM17.9756 -12.4395H14.5605V-15.8535H17.9756V-12.4395ZM24.8047 -12.4395H21.3896V-15.8535H24.8047V-12.4395ZM31.6338 -12.4395H28.2197V-15.8535H31.6338V-12.4395ZM38.4629 -12.4395H35.0488V-15.8535H38.4629V-12.4395ZM4.31738 -19.2686H0.902344V-22.6826H4.31738V-19.2686ZM11.1465 -19.2686H7.73145V-22.6826H11.1465V-19.2686ZM17.9756 -19.2686H14.5605V-22.6826H17.9756V-19.2686ZM24.8047 -19.2686H21.3896V-22.6826H24.8047V-19.2686ZM31.6338 -19.2686H28.2197V-22.6826H31.6338V-19.2686ZM38.4629 -19.2686H35.0488V-22.6826H38.4629V-19.2686ZM4.31738 -26.0977H0.902344V-29.5127H4.31738V-26.0977ZM11.1465 -26.0977H7.73145V-29.5127H11.1465V-26.0977ZM17.9756 -26.0977H14.5605V-29.5127H17.9756V-26.0977ZM24.8047 -26.0977H21.3896V-29.5127H24.8047V-26.0977ZM31.6338 -26.0977H28.2197V-29.5127H31.6338V-26.0977ZM38.4629 -26.0977H35.0488V-29.5127H38.4629V-26.0977ZM4.31738 -32.9268H0.902344V-36.3418H4.31738V-32.9268ZM11.1465 -32.9268H7.73145V-36.3418H11.1465V-32.9268ZM17.9756 -32.9268H14.5605V-36.3418H17.9756V-32.9268ZM24.8047 -32.9268H21.3896V-36.3418H24.8047V-32.9268ZM31.6338 -32.9268H28.2197V-36.3418H31.6338V-32.9268ZM38.4629 -32.9268H35.0488V-36.3418H38.4629V-32.9268ZM4.31738 -39.7559H0.902344V-43.1709H4.31738V-39.7559ZM11.1465 -39.7559H7.73145V-43.1709H11.1465V-39.7559ZM17.9756 -39.7559H14.5605V-43.1709H17.9756V-39.7559ZM24.8047 -39.7559H21.3896V-43.1709H24.8047V-39.7559ZM31.6338 -39.7559H28.2197V-43.1709H31.6338V-39.7559ZM38.4629 -39.7559H35.0488V-43.1709H38.4629V-39.7559ZM4.31738 -46.585H0.902344V-50H4.31738V-46.585ZM11.1465 -46.585H7.73145V-50H11.1465V-46.585ZM17.9756 -46.585H14.5605V-50H17.9756V-46.585ZM24.8047 -46.585H21.3896V-50H24.8047V-46.585ZM31.6338 -46.585H28.2197V-50H31.6338V-46.585ZM38.4629 -46.585H35.0488V-50H38.4629V-46.585Z" fill="white"/>
<path fill-rule="evenodd" clip-rule="evenodd" d="M22.1364 21.2135C22.0171 21.2223 21.4006 21.2584 20.0254 21.2584C18.9316 21.2584 18.155 21.2262 17.8825 21.2135C13.6555 21.0308 10.5003 20.3081 10.5003 19.4427C10.5003 18.5773 13.6555 17.8555 17.8825 17.67V20.4937C18.1589 20.5132 18.9504 20.5591 20.0442 20.5591C21.3568 20.5591 22.0141 20.5054 22.1324 20.4946V17.6719C26.3505 17.8565 29.4987 18.5793 29.4987 19.4427C29.4987 20.3061 26.3515 21.0289 22.1324 21.2125L22.1364 21.2135ZM22.1364 17.3799V14.8531H28.023V11H11.9959V14.8531H17.8815V17.3789C13.0976 17.5948 9.5 18.5256 9.5 19.641C9.5 20.7564 13.0976 21.6862 17.8815 21.903V30H22.1354V21.9001C26.9084 21.6843 30.5 20.7544 30.5 19.64C30.5 18.5256 26.9113 17.5957 22.1354 17.3789L22.1364 17.3799Z" fill="white"/>
</g>
<defs>
<clipPath id="clip0_2824_2287">
<rect width="40" height="40" fill="white"/>
</clipPath>
</defs>
</svg>
