<svg width="100%" height="100%" viewBox="0 0 29 28" fill="none" xmlns="http://www.w3.org/2000/svg">
<path d="M0.5 4C0.5 1.79086 2.29086 0 4.5 0H24.5C26.7091 0 28.5 1.79086 28.5 4V24C28.5 26.2091 26.7091 28 24.5 28H4.5C2.29086 28 0.5 26.2091 0.5 24V4Z" fill="#ECFDF5"/>
<path fill-rule="evenodd" clip-rule="evenodd" d="M5 23H11.5427V13.641C11.5427 13.3403 11.9839 13.2924 12.0514 13.5856L13.6101 20.3633H17.5357V18.0542C17.5357 17.915 17.6509 17.8023 17.7932 17.8023H24V5H17.4574V7.30916C17.4574 7.44828 17.3421 7.56105 17.1999 7.56105H10.6658L11.2016 9.89053C11.2378 10.048 11.1154 10.1977 10.9504 10.1977H5V23Z" fill="#10B981"/>
</svg>
