<svg width="100%" height="100%" viewBox="0 0 29 28" fill="none" xmlns="http://www.w3.org/2000/svg">
<path d="M0.5 4C0.5 1.79086 2.29086 0 4.5 0H24.5C26.7091 0 28.5 1.79086 28.5 4V24C28.5 26.2091 26.7091 28 24.5 28H4.5C2.29086 28 0.5 26.2091 0.5 24V4Z" fill="#E2FAFB"/>
<g clip-path="url(#clip0_2305_83778)">
<path d="M14.5 5C9.53695 5 5.5 9.03695 5.5 14C5.5 18.9631 9.53695 23 14.5 23C19.4631 23 23.5 18.9631 23.5 14C23.5 9.03695 19.4631 5 14.5 5ZM19.5493 19.303C19.537 19.3153 19.4237 19.4187 19.0148 19.3966C18.6059 19.3744 18.0369 19.2266 17.3325 18.9064C15.931 18.2734 14.2168 17.0665 12.5616 15.4138C12.4089 15.2611 12.266 15.1108 12.1207 14.9581L12.0813 14.9113H17.867L17.9015 14.9581C18.6921 16.0764 19.2241 17.1084 19.4754 17.936C19.7906 18.9655 19.5739 19.2759 19.5468 19.303H19.5493ZM9.05419 19.5271C9.02709 19.5 8.81034 19.1896 9.12561 18.1601C9.37931 17.3325 9.90887 16.3005 10.6995 15.1823H10.7734C11.0837 15.532 11.4064 15.8818 11.7512 16.2266C12.3276 16.8029 12.9163 17.3301 13.5 17.8054C12.7094 18.3744 11.9507 18.8227 11.2685 19.133C10.564 19.4507 9.99507 19.5985 9.58621 19.6231C9.17735 19.6453 9.06403 19.5419 9.05173 19.5296L9.05419 19.5271ZM9.05419 9.03447C9.06651 9.02217 9.17981 8.91872 9.58867 8.94088C9.99754 8.96305 10.5665 9.11083 11.2709 9.43103C11.8966 9.71429 12.5862 10.1158 13.303 10.6158C12.9384 10.936 12.5739 11.2759 12.2143 11.6355C11.6527 12.197 11.1379 12.7685 10.6724 13.3399C9.89655 12.2365 9.37439 11.2192 9.12561 10.4015C8.81034 9.37193 9.02709 9.06157 9.05419 9.03447ZM17.7118 13.7648H11.8079C12.1823 13.3239 12.5862 12.8842 13.0222 12.4458C14.6749 10.7931 16.3916 9.5862 17.7931 8.9532C18.4975 8.63546 19.0665 8.48768 19.4754 8.46306C19.8842 8.44089 19.9975 8.54433 20.0098 8.55665C20.0222 8.56897 20.0985 8.65025 20.1059 8.94088C20.1133 9.23892 20.0394 9.66749 19.8374 10.2241C19.4729 11.2291 18.7488 12.4692 17.7118 13.7648ZM18.766 7.41379C17.4951 7.69212 15.8719 8.55172 14.2118 9.85714C12.5 8.62068 10.8744 7.88178 9.68473 7.80295C11.0148 6.76848 12.6847 6.14778 14.4975 6.14778C16.0714 6.14778 17.5345 6.6133 18.766 7.41379ZM7.83744 9.8473C7.97537 11.0394 8.72414 12.6231 9.93842 14.2832C8.86947 15.7438 8.1601 17.1478 7.91134 18.2759C7.11084 17.0443 6.64286 15.5788 6.64286 14.0049C6.64286 12.431 7.08128 11.0542 7.83744 9.8473ZM10.335 20.6601C11.4975 20.3966 12.9483 19.6527 14.4507 18.532C16.1108 19.7217 17.6872 20.4384 18.8572 20.5345C17.6084 21.3695 16.1084 21.8596 14.4975 21.8596C12.968 21.8596 11.5419 21.4187 10.335 20.6601ZM20.7833 18.7118C20.7192 17.5419 20.0049 15.936 18.7956 14.2414C20.0443 12.6305 20.8695 11.064 21.1453 9.82512C21.9089 11.037 22.3547 12.468 22.3547 14.0025C22.3547 15.766 21.7709 17.3965 20.7833 18.7094V18.7118Z" fill="#1B7E82"/>
</g>
<defs>
<clipPath id="clip0_2305_83778">
<rect width="18" height="18" fill="white" transform="translate(5.5 5)"/>
</clipPath>
</defs>
</svg>
