<svg preserveAspectRatio="none" width="100%" height="100%" overflow="visible" style="display: block;" viewBox="0 0 20 20" fill="none" xmlns="http://www.w3.org/2000/svg">
<g id="yo_round_black 1" clip-path="url(#clip0_5382_533473)">
<path id="Vector" d="M10 20C15.5228 20 20 15.5228 20 10C20 4.47715 15.5228 0 10 0C4.47715 0 0 4.47715 0 10C0 15.5228 4.47715 20 10 20Z" fill="var(--fill-0, black)"/>
<path id="Vector_2" fill-rule="evenodd" clip-rule="evenodd" d="M13.285 6.45336C11.3438 6.45336 9.77008 8.04124 9.77008 10C9.77008 11.9588 11.3438 13.5467 13.285 13.5467C15.2263 13.5467 16.8 11.9588 16.8 10C16.8 8.04124 15.2263 6.45336 13.285 6.45336ZM3.29079 7.15516C3.18407 6.96788 3.31804 6.73424 3.53212 6.73424H5.7574H7.89168H9.77692C9.97548 6.73424 10.1102 6.938 10.034 7.123L7.54452 13.1623C7.50132 13.2671 7.39992 13.3354 7.28748 13.3354H4.82516C4.6266 13.3354 4.49188 13.1316 4.56812 12.9466L5.31184 11.1424C5.37828 10.9812 5.36668 10.798 5.2804 10.6466L3.29079 7.15516ZM10.2116 6.67576C10.2116 6.67344 10.2139 6.67184 10.216 6.67272C10.2177 6.67344 10.2185 6.67536 10.2178 6.677C10.2164 6.68032 10.2116 6.67932 10.2116 6.67576Z" fill="var(--fill-0, #D6FF34)"/>
</g>
<defs>
<clipPath id="clip0_5382_533473">
<rect width="20" height="20" fill="white"/>
</clipPath>
</defs>
</svg>
