<svg width="100%" height="100%" viewBox="0 0 20 20" fill="none" xmlns="http://www.w3.org/2000/svg">
<g clip-path="url(#clip0_24_155)">
<path d="M20 10C20 4.47715 15.5228 0 10 0C4.47715 0 0 4.47715 0 10C0 15.5228 4.47715 20 10 20C15.5228 20 20 15.5228 20 10Z" fill="#6058FD"/>
<path d="M10 3.04346L12.3151 6.32946L10 7.16681L7.64044 6.32946L10 3.04346Z" fill="white"/>
<path d="M7.64048 10.9288H12.3151L12.3151 6.32911L10.0001 7.16419L7.64044 6.3291L7.64048 10.9288Z" fill="#EBEDFF" fill-opacity="0.988235"/>
<path d="M12.3151 6.3291V10.9288L10 10.0965V7.1644L12.3151 6.3291Z" fill="#808CFF"/>
<path d="M10 14.214L7.64044 10.929L10 10.0967L12.3151 10.929L10 14.214Z" fill="white"/>
<path d="M10.7783 16.7951L11.2091 14.2041L12.5403 14.3191L13.1419 15.5358L10.7783 16.7951Z" fill="#808CFF"/>
<path d="M15.1082 12.7727L13.1967 11.4429L11.2338 14.2045L12.5403 14.3191L13.1419 15.5358L15.1082 12.7727Z" fill="#BDC3FF"/>
<path d="M11.209 14.204L13.1753 11.4409L13.7915 12.5607L12.5403 14.3191L11.209 14.204Z" fill="white"/>
<path d="M15.5279 10.1514L15.1082 12.7731L13.7916 12.5612L13.1754 11.4414L15.5279 10.1514Z" fill="#808CFF"/>
<path d="M9.22801 16.7951L8.79723 14.2041L7.46601 14.3191L6.86438 15.5358L9.22801 16.7951Z" fill="white"/>
<path d="M4.89813 12.7727L6.80959 11.4429L8.7725 14.2045L7.46602 14.3191L6.8644 15.5358L4.89813 12.7727Z" fill="#808CFF"/>
<path d="M8.7973 14.204L6.83103 11.4409L6.21478 12.5607L7.46604 14.3191L8.7973 14.204Z" fill="#E6E6E6"/>
<path d="M4.47839 10.1514L4.89811 12.7731L6.21473 12.5612L6.83097 11.4414L4.47839 10.1514Z" fill="#BDC3FF"/>
</g>
<defs>
<clipPath id="clip0_24_155">
<rect width="20" height="20" fill="white"/>
</clipPath>
</defs>
</svg>
