<svg width="100%" height="100%" viewBox="0 0 20 20" fill="none" xmlns="http://www.w3.org/2000/svg">
<path fill-rule="evenodd" clip-rule="evenodd" d="M9.99998 0C15.5229 0 20 4.47717 20 10C20 15.5228 15.5229 20 9.99998 20C4.47714 20 0 15.5228 0 10C0 4.47717 4.47714 0 9.99998 0Z" fill="#6058FD"/>
<path d="M14.0002 10.0854L10.001 3.5V8.2599L14.0002 10.0854Z" fill="#EEF2F6"/>
<path d="M10.0006 16.4999V13.2109L6.08301 10.8315L10.0006 16.4999Z" fill="#CBCEFF"/>
<path d="M10.001 16.4999V13.2109L13.9186 10.8315L10.001 16.4999Z" fill="#EEF2F6"/>
<path d="M9.99924 12.415V8.24707L6 10.0768L9.99924 12.415Z" fill="#EEF2F6"/>
<path d="M10.001 12.415V8.24707L14.0002 10.0768L10.001 12.415Z" fill="#D9DCFF"/>
<path d="M6 10.0854L9.99924 3.5V8.2599L6 10.0854Z" fill="#CBCEFF"/>
</svg>
