<svg width="100%" height="100%" viewBox="0 0 20 20" fill="none" xmlns="http://www.w3.org/2000/svg">
<g clip-path="url(#clip0_24_337)">
<path d="M10.0002 0.5C15.2469 0.5 19.5002 4.75329 19.5002 10C19.5002 15.2467 15.2469 19.5 10.0002 19.5C4.75348 19.5 0.500183 15.2467 0.500183 10C0.500183 4.75329 4.75348 0.5 10.0002 0.5Z" fill="url(#paint0_linear_24_337)" stroke="#B9C4FF"/>
<path d="M8.51519 14.1502L7.32993 13.8501L6.89355 15.5734L8.07879 15.8736L8.51519 14.1502Z" fill="#8699FF"/>
<path d="M10.5683 14.6693L9.38306 14.3691L8.94666 16.0925L10.1319 16.3926L10.5683 14.6693Z" fill="#F8F9FF"/>
<path d="M13.1846 4.32406L11.9993 4.02393L11.5629 5.7473L12.7482 6.04743L13.1846 4.32406Z" fill="#D9DCFF"/>
<path d="M11.1402 3.80014L9.9549 3.5L9.51849 5.22335L10.7038 5.52351L11.1402 3.80014Z" fill="#8699FF"/>
<path d="M11.1209 14.8153L5 13.2625L5.36756 11.8074L11.4884 13.3601C12.0135 13.4951 12.5386 13.2026 12.6586 12.715C12.7786 12.2274 12.456 11.7248 11.931 11.5898L8.10544 10.6222L8.47299 9.16699L12.2985 10.1346C13.6787 10.4872 14.5414 11.8223 14.2113 13.105C13.8812 14.3877 12.4936 15.1603 11.1134 14.8078L11.1209 14.8153Z" fill="#D9DCFF"/>
<path d="M10.7022 5.52836L8.70255 5.02197L6.51691 13.6533L8.51657 14.1597L10.7022 5.52836Z" fill="#8699FF"/>
<path d="M11.3392 10.6666L7.51364 9.69897L7.88119 8.24374L11.7067 9.2114C12.2318 9.34641 12.7569 9.05385 12.8769 8.56628C12.9969 8.07871 12.6744 7.57615 12.1493 7.44114L6.80853 6.09094L7.17608 4.63574L12.5169 5.98594C13.897 6.33847 14.7597 7.67367 14.4296 8.95636C14.0996 10.239 12.7119 11.0116 11.3317 10.6591L11.3392 10.6666Z" fill="#F8F9FF"/>
<path d="M10.6934 5.52249L8.69376 5.01611L8.27576 6.66675L10.2755 7.17311L10.6934 5.52249Z" fill="#8699FF"/>
</g>
<defs>
<linearGradient id="paint0_linear_24_337" x1="1.1647" y1="-0.322581" x2="20.7641" y2="27.0832" gradientUnits="userSpaceOnUse">
<stop stop-color="#635DFD"/>
<stop offset="0.341" stop-color="#573BFF"/>
<stop offset="1" stop-color="#5741BC"/>
</linearGradient>
<clipPath id="clip0_24_337">
<rect width="20" height="20" fill="white"/>
</clipPath>
</defs>
</svg>
