<svg width="100%" height="100%" viewBox="0 0 20 20" fill="none" xmlns="http://www.w3.org/2000/svg">
<g clip-path="url(#clip0_24_104)">
<path d="M20 10C20 4.47715 15.5228 0 10 0C4.47715 0 0 4.47715 0 10C0 15.5228 4.47715 20 10 20C15.5228 20 20 15.5228 20 10Z" fill="#6058FD"/>
<path fill-rule="evenodd" clip-rule="evenodd" d="M14.6522 14.4727C14.6533 14.4809 14.6538 14.4894 14.654 14.4979C14.6543 14.5637 14.6205 14.6249 14.5644 14.6594L10.0743 17.4281C10.0136 17.4654 9.93726 17.4657 9.87676 17.4283L5.42298 14.6942C5.36693 14.6596 5.33283 14.5986 5.33306 14.5328C5.33306 14.5272 5.33329 14.5213 5.33399 14.5157C5.33329 14.5096 5.33306 14.5037 5.33306 14.4976L5.33278 11.0816C5.33278 11.0775 5.33302 11.0734 5.33325 11.0694C5.32998 11.0199 5.34632 10.9697 5.38135 10.9309C5.44112 10.8647 5.53896 10.8494 5.6158 10.8942L9.99233 13.4342L14.3285 10.9187C14.3355 10.9144 14.343 10.9109 14.3504 10.9077C14.3821 10.8831 14.4219 10.8686 14.4653 10.8686C14.5692 10.8686 14.6538 10.9531 14.6538 11.0571L14.654 14.4462C14.654 14.4553 14.6533 14.464 14.6522 14.4727ZM5.70994 14.1995L7.00364 13.4179L5.70974 11.6371L5.70994 14.1995ZM7.22595 13.7241C6.86708 13.9408 5.88395 14.5347 5.88395 14.5347L9.36951 16.6747L7.22595 13.7241ZM10.6418 16.6354L14.1031 14.5009L12.7657 13.6967L10.6418 16.6354ZM12.9873 13.3901L14.2771 14.1656L14.2769 11.6056L12.9873 13.3901ZM9.89776 13.8151L6.19781 11.6675L9.99208 16.8906L13.7513 11.6892L10.0869 13.8151C10.0285 13.8489 9.95614 13.8489 9.89776 13.8151ZM5.51487 10.1647C5.41375 10.1612 5.33271 10.0783 5.33269 9.97625L5.33234 5.53606C5.33234 5.52498 5.33328 5.51411 5.33515 5.50369C5.33328 5.49348 5.33234 5.48306 5.33234 5.47242C5.3321 5.40662 5.36619 5.34538 5.42224 5.31107L9.91251 2.55717C9.97276 2.52004 10.0489 2.52004 10.1091 2.55696L14.563 5.2761C14.6192 5.31041 14.6533 5.37165 14.6533 5.43745C14.6533 5.44027 14.6531 5.44289 14.6531 5.44571C14.6531 5.44853 14.6533 5.45135 14.6533 5.45439L14.6537 9.953C14.6537 10.0325 14.6042 10.1007 14.5346 10.1282L10.0831 12.577C10.0266 12.6081 9.95789 12.6081 9.90139 12.577L5.51487 10.1647ZM5.70928 5.8049L5.70956 9.37775L7.31089 6.76781L5.70928 5.8049ZM14.2765 5.77102L12.66 6.74762L14.2767 9.38231L14.2765 5.77102ZM12.463 6.42625C12.8774 6.17582 14.1018 5.43616 14.1018 5.43616L10.5097 3.24299L12.463 6.42625ZM9.44808 3.28404L5.88393 5.47003L7.50795 6.44662L9.44808 3.28404ZM5.82754 9.9065L9.9922 12.1967L14.156 9.90631L9.99151 3.1192L5.82754 9.9065Z" fill="white"/>
</g>
<defs>
<clipPath id="clip0_24_104">
<rect width="20" height="20" fill="white"/>
</clipPath>
</defs>
</svg>
