<svg width="100%" height="100%" viewBox="0 0 20 20" fill="none" xmlns="http://www.w3.org/2000/svg">
<g clip-path="url(#clip0_24_85)">
<path d="M20 10C20 4.47715 15.5228 0 10 0C4.47715 0 0 4.47715 0 10C0 15.5228 4.47715 20 10 20C15.5228 20 20 15.5228 20 10Z" fill="#6058FD"/>
<path d="M20 10C20 4.47715 15.5228 0 10 0C4.47715 0 0 4.47715 0 10C0 15.5228 4.47715 20 10 20C15.5228 20 20 15.5228 20 10Z" fill="url(#paint0_linear_24_85)" fill-opacity="0.66"/>
<mask id="mask0_24_85" style="mask-type:luminance" maskUnits="userSpaceOnUse" x="5" y="2" width="10" height="16">
<path d="M14.653 2.5293H5.33203L5.33321 17.4562H14.6542L14.653 2.5293Z" fill="white"/>
</mask>
<g mask="url(#mask0_24_85)">
<path fill-rule="evenodd" clip-rule="evenodd" d="M14.6523 14.4727C14.6534 14.4809 14.6539 14.4894 14.6541 14.4979C14.6543 14.5637 14.6205 14.6249 14.5644 14.6594L10.0744 17.4281C10.0137 17.4654 9.93732 17.4657 9.87682 17.4283L5.42304 14.6942C5.36699 14.6596 5.33289 14.5986 5.33312 14.5328C5.33312 14.5272 5.33336 14.5213 5.33406 14.5157C5.33336 14.5096 5.33312 14.5037 5.33312 14.4976L5.33284 11.0816C5.33284 11.0775 5.33308 11.0734 5.33331 11.0694C5.33004 11.0199 5.34638 10.9697 5.38141 10.9309C5.44119 10.8647 5.53902 10.8494 5.61586 10.8942L9.99239 13.4342L14.3285 10.9187C14.3355 10.9144 14.343 10.9109 14.3504 10.9077C14.3822 10.8831 14.4219 10.8686 14.4654 10.8686C14.5693 10.8686 14.6538 10.9531 14.6538 11.0571L14.6541 14.4462C14.6541 14.4553 14.6534 14.464 14.6523 14.4727ZM5.71 14.1995L7.0037 13.4179L5.70981 11.6371L5.71 14.1995ZM7.22601 13.7241C6.86714 13.9408 5.88401 14.5347 5.88401 14.5347L9.36957 16.6747L7.22601 13.7241ZM10.6418 16.6354L14.1032 14.5009L12.7658 13.6967L10.6418 16.6354ZM12.9873 13.3901L14.2771 14.1656L14.2769 11.6056L12.9873 13.3901ZM9.89782 13.8151L6.19787 11.6675L9.99214 16.8906L13.7513 11.6892L10.0869 13.8151C10.0286 13.8489 9.9562 13.8489 9.89782 13.8151ZM5.51493 10.1647C5.41381 10.1612 5.33277 10.0783 5.33276 9.97625L5.3324 5.53606C5.3324 5.52498 5.33334 5.51411 5.33521 5.50369C5.33334 5.49348 5.3324 5.48306 5.3324 5.47242C5.33216 5.40662 5.36625 5.34538 5.4223 5.31107L9.91257 2.55717C9.97282 2.52004 10.0489 2.52004 10.1092 2.55696L14.563 5.2761C14.6193 5.31041 14.6534 5.37165 14.6534 5.43745C14.6534 5.44027 14.6531 5.44289 14.6531 5.44571C14.6531 5.44853 14.6534 5.45135 14.6534 5.45439L14.6538 9.953C14.6538 10.0325 14.6043 10.1007 14.5346 10.1282L10.0831 12.577C10.0266 12.6081 9.95795 12.6081 9.90145 12.577L5.51493 10.1647ZM5.70934 5.8049L5.70962 9.37775L7.31095 6.76781L5.70934 5.8049ZM14.2765 5.77102L12.6601 6.74762L14.2768 9.38231L14.2765 5.77102ZM12.463 6.42625C12.8774 6.17582 14.1018 5.43616 14.1018 5.43616L10.5098 3.24299L12.463 6.42625ZM9.44814 3.28404L5.88399 5.47003L7.50801 6.44662L9.44814 3.28404ZM5.8276 9.9065L9.99226 12.1967L14.1561 9.90631L9.99157 3.1192L5.8276 9.9065Z" fill="#EDE8FF"/>
</g>
</g>
<defs>
<linearGradient id="paint0_linear_24_85" x1="10.625" y1="-1.25" x2="10" y2="20" gradientUnits="userSpaceOnUse">
<stop stop-color="#33117B" stop-opacity="0"/>
<stop offset="0.827261" stop-color="#33117B"/>
</linearGradient>
<clipPath id="clip0_24_85">
<rect width="20" height="20" fill="white"/>
</clipPath>
</defs>
</svg>
