<svg width="100%" height="100%" viewBox="0 0 40 40" fill="none" xmlns="http://www.w3.org/2000/svg">
<rect width="40" height="40" rx="20" fill="#052350"/>
<path d="M19.0003 6.77877C19.6191 6.4215 20.3815 6.4215 21.0003 6.77877L30.9499 12.5231C31.5687 12.8804 31.9499 13.5407 31.9499 14.2552V25.744C31.9499 26.4585 31.5687 27.1188 30.9499 27.476L21.0003 33.2204C20.3815 33.5777 19.6191 33.5777 19.0003 33.2204L9.05075 27.476C8.43195 27.1188 8.05075 26.4585 8.05075 25.744V14.2552C8.05075 13.5407 8.43195 12.8804 9.05075 12.5231L19.0003 6.77877Z" fill="#243145"/>
<path d="M13.5 7.75278C17.5222 5.43055 22.4778 5.43055 26.5 7.75278L27.3564 8.24722C31.3786 10.5694 33.8564 14.8611 33.8564 19.5056V20.4944C33.8564 25.1389 31.3786 29.4305 27.3564 31.7528L26.5 32.2472C22.4778 34.5695 17.5222 34.5695 13.5 32.2472L12.6436 31.7528C8.62138 29.4305 6.14359 25.1389 6.14359 20.4944V19.5056C6.14359 14.8611 8.62138 10.5694 12.6436 8.24722L13.5 7.75278Z" fill="#243145"/>
<path d="M22.8623 32.2569L20.9172 26.926C20.8936 26.8612 20.8935 26.7902 20.917 26.7254L22.4423 22.5156C22.5354 22.2584 22.8988 22.2572 22.9936 22.5138L25.9448 30.4954L22.8623 32.2569Z" fill="#4EA7F8"/>
<path d="M30.1283 28L27.1191 29.7615L23.4867 19.8811C23.4626 19.8158 23.4626 19.7439 23.4867 19.6785L25.0084 15.5395C25.1027 15.283 25.4655 15.2832 25.5595 15.5397L30.1283 28Z" fill="#4EA7F8"/>
<path d="M19.0449 4.55601C19.6353 4.21513 20.3627 4.21513 20.9531 4.55601L32.9014 11.4544C33.4916 11.7954 33.8555 12.4251 33.8555 13.1068V26.9037C33.8553 27.5852 33.4917 28.2152 32.9014 28.556L20.9531 35.4544C20.3628 35.7952 19.6353 35.7952 19.0449 35.4544L13.6719 32.3519L14.3213 30.5238L19.999 33.8011L31.9473 26.9037V13.1068L19.999 6.20836L8.05078 13.1068V26.9037L13.0869 29.8109L12.416 31.6273L7.09668 28.556C6.50639 28.2152 6.14274 27.5852 6.14258 26.9037V13.1068C6.14258 12.4251 6.50637 11.7954 7.09668 11.4544L19.0449 4.55601Z" fill="#A7CBEA"/>
<path d="M19.3397 12.9092L12.4208 31.6258L9.43066 29.8981L15.7452 12.7059C15.7877 12.5906 15.8977 12.5139 16.0206 12.5139H19.0643C19.2687 12.5139 19.4105 12.7175 19.3397 12.9092Z" fill="white"/>
<path d="M24.2631 12.9062L16.6953 34.0919L13.6436 32.3304L20.664 12.7091C20.7057 12.5921 20.8164 12.5139 20.9407 12.5139H23.9866C24.1896 12.5139 24.3314 12.715 24.2631 12.9062Z" fill="white"/>
</svg>
