<svg width="100%" height="100%" viewBox="0 0 513 513" fill="none" xmlns="http://www.w3.org/2000/svg">
<circle cx="256.348" cy="256.615" r="256" fill="#939393"/>
<path fill-rule="evenodd" clip-rule="evenodd" d="M188.976 86.7259C218.233 80.2616 247.271 78.168 276.749 79.0975C318.273 78.9557 361.905 90.9572 393.088 120.379L393.119 120.408L393.149 120.438C414.837 141.912 431 170.624 433.7 201.679L433.717 201.876L433.712 202.07C433.312 218.453 433.381 234.343 434.079 250.511L434.227 253.749L434.23 253.811V253.876C434.4 267.952 434.427 283.296 432.195 297.908C430.649 309.703 427.224 322.24 424.25 333.395C415.812 369.761 396.604 393.616 370.941 408.854C345.405 424.016 313.7 430.522 280.371 432.768L280.298 432.771C273.125 433.104 265.907 433.248 258.75 433.394C251.576 433.54 244.46 433.688 237.408 434.026H237.385L237.364 434.028C226.006 434.432 213.783 435.456 201.737 434.35L201.654 434.341L201.572 434.33C172.093 430.22 144.119 416.518 122.792 395.708C122.773 395.69 122.744 395.69 122.726 395.709V395.709C122.708 395.728 122.677 395.727 122.659 395.708L120.204 393.126C103.135 375.17 92.8466 351.675 86.4065 328.565L86.3891 328.499C81.9424 311.258 81.0678 293.586 79.5498 276.589L79.5428 276.509C78.6015 262.289 77.944 247.36 78.778 232.89C79.4569 217.579 82.5752 202.992 85.7599 188.028C92.107 156.652 108.073 126.27 135.504 107.672C151.63 96.6072 170.474 90.5975 188.976 86.7259ZM410.616 206.976C405.159 195.415 388.31 195.197 380.906 205.618V205.618C374.028 216.068 368.79 227.337 363.758 238.973C358.768 250.511 353.936 262.519 347.981 274.044C341.165 289.788 333.622 307.235 319.96 319.648C306.787 332.684 287.986 338.798 272.211 344.915C256.593 351.75 241.773 359.104 227.567 367.936L227.513 367.969L227.459 368C220.224 372.148 213.526 377.076 206.512 382.099C199.557 387.08 192.329 392.124 184.304 396.211L184.28 396.223L184.254 396.235V396.235C183.65 396.531 183.614 397.38 184.199 397.71C191.87 402.043 199.849 405.887 208.086 409.184C218.262 413.253 227.892 417.854 238.058 419.124L238.079 419.127L238.101 419.129C258.744 421.964 279.777 414.975 298.161 404.594C313.044 395.51 325.429 383.472 337.613 370.668C349.698 357.969 361.692 344.392 375.46 332.84C383.018 326.014 390.472 318.777 396.441 310.801C411.185 289.239 421.603 263.343 420.471 237.341L420.47 237.289L420.468 237.235C420.329 227.094 415.813 217.364 410.952 207.686L410.933 207.646L410.912 207.604C410.813 207.395 410.715 207.185 410.616 206.976ZM354.386 138.662C347.846 138.224 340.29 139.103 332.615 140.881C317.171 144.46 302.071 151.482 294.702 157.6L294.655 157.638L294.606 157.676C281.921 167.487 270.923 179.414 262.101 192.963C253.55 206.375 245.392 221.288 233.549 233.003C227.67 239.517 220.025 243.961 212.555 247.851C204.896 251.841 197.571 255.189 191.315 259.665L188.882 261.511C183.236 265.854 177.799 270.448 172.654 275.313L172.636 275.329L172.621 275.343C155.387 291.222 145.269 314.234 140.742 336.953C139.781 342.845 139.079 349.021 139.543 354.686V354.686C140.35 364.535 149.013 371.9 158.892 372.177C164.173 372.325 169.923 371.583 175.944 370.647L176.015 370.637L176.086 370.628C199.457 367.978 222.552 358.694 238.732 341.541L238.807 341.461L238.887 341.386C250.64 330.388 258.986 315.917 266.526 301.153L266.552 301.103L266.578 301.054C274.86 286.049 285.888 274.5 299.942 265.09L300.001 265.052L300.062 265.015C314.004 256.47 327.818 247.58 339.329 236.408L339.414 236.323L339.506 236.246C351.862 225.797 362.876 213.987 367.887 199.15L367.893 199.133L367.9 199.116C370.442 191.84 371.438 183.897 372.283 176.088C372.901 169.766 373.653 163.868 373.463 158.25V158.25C373.122 148.187 365.445 139.644 355.417 138.742C355.077 138.712 354.734 138.685 354.386 138.662ZM313.951 128.343C323.447 122.687 324.265 108.31 314.112 103.942C287.384 92.4434 257.913 89.7322 229.918 101.832L229.811 101.879L229.699 101.919C215.343 107.015 203.64 116.081 192.709 126.717C187.241 132.038 182.014 137.704 176.738 143.436C171.508 149.118 166.223 154.871 160.718 160.276C153.91 167.761 146.418 174.689 139.232 181.564C131.973 188.51 124.971 195.453 118.888 203.153L118.879 203.164L118.872 203.174C112.602 210.994 107.759 220.402 103.763 229.908L103.756 229.927L103.747 229.946C93.3987 253.749 90.5851 281.175 100.096 305.187L100.558 306.328L100.572 306.359L100.584 306.39C104.417 316.173 109.029 325.524 114.546 334.309V334.309C115.261 335.311 116.796 335.13 117.3 334.007C120.72 326.391 124.936 318.944 129.181 311.936C135.095 302.172 140.87 293.557 145.168 285.916L145.195 285.867L145.225 285.818C153.878 271.528 160.473 256.243 168.063 240.734C169.751 236.955 171.291 232.929 172.881 228.741C174.468 224.563 176.106 220.223 177.944 215.989C181.608 207.554 186.203 199.208 193.281 192.742C206.256 179.794 223.13 171.804 239.476 165.339C255.463 158.73 270.81 151.567 286.159 144.046L286.187 144.032L286.217 144.018C295.508 139.675 304.491 133.977 313.951 128.343V128.343Z" fill="url(#paint0_radial_884_112)"/>
<path fill-rule="evenodd" clip-rule="evenodd" d="M326.92 120.796C341.193 113.41 356.672 108.074 374.422 110.816L374.459 110.821L374.495 110.83C395.363 114.506 407.35 136.599 404.135 155.801C402.066 176.023 390.796 191.162 380.561 205.566C373.678 216.021 368.436 227.293 363.401 238.935C358.415 250.465 353.588 262.465 347.638 273.984C340.833 289.703 333.302 307.12 319.683 319.535L318.43 320.745C305.33 333.008 287.166 338.94 271.856 344.877C256.238 351.712 241.42 359.064 227.213 367.896L227.16 367.929L227.104 367.96C219.869 372.108 213.17 377.037 206.155 382.061C199.2 387.042 191.973 392.086 183.947 396.173L183.899 396.197C174.748 400.678 163.291 404.489 151.897 404.941C140.733 405.384 129.383 402.591 120.565 393.772C120.538 393.744 120.503 393.723 120.466 393.71V393.71C120.422 393.696 120.384 393.671 120.354 393.636L119.762 392.947C104.895 375.632 107.932 355.099 115.912 336.318C119.917 326.891 125.263 317.653 130.519 309.119C135.839 300.479 140.955 292.733 144.809 285.879L144.837 285.83L144.866 285.784C153.518 271.495 160.114 256.211 167.703 240.705C169.392 236.923 170.931 232.895 172.523 228.705C174.11 224.526 175.749 220.185 177.588 215.951C181.252 207.515 185.849 199.17 192.93 192.704C205.918 179.743 222.811 171.75 239.173 165.282C255.142 158.679 270.465 151.521 285.799 144.008L285.829 143.996L285.858 143.98C292.631 140.814 299.291 136.898 306.103 132.803C312.867 128.737 319.804 124.479 326.92 120.796ZM354.314 138.637C347.775 138.161 340.197 139.016 332.484 140.787C316.965 144.351 301.752 151.411 294.347 157.56L294.3 157.6L294.251 157.638C281.565 167.449 270.566 179.374 261.744 192.923C253.191 206.337 245.03 221.251 233.184 232.967C227.305 239.477 219.665 243.922 212.198 247.812C204.516 251.813 197.169 255.17 190.901 259.667C184.403 264.537 178.163 269.73 172.299 275.275L172.281 275.291L172.266 275.306C155.025 291.192 144.908 314.213 140.384 336.941C139.425 342.825 138.725 348.991 139.188 354.648V354.648C139.996 364.5 148.664 371.866 158.545 372.14C163.822 372.287 169.567 371.544 175.584 370.609L175.657 370.599L175.73 370.59C199.099 367.94 222.194 358.659 238.374 341.506L238.45 341.427L238.53 341.352C250.283 330.353 258.627 315.882 266.167 301.117L266.193 301.066L266.221 301.018C274.503 286.013 285.531 274.464 299.585 265.053L299.643 265.015L299.704 264.979C313.646 256.433 327.458 247.546 338.969 236.373L339.056 236.288L339.148 236.212C351.504 225.762 362.517 213.953 367.529 199.116L367.536 199.097L367.541 199.081C370.081 191.815 371.078 183.884 371.923 176.084C372.544 169.721 373.304 163.785 373.106 158.135V158.135C372.755 148.119 365.114 139.617 355.133 138.705C354.863 138.68 354.59 138.657 354.314 138.637Z" fill="url(#paint1_radial_884_112)"/>
<path fill-rule="evenodd" clip-rule="evenodd" d="M326.92 120.796C341.193 113.41 356.672 108.074 374.422 110.816L374.459 110.821L374.495 110.83C395.363 114.506 407.35 136.599 404.135 155.801C402.066 176.023 390.796 191.162 380.561 205.566C373.678 216.021 368.436 227.293 363.401 238.935C358.415 250.465 353.588 262.465 347.638 273.984C340.833 289.703 333.302 307.12 319.683 319.535L318.43 320.745C305.33 333.008 287.166 338.94 271.856 344.877C256.238 351.712 241.42 359.064 227.213 367.896L227.16 367.929L227.104 367.96C219.869 372.108 213.17 377.037 206.155 382.061C199.2 387.042 191.973 392.086 183.947 396.173L183.899 396.197C174.748 400.678 163.291 404.489 151.897 404.941C140.733 405.384 129.383 402.591 120.565 393.772C120.538 393.744 120.503 393.723 120.466 393.71V393.71C120.422 393.696 120.384 393.671 120.354 393.636L119.762 392.947C104.895 375.632 107.932 355.099 115.912 336.318C119.917 326.891 125.263 317.653 130.519 309.119C135.839 300.479 140.955 292.733 144.809 285.879L144.837 285.83L144.866 285.784C153.518 271.495 160.114 256.211 167.703 240.705C169.392 236.923 170.931 232.895 172.523 228.705C174.11 224.526 175.749 220.185 177.588 215.951C181.252 207.515 185.849 199.17 192.93 192.704C205.918 179.743 222.811 171.75 239.173 165.282C255.142 158.679 270.465 151.521 285.799 144.008L285.829 143.996L285.858 143.98C292.631 140.814 299.291 136.898 306.103 132.803C312.867 128.737 319.804 124.479 326.92 120.796ZM354.314 138.637C347.775 138.161 340.197 139.016 332.484 140.787C316.965 144.351 301.752 151.411 294.347 157.56L294.3 157.6L294.251 157.638C281.565 167.449 270.566 179.374 261.744 192.923C253.191 206.337 245.03 221.251 233.184 232.967C227.305 239.477 219.665 243.922 212.198 247.812C204.516 251.813 197.169 255.17 190.901 259.667C184.403 264.537 178.163 269.73 172.299 275.275L172.281 275.291L172.266 275.306C155.025 291.192 144.908 314.213 140.384 336.941C139.425 342.825 138.725 348.991 139.188 354.648V354.648C139.996 364.5 148.664 371.866 158.545 372.14C163.822 372.287 169.567 371.544 175.584 370.609L175.657 370.599L175.73 370.59C199.099 367.94 222.194 358.659 238.374 341.506L238.45 341.427L238.53 341.352C250.283 330.353 258.627 315.882 266.167 301.117L266.193 301.066L266.221 301.018C274.503 286.013 285.531 274.464 299.585 265.053L299.643 265.015L299.704 264.979C313.646 256.433 327.458 247.546 338.969 236.373L339.056 236.288L339.148 236.212C351.504 225.762 362.517 213.953 367.529 199.116L367.536 199.097L367.541 199.081C370.081 191.815 371.078 183.884 371.923 176.084C372.544 169.721 373.304 163.785 373.106 158.135V158.135C372.755 148.119 365.114 139.617 355.133 138.705C354.863 138.68 354.59 138.657 354.314 138.637Z" fill="url(#paint2_radial_884_112)"/>
<g style="mix-blend-mode:color">
<circle cx="256.348" cy="256.615" r="256" fill="#2D2E3F"/>
</g>
<defs>
<radialGradient id="paint0_radial_884_112" cx="0" cy="0" r="1" gradientUnits="userSpaceOnUse" gradientTransform="translate(258.498 258.727) rotate(134.995) scale(213.04 198.174)">
<stop stop-color="#B1B1B1"/>
<stop offset="0.308778" stop-color="#A3A3A3"/>
<stop offset="0.690052" stop-color="#A4A4A4"/>
<stop offset="0.783962" stop-color="#D5D5D5"/>
<stop offset="0.871284" stop-color="white"/>
<stop offset="0.907743" stop-color="white"/>
<stop offset="1" stop-color="#E9E9E9"/>
</radialGradient>
<radialGradient id="paint1_radial_884_112" cx="0" cy="0" r="1" gradientUnits="userSpaceOnUse" gradientTransform="translate(256.962 257.533) rotate(136.04) scale(275.989 116.437)">
<stop stop-color="#B6B6B6"/>
<stop offset="0.576122" stop-color="white"/>
<stop offset="0.777533" stop-color="#CDCDCD"/>
</radialGradient>
<radialGradient id="paint2_radial_884_112" cx="0" cy="0" r="1" gradientUnits="userSpaceOnUse" gradientTransform="translate(256.96 257.536) rotate(-44.834) scale(192.278 227.631)">
<stop offset="0.539283" stop-color="#FDFEFF" stop-opacity="0"/>
<stop offset="0.639431" stop-color="#A6A6A6" stop-opacity="0.1"/>
<stop offset="0.771171" stop-color="#C1C6C7" stop-opacity="0.72"/>
<stop offset="0.860428" stop-color="#DADBDE"/>
<stop offset="0.912201" stop-color="#EAEAED"/>
<stop offset="0.966001" stop-color="white"/>
</radialGradient>
</defs>
</svg>
