<svg width="100%" height="100%" viewBox="0 0 40 40" fill="none" xmlns="http://www.w3.org/2000/svg">
<rect width="40" height="40" rx="20" fill="black"/>
<path d="M19.8852 34.2509V29.398C19.4031 29.398 18.9106 29.3555 18.4286 29.2811L17.6742 34.0704C18.4077 34.1978 19.1517 34.2509 19.8852 34.2509ZM22.0857 34.081C22.8192 33.9642 23.5422 33.7943 24.2442 33.5606L22.7668 28.9413C22.3057 29.09 21.8237 29.2068 21.3417 29.2811L22.0857 34.081ZM15.5261 33.5606L17.0035 28.952C16.5425 28.8033 16.0919 28.6121 15.6518 28.3891L13.4723 32.7111C14.1324 33.0403 14.824 33.327 15.5261 33.5606ZM26.2876 32.7111C26.9477 32.3713 27.5764 31.9784 28.1737 31.543L25.3445 27.6246C24.9568 27.9113 24.5376 28.1768 24.0975 28.3891L26.2876 32.7111ZM11.5861 31.5324L14.4153 27.614C14.0276 27.3272 13.6504 27.0087 13.3046 26.6582L9.90955 30.0882C10.4335 30.6085 10.9993 31.097 11.5861 31.5324ZM29.8398 30.1094L29.8712 30.0776C30.3952 29.5572 30.8772 28.9838 31.3068 28.3891L27.4297 25.5326C27.1468 25.9255 26.822 26.3078 26.4867 26.6476L26.4343 26.7007L28.0689 28.2617L29.8398 30.1094ZM8.47398 28.3785L12.3511 25.522C12.0681 25.1291 11.8062 24.7043 11.5861 24.2689L7.31086 26.4671C7.64617 27.1361 8.03388 27.7732 8.47398 28.3785ZM32.4595 26.4777C32.7948 25.8193 33.0777 25.1185 33.3082 24.407L28.7396 22.9203C28.5929 23.3876 28.4042 23.8442 28.1842 24.2796L32.4595 26.4777ZM6.46209 24.407L11.0308 22.9097C10.8841 22.4425 10.7688 21.9646 10.6954 21.4761L5.94864 22.2301C6.06391 22.9628 6.24204 23.6955 6.46209 24.407ZM33.8217 22.2407C33.9369 21.508 33.9998 20.754 33.9998 20.0107H29.2006C29.2006 20.4992 29.1587 20.9983 29.0853 21.4867L33.8217 22.2407ZM10.5802 20.0001C10.5802 19.5116 10.6221 19.0125 10.6954 18.524L5.94864 17.7701C5.83338 18.5028 5.78099 19.2567 5.77051 20.0001H10.5802ZM29.0853 18.5346L33.8321 17.7807C33.7169 17.048 33.5492 16.3153 33.3187 15.6038L28.75 17.0904C28.8967 17.5683 29.012 18.0462 29.0853 18.5346ZM11.0308 17.0904C11.1775 16.6232 11.3661 16.1666 11.5861 15.7312L7.31086 13.5331C6.97554 14.1914 6.69262 14.8923 6.46209 15.6038L11.0308 17.0904ZM28.1947 15.7418L32.4804 13.5437C32.1451 12.8747 31.7574 12.2375 31.3173 11.6322L27.4297 14.4888C27.7127 14.8817 27.9746 15.3064 28.1947 15.7418ZM12.3511 14.4782C12.634 14.0852 12.9588 13.703 13.3046 13.3525L13.3151 13.3419L9.92003 9.91195L9.90955 9.92257C9.38562 10.4535 8.9036 11.0163 8.47398 11.6216L12.3511 14.4782ZM26.4867 13.3738L27.5136 12.3225L29.8712 9.9438L29.8608 9.93318C29.3368 9.41285 28.7815 8.92437 28.1947 8.48899L25.3655 12.4074C25.7532 12.6941 26.1304 13.0127 26.4657 13.3631L26.4867 13.3738ZM14.4258 12.3862C14.8135 12.0995 15.2327 11.8446 15.6728 11.6216L13.4932 7.29965C12.8331 7.63946 12.2044 8.03237 11.6071 8.46775L14.4258 12.3862ZM24.129 11.6322L26.319 7.31027C25.6589 6.97046 24.9777 6.68375 24.2757 6.45013L22.7877 11.0588C23.2383 11.2181 23.6889 11.4092 24.129 11.6322ZM17.0245 11.0588C17.4856 10.9101 17.9676 10.7933 18.4496 10.719L17.7056 5.92979C16.9826 6.0466 16.2491 6.21651 15.547 6.45013L17.0245 11.0588ZM21.3522 10.719L22.1066 5.92979C21.3836 5.81298 20.6396 5.74927 19.9061 5.74927V10.6022C20.3881 10.6022 20.8806 10.6447 21.3522 10.719Z" fill="white"/>
<path d="M19.8797 29.5006V24.6418C19.4748 24.6418 19.0804 24.5889 18.6859 24.483L17.4403 29.1724C18.2396 29.3841 19.0596 29.5006 19.8797 29.5006ZM22.3191 29.1724C23.1183 28.9607 23.8761 28.6432 24.5923 28.2197L22.1841 24.0173C21.8416 24.2184 21.4679 24.3772 21.0838 24.483L22.3191 29.1724ZM15.1774 28.2197L17.5856 24.0173C17.2431 23.8161 16.9213 23.5621 16.6306 23.2763L16.5891 23.2339L15.0736 24.8535L13.2051 26.6848L13.2363 26.7166C13.8176 27.2988 14.4715 27.8069 15.1774 28.2197ZM26.5335 26.7166C27.1148 26.1238 27.6234 25.4675 28.0282 24.7477L23.8657 22.313C23.6685 22.6623 23.4194 22.9799 23.1287 23.2763L26.5335 26.7166ZM11.7311 24.7371L15.8936 22.313C15.6964 21.9637 15.5407 21.5932 15.4369 21.2015L10.7969 22.4506C11.0045 23.2445 11.3263 24.0173 11.7311 24.7371ZM28.9728 22.4612C29.1804 21.6567 29.2946 20.831 29.2946 20.0053H24.4885C24.4885 20.4076 24.4366 20.8204 24.3328 21.2121L28.9728 22.4612ZM15.2916 19.9948C15.2916 19.5925 15.3435 19.1797 15.4473 18.788L10.7969 17.5389C10.5893 18.3434 10.4751 19.1691 10.4751 19.9948H15.2916ZM24.3225 18.7986L28.9728 17.5495C28.7652 16.745 28.4434 15.9722 28.0386 15.2524L23.8761 17.6765C24.0629 18.0364 24.2187 18.4069 24.3225 18.7986ZM15.904 17.6765C16.1012 17.3378 16.34 17.0096 16.6306 16.7238L16.641 16.7132L14.9179 14.9772L13.2674 13.2518L13.2363 13.2835C12.655 13.8657 12.1567 14.5326 11.7415 15.2418L15.904 17.6765ZM23.1287 16.7238L24.8311 14.9984L26.575 13.3259L26.5335 13.2835C25.9522 12.6907 25.2982 12.1932 24.5923 11.7698L22.1841 15.9722C22.5267 16.1734 22.8381 16.4168 23.1287 16.7026V16.7238ZM17.5856 15.9722C17.9282 15.7711 18.3019 15.6123 18.6859 15.5065L17.4611 10.8171C16.6618 11.0288 15.904 11.3464 15.1878 11.7698L17.5856 15.9722ZM21.0734 15.5171L22.3191 10.8277C21.5301 10.616 20.7101 10.4995 19.8901 10.4995V15.3583C20.2845 15.3583 20.6893 15.4112 21.0734 15.5171Z" fill="white"/>
</svg>
