<svg width="100%" height="100%" viewBox="0 0 40 40" fill="none" xmlns="http://www.w3.org/2000/svg">
<path d="M0 20C0 31.0457 8.95431 40 20 40C31.0457 40 40 31.0457 40 20C40 8.95431 31.0457 0 20 0C8.95431 0 0 8.95431 0 20Z" fill="#573BFF"/>
<path d="M21.5165 7.01559C24.1083 7.00595 26.794 7.64095 28.9306 9.14059C29.2541 9.29283 29.5323 9.51812 29.7577 9.79098C29.8432 9.86592 29.9277 9.94218 30.0107 10.0205C31.5933 11.5872 32.7613 13.6713 32.956 15.9101C32.924 17.2177 32.9325 18.4846 32.995 19.7802C33.0077 20.8302 33.0093 21.9536 32.8466 23.0185C32.7343 23.8795 32.4824 24.7988 32.2587 25.6377C31.0346 30.9247 26.7053 32.5133 21.7734 32.8457C20.7121 32.8948 19.6356 32.8885 18.5761 32.9394C17.7121 32.9701 16.8298 33.0443 15.954 32.9638C13.7257 32.6532 11.6145 31.5882 10.0439 29.9726L9.83879 29.748C9.76749 29.6881 9.69763 29.6239 9.63079 29.5537H9.62981C9.46884 29.3662 9.34074 29.1716 9.23723 28.9736C8.46835 27.8584 7.94791 26.5643 7.58782 25.2724C7.26332 24.0146 7.19934 22.7275 7.08489 21.4463C7.01483 20.3882 6.96675 19.2872 7.02825 18.2246C7.07775 17.1091 7.3048 16.0433 7.5429 14.9248C8.00619 12.6323 9.1687 10.437 11.1425 9.09958C12.3036 8.30304 13.6698 7.86431 15.0331 7.57907C17.1914 7.10204 19.3353 6.94653 21.5165 7.01559ZM30.081 13.2041C29.7495 14.0867 29.1953 14.8472 28.6503 15.6142C27.5962 17.214 27.0564 19.0483 26.1757 20.75C25.6621 21.9363 25.1185 23.1858 24.1454 24.0683C23.2106 24.9967 21.8704 25.4327 20.665 25.9004C19.4921 26.4134 18.3738 26.9671 17.2997 27.6347C16.193 28.2692 15.2527 29.1412 14.0956 29.7304C13.8733 29.8393 13.632 29.9406 13.3808 30.0302C14.2901 30.6528 15.2708 31.1796 16.3056 31.5937C17.0401 31.8874 17.8032 32.2515 18.6044 32.3515C20.2245 32.574 21.854 32.0233 23.2499 31.2343C25.5338 29.8421 27.0244 27.5561 29.0517 25.8574C29.6201 25.3442 30.1935 24.7888 30.6552 24.1709C31.7748 22.535 32.5816 20.5485 32.4941 18.5341C32.4828 17.7101 32.1166 16.934 31.7568 16.2177C31.2641 15.1704 30.7227 14.1497 30.081 13.2041ZM28.2118 10.9853C26.9783 9.82307 23.4612 10.9971 22.2743 11.9824C21.3049 12.732 20.4647 13.6437 19.7909 14.6787C19.1387 15.7016 18.5524 16.7755 17.6943 17.622C16.8843 18.5236 15.5536 18.8809 14.579 19.58C14.0862 19.9491 13.6122 20.3437 13.1659 20.7656C11.8265 21.9997 11.0525 23.7743 10.7089 25.5039C10.5634 26.3939 10.4811 27.4516 11.0907 28.0937L11.2284 28.1758C11.926 28.5531 12.7966 28.449 13.6318 28.3193C15.4182 28.1167 17.2031 27.4054 18.4618 26.0713C19.3734 25.2184 20.0124 24.1045 20.5761 23.0009C21.1716 21.9223 21.9632 21.0918 22.9784 20.4121C24.0177 19.7752 25.0703 19.0999 25.9511 18.2451C26.8828 17.4573 27.7486 16.5388 28.1454 15.3642C28.346 14.7902 28.4225 14.1703 28.4853 13.5898C28.5755 12.666 28.7241 11.7222 28.2118 10.9853ZM26.0253 9.22263C23.6127 7.68875 20.6872 7.01418 17.9267 8.207C15.6848 9.00273 14.3103 11.0255 12.6835 12.6211C11.6822 13.7229 10.4808 14.6567 9.54973 15.8349C9.06078 16.4446 8.68895 17.1707 8.38665 17.8896C7.58249 19.739 7.36282 21.895 8.14641 23.7861C8.43842 24.5313 8.79116 25.2451 9.21379 25.917C9.22406 25.9314 9.23469 25.9455 9.24504 25.9599C9.79559 24.4704 10.8955 22.9963 11.5263 21.875C12.18 20.7956 12.683 19.6332 13.2421 18.4912C13.7628 17.3275 14.0859 15.8837 15.0644 14.9931C15.993 14.0645 17.2116 13.4841 18.4267 13.0039C19.6252 12.5085 20.7741 11.9719 21.9208 11.4101C23.2943 10.7682 24.5872 9.73669 26.0253 9.22263Z" fill="white"/>
</svg>
