<svg width="100%" height="100%" viewBox="0 0 40 40" fill="none" xmlns="http://www.w3.org/2000/svg">
<g clip-path="url(#clip0_2824_3561)">
<path d="M20 40C31.0457 40 40 31.0457 40 20C40 8.9543 31.0457 0 20 0C8.9543 0 0 8.9543 0 20C0 31.0457 8.9543 40 20 40Z" fill="#DFFE00"/>
<path d="M20.6643 23.6256L24.7164 10.0095H31.25V33.7983H26.8624V21.9441L28.6156 15.1817L27.367 14.6514L21.669 33.7977H18.331L12.633 14.6514L11.3844 15.1817L13.1376 21.9441V33.7983H8.75V10.0095H15.2836L19.3357 23.6256V27.6205H20.6643V23.6256Z" fill="#181E29"/>
</g>
<defs>
<clipPath id="clip0_2824_3561">
<rect width="40" height="40" fill="white"/>
</clipPath>
</defs>
</svg>
