<svg width="100%" height="100%" viewBox="0 0 40 40" fill="none" xmlns="http://www.w3.org/2000/svg">
<rect width="40" height="40" rx="20" fill="#FE0420"/>
<path d="M14.2664 25.5254C13.1007 25.5254 12.1457 25.2368 11.4012 24.66C10.6665 24.0729 10.2992 23.2385 10.2992 22.1569C10.2992 21.9302 10.3237 21.652 10.3726 21.3224C10.5 20.5807 10.6813 19.6896 10.9163 18.6492C11.5824 15.8163 13.3016 14.3999 16.0738 14.3999C16.828 14.3999 17.5039 14.5338 18.1015 14.8016C18.6991 15.0591 19.1692 15.4506 19.5121 15.976C19.8549 16.491 20.0264 17.1092 20.0264 17.8302C20.0264 18.0466 20.0019 18.3195 19.9528 18.6492C19.8059 19.566 19.6296 20.4571 19.4239 21.3224C19.081 22.7337 18.4884 23.7896 17.646 24.49C16.8035 25.1802 15.6771 25.5254 14.2664 25.5254ZM14.4721 23.3003C15.0208 23.3003 15.486 23.1303 15.8681 22.7903C16.2599 22.4504 16.5391 21.9302 16.7056 21.2297C16.9309 20.2614 17.1024 19.4166 17.2199 18.6955C17.2591 18.4792 17.2786 18.2578 17.2786 18.0311C17.2786 17.0937 16.8133 16.6249 15.8828 16.6249C15.3342 16.6249 14.864 16.7949 14.4721 17.1348C14.0902 17.4749 13.8159 17.9951 13.6494 18.6955C13.473 19.3857 13.2967 20.2305 13.1204 21.2297C13.0812 21.4357 13.0616 21.652 13.0616 21.8787C13.0616 22.8265 13.5318 23.3003 14.4721 23.3003Z" fill="white"/>
<path d="M20.8667 25.5254C20.7619 25.5254 20.6808 25.4883 20.6237 25.4141C20.576 25.3293 20.5618 25.2339 20.5808 25.128L22.5532 14.7972C22.5722 14.6807 22.6246 14.5853 22.7104 14.5111C22.7961 14.437 22.8866 14.3999 22.9819 14.3999H26.7838C27.8415 14.3999 28.6895 14.6436 29.3278 15.131C29.9759 15.6184 30.2998 16.323 30.2998 17.2448C30.2998 17.5097 30.2712 17.7852 30.2141 18.0713C29.9759 19.2898 29.4946 20.1904 28.7705 20.7732C28.0559 21.3559 27.0744 21.6473 25.8262 21.6473H23.8967L23.2392 25.128C23.2201 25.2446 23.1677 25.3398 23.082 25.4141C22.9963 25.4883 22.9057 25.5254 22.8105 25.5254H20.8667ZM25.9262 19.454C26.3264 19.454 26.6742 19.3322 26.9696 19.0885C27.2745 18.8448 27.4746 18.4951 27.5699 18.0395C27.5985 17.8593 27.6128 17.7004 27.6128 17.5627C27.6128 17.2554 27.5318 17.0223 27.3699 16.8634C27.2078 16.6938 26.9315 16.6091 26.5409 16.6091H24.8257L24.2826 19.454H25.9262Z" fill="white"/>
</svg>
