<svg width="100%" height="100%" viewBox="0 0 40 40" fill="none" xmlns="http://www.w3.org/2000/svg">
<g clip-path="url(#clip0_2824_3572)">
<rect width="40" height="40" fill="white"/>
<path d="M31.1436 24.4675V9.72624C31.1231 8.49278 30.1179 7.5 28.8564 7.5H13.1231C9.72821 7.55014 7 10.2677 7 13.5971C7 14.7202 7.30769 15.6829 7.77949 16.5253C8.17949 17.2272 8.80513 17.8891 9.42051 18.3805C9.59487 18.5209 9.51282 18.4607 10.0462 18.7816C10.7846 19.2228 11.6256 19.4434 11.6256 19.4434L11.6154 28.2581C11.6359 28.6793 11.6769 29.0804 11.7897 29.4515C12.1385 30.695 13.0205 31.6476 14.2205 32.1089C14.7231 32.2995 15.2872 32.4298 15.8923 32.4398L28.4564 32.4799C30.959 32.4799 32.9897 30.4944 32.9897 28.0375C33 26.5834 32.2615 25.2798 31.1436 24.4675Z" fill="#FFEEDA"/>
<path d="M31.4513 28.1478C31.4 29.7222 30.0769 30.9858 28.4564 30.9858L19.8102 30.9557C20.4974 30.1735 20.9179 29.1607 20.9179 28.0576C20.9179 26.3227 19.8615 25.1294 19.8615 25.1294H28.4667C30.1179 25.1294 31.4615 26.443 31.4615 28.0576L31.4513 28.1478Z" fill="#EBC28E"/>
<path d="M10.241 17.137C9.24616 16.2144 8.54872 15.0211 8.54872 13.6071V13.4567C8.63077 11.0399 10.6615 9.09446 13.1333 9.02427H28.8667C29.2769 9.04432 29.6051 9.32511 29.6051 9.73626V22.7527C29.9641 22.8129 30.1385 22.863 30.4872 22.9834C30.7641 23.0836 31.1436 23.2942 31.1436 23.2942V9.73626C31.1231 8.5028 30.118 7.51003 28.8564 7.51003H13.1231C9.72821 7.56017 7 10.2778 7 13.6071C7 15.5425 7.90257 17.1972 9.37949 18.3604C9.48205 18.4406 9.57436 18.5409 9.84103 18.5409C10.3026 18.5409 10.6308 18.1799 10.6103 17.7888C10.6 17.4579 10.4564 17.3375 10.241 17.137Z" fill="#190602"/>
<path d="M28.4564 23.6051H16.118C15.2872 23.6151 14.6205 24.2669 14.6205 25.0792V26.8141C14.641 27.6163 15.3385 28.2982 16.1692 28.2982H17.082V26.8141H16.1692V25.1193C16.1692 25.1193 16.3949 25.1193 16.6718 25.1193C18.2308 25.1193 19.3795 26.5333 19.3795 28.0475C19.3795 29.3913 18.1282 31.1061 16.0359 30.9657C14.1795 30.8454 13.1744 29.2308 13.1744 28.0475V13.3464C13.1744 12.6845 12.6205 12.143 11.9436 12.143H10.7128V13.6472H11.6256V28.0576C11.5744 30.9858 13.759 32.4599 16.0359 32.4599L28.4667 32.5C30.9692 32.5 33 30.5144 33 28.0576C33 25.6007 30.959 23.6051 28.4564 23.6051ZM31.4513 28.1478C31.4 29.7222 30.0769 30.9858 28.4564 30.9858L19.8102 30.9557C20.4974 30.1735 20.9179 29.1607 20.9179 28.0576C20.9179 26.3227 19.8615 25.1294 19.8615 25.1294H28.4667C30.1179 25.1294 31.4615 26.443 31.4615 28.0576L31.4513 28.1478Z" fill="#190602"/>
<path d="M25.1334 13.918H15.8308V12.4138H25.1334C25.5539 12.4138 25.9026 12.7447 25.9026 13.1659C25.9026 13.577 25.5641 13.918 25.1334 13.918Z" fill="#190602"/>
<path d="M25.1334 20.9978H15.8308V19.4936H25.1334C25.5539 19.4936 25.9026 19.8245 25.9026 20.2457C25.9026 20.6568 25.5641 20.9978 25.1334 20.9978Z" fill="#190602"/>
<path d="M26.7744 17.4579H15.8308V15.9537H26.7641C27.1846 15.9537 27.5334 16.2846 27.5334 16.7058C27.5436 17.1169 27.1949 17.4579 26.7744 17.4579Z" fill="#190602"/>
</g>
<defs>
<clipPath id="clip0_2824_3572">
<rect width="40" height="40" rx="20" fill="white"/>
</clipPath>
</defs>
</svg>
