<svg xmlns="http://www.w3.org/2000/svg" width="85" height="119" viewBox="0 0 85 119" fill="none">
  <g opacity="0.2">
    <path d="M5.97699 0.5625C2.88755 0.5625 0.383057 3.21381 0.383057 6.48438V24.25C0.383057 27.5206 2.88755 30.1719 5.97699 30.1719H22.7588C25.8483 30.1719 28.3527 27.5206 28.3527 24.25V6.48438C28.3527 3.21381 25.8483 0.5625 22.7588 0.5625H5.97699Z" fill="black" fill-opacity="0.1"/>
    <path d="M5.97681 1.0625H22.759C25.5458 1.06263 27.8528 3.46282 27.8528 6.48438V24.25C27.8528 27.2716 25.5458 29.6717 22.759 29.6719H5.97681C3.19004 29.6718 0.883057 27.2716 0.883057 24.25V6.48438C0.883057 3.4628 3.19004 1.06261 5.97681 1.0625Z" stroke="black" stroke-opacity="0.1"/>
    <path d="M78.6982 59.7812C81.7874 59.7812 84.2921 62.4325 84.2921 65.7031V113.078C84.2921 116.348 81.7874 119 78.6982 119H61.9163C58.8269 119 56.3224 116.348 56.3224 113.078V65.7031C56.3224 62.4325 53.8179 59.7812 50.7285 59.7812H33.9467C30.8572 59.7812 28.3527 62.4325 28.3527 65.7031V113.078C28.3527 116.144 26.1515 118.666 23.3308 118.97C23.1427 118.99 22.9519 119 22.7588 119H5.97699C2.88755 119 0.383057 116.348 0.383057 113.078V65.7031C0.383057 62.4325 2.88755 59.7812 5.97699 59.7812H22.7588C25.8483 59.7812 28.3527 57.13 28.3527 53.8594V36.0938C28.3527 36.0809 28.3528 36.0682 28.3529 36.0555C28.3723 32.8025 30.8693 30.1719 33.9467 30.1719H50.7285C53.8179 30.1719 56.3224 27.5206 56.3224 24.25V6.48438C56.3224 3.21381 58.8269 0.5625 61.9163 0.5625H78.6982C81.7874 0.5625 84.2921 3.21381 84.2921 6.48438V24.25C84.2921 27.5206 81.7874 30.1719 78.6982 30.1719H61.9163C58.8269 30.1719 56.3224 32.8232 56.3224 36.0938V53.8594C56.3224 57.13 58.8269 59.7812 61.9163 59.7812H78.6982Z" fill="black" fill-opacity="0.1"/>
    <path d="M61.9163 1.0625H78.6985C81.485 1.06269 83.7922 3.46287 83.7922 6.48438V24.25C83.7922 27.2715 81.485 29.6717 78.6985 29.6719H61.9163C58.5242 29.6719 55.8225 32.5743 55.8225 36.0938V53.8594C55.8225 57.3788 58.5242 60.2812 61.9163 60.2812H78.6985C81.485 60.2814 83.7922 62.6816 83.7922 65.7031V113.078C83.7922 116.099 81.485 118.5 78.6985 118.5H61.9163C59.1294 118.5 56.8225 116.1 56.8225 113.078V65.7031C56.8225 62.1837 54.1207 59.2814 50.7288 59.2812H33.9465C30.5545 59.2813 27.8528 62.1837 27.8528 65.7031V113.078C27.8528 115.82 25.9494 118.055 23.5149 118.441L23.2776 118.473C23.107 118.491 22.934 118.5 22.759 118.5H5.97681C3.19005 118.5 0.883057 116.1 0.883057 113.078V65.7031C0.883057 62.6815 3.19004 60.2814 5.97681 60.2812H22.759C26.151 60.2811 28.8528 57.3788 28.8528 53.8594V36.0586C28.8707 33.0535 31.1706 30.672 33.9465 30.6719H50.7288C54.1207 30.6717 56.8225 27.7694 56.8225 24.25V6.48438C56.8225 3.46277 59.1294 1.06255 61.9163 1.0625Z" stroke="black" stroke-opacity="0.1"/>
  </g>
</svg>