<svg xmlns="http://www.w3.org/2000/svg" width="99" height="121" viewBox="0 0 99 121" fill="none">
  <g opacity="0.2">
    <path d="M51.332 3.6084C53.6105 6.65257 56.8717 10.1135 63.5498 13.0742C67.4389 14.7839 71.4071 15.6602 75.4141 15.6602C77.9281 15.6601 80.4036 15.3264 82.7998 14.6592L84.5283 14.1592L85.3926 15.8271C87.9854 20.7061 91.2857 23.7091 95.1748 24.71L96.7852 25.127L98.1992 43.7676C99.6527 62.8672 91.7959 81.3419 76.5928 94.4365L76.4355 94.5615C76.3178 94.6865 76.1608 94.8121 76.043 94.8955C75.1002 95.7295 74.0778 96.5638 73.0957 97.4395C72.9389 97.5643 72.8208 97.6476 72.7031 97.7725L70.4639 99.7324C70.0319 100.108 69.5999 100.483 69.168 100.858L68.1855 101.734C67.0464 102.735 65.9065 103.737 64.8066 104.737L64.6104 104.945C59.3463 109.741 55.2209 113.745 52.0781 117.206C51.764 117.54 51.4497 117.874 51.1748 118.207L49.5254 120L47.875 118.124C43.3966 113.078 36.7967 106.822 27.8008 98.9824L22.9678 94.8535C7.4503 81.7172 -0.602956 63.0755 0.850587 43.7256L2.26465 25.085L3.87598 24.668C7.8042 23.6669 11.1046 20.7058 13.6973 15.7852L14.5615 14.1172L16.29 14.6172C18.6861 15.2843 21.1611 15.6181 23.6357 15.6182C27.6426 15.6181 31.6503 14.7429 35.5 13.0332C42.1781 10.0724 45.4393 6.56891 47.7178 3.56641L49.5254 1.23047L51.332 3.6084ZM49.6426 8.7373C46.3034 12.4904 42.4533 15.2432 37.3857 17.4951C32.9467 19.455 28.3501 20.456 23.7539 20.4561C21.4362 20.4561 19.1571 20.2054 16.918 19.7051C13.5396 25.2096 9.68938 27.7122 6.58594 28.8799L5.44727 44.1016C4.11167 61.7833 11.5363 78.8812 25.8359 91.0166L30.707 95.1875C31.0245 95.4626 31.3389 95.7364 31.6504 96.0078V71.916L42.6504 64.7842L27.8398 71.248V57.2783L33.6543 54.3174V63.6172L38.1328 61.4482V52.3984L41.8643 50.3975V59.8223L46.2246 57.6113V48.3535L49.2891 47.0273V31.2129C52.7066 29.7118 54.6719 30.7543 58.8359 32.2139C62.9895 33.6278 64.7978 31.349 64.8066 31.3379V38.8867C63.4706 41.1379 58.2468 40.0116 55.5361 38.3438C53.8046 37.2516 51.736 37.6245 50.4678 38.0352V111.912C50.4807 111.899 50.4939 111.885 50.5068 111.871V46.5186L54.7109 48.3535V57.6113L59.1104 59.8223V50.3975L62.8428 52.3984V61.4482L67.3213 63.6172V54.3584L73.0957 57.2783V71.248L57.3428 63.6172L69.2852 72.666V94.4062L69.835 93.9355C69.992 93.8105 70.1496 93.6436 70.3066 93.5186C71.2887 92.6846 72.2717 91.8086 73.293 90.9746C73.4104 90.8501 73.528 90.7667 73.6064 90.6836L73.7637 90.5166C87.749 78.4228 95.0173 61.4909 93.6816 44.0176L92.542 28.7969C89.4385 27.6292 85.628 25.0843 82.3281 19.6631C80.089 20.1635 77.7706 20.414 75.4922 20.4141C70.8568 20.414 66.2601 19.413 61.8604 17.4531C56.8321 15.2012 52.9424 12.4487 49.6426 8.7373ZM44.3779 86.8037C43.1996 86.8039 42.2569 87.8048 42.2568 89.0557V96.4785H46.5V89.0557C46.5 87.8047 45.5564 86.8038 44.3779 86.8037ZM56.2812 86.8037C55.1029 86.804 54.1602 87.8048 54.1602 89.0557V96.4785H58.4033V89.0557C58.4033 87.8047 57.4597 86.8038 56.2812 86.8037ZM37.0322 73.418C35.8537 73.418 34.9111 74.4188 34.9111 75.6699V83.0928H39.1533V75.6699C39.1533 74.419 38.2106 73.4182 37.0322 73.418ZM63.9033 73.418C62.7248 73.418 61.7812 74.4188 61.7812 75.6699V83.0928H66.0244V75.6699C66.0244 74.4191 65.0816 73.4183 63.9033 73.418Z" fill="black" fill-opacity="0.1"/>
    <path d="M51.332 3.6084L51.7323 3.30878L51.7302 3.30592L51.332 3.6084ZM63.5498 13.0742L63.3472 13.5313L63.3486 13.5319L63.5498 13.0742ZM75.4141 15.6602V16.1602H75.4141L75.4141 15.6602ZM82.7998 14.6592L82.9339 15.1409L82.9387 15.1395L82.7998 14.6592ZM84.5283 14.1592L84.9723 13.9291L84.7835 13.5649L84.3894 13.6789L84.5283 14.1592ZM85.3926 15.8271L84.9486 16.0572L84.951 16.0618L85.3926 15.8271ZM95.1748 24.71L95.3001 24.2259L95.2994 24.2257L95.1748 24.71ZM96.7852 25.127L97.2837 25.0891L97.2567 24.7326L96.9105 24.6429L96.7852 25.127ZM98.1992 43.7676L97.7007 43.8054L97.7007 43.8055L98.1992 43.7676ZM76.5928 94.4365L76.9039 94.8279L76.9116 94.8218L76.9191 94.8154L76.5928 94.4365ZM76.4355 94.5615L76.1244 94.1701L76.0963 94.1925L76.0716 94.2187L76.4355 94.5615ZM76.043 94.8955L75.7541 94.4874L75.732 94.5031L75.7117 94.521L76.043 94.8955ZM73.0957 97.4395L73.4071 97.8306L73.418 97.8219L73.4285 97.8126L73.0957 97.4395ZM72.7031 97.7725L73.0324 98.1487L73.0505 98.1329L73.067 98.1154L72.7031 97.7725ZM70.4639 99.7324L70.7917 100.11L70.7932 100.109L70.4639 99.7324ZM69.168 100.858L68.8401 100.481L68.8352 100.485L69.168 100.858ZM68.1855 101.734L68.5156 102.11L68.5183 102.108L68.1855 101.734ZM64.8066 104.737L64.4701 104.367L64.4561 104.38L64.443 104.394L64.8066 104.737ZM64.6104 104.945L64.9471 105.315L64.961 105.302L64.974 105.288L64.6104 104.945ZM52.0781 117.206L52.4421 117.549L52.4483 117.542L52.0781 117.206ZM51.1748 118.207L51.5428 118.546L51.552 118.536L51.5606 118.525L51.1748 118.207ZM49.5254 120L49.15 120.33L49.5171 120.748L49.8934 120.339L49.5254 120ZM47.875 118.124L48.2504 117.794L48.249 117.792L47.875 118.124ZM27.8008 98.9824L28.1293 98.6055L28.1256 98.6023L27.8008 98.9824ZM22.9678 94.8535L23.2926 94.4734L23.2908 94.4719L22.9678 94.8535ZM0.850587 43.7256L0.352019 43.6878L0.351992 43.6881L0.850587 43.7256ZM2.26465 25.085L2.13938 24.6009L1.79314 24.6905L1.76608 25.0471L2.26465 25.085ZM3.87598 24.668L3.75251 24.1835L3.75071 24.1839L3.87598 24.668ZM13.6973 15.7852L14.1396 16.0182L14.1412 16.0152L13.6973 15.7852ZM14.5615 14.1172L14.7005 13.6369L14.3063 13.5229L14.1176 13.8872L14.5615 14.1172ZM16.29 14.6172L16.1511 15.0975L16.1559 15.0989L16.29 14.6172ZM23.6357 15.6182L23.6357 16.1182H23.6358L23.6357 15.6182ZM35.5 13.0332L35.2973 12.5761L35.2971 12.5762L35.5 13.0332ZM47.7178 3.56641L47.3223 3.2604L47.3195 3.26415L47.7178 3.56641ZM49.5254 1.23047L49.9235 0.927989L49.529 0.40876L49.13 0.924472L49.5254 1.23047ZM49.6426 8.7373L50.0162 8.40507L49.6427 7.98495L49.269 8.40495L49.6426 8.7373ZM37.3857 17.4951L37.5877 17.9525L37.5888 17.952L37.3857 17.4951ZM23.7539 20.4561L23.7539 20.9561H23.7539L23.7539 20.4561ZM16.918 19.7051L17.027 19.2171L16.6786 19.1393L16.4918 19.4435L16.918 19.7051ZM6.58594 28.8799L6.40986 28.4119L6.11114 28.5243L6.08733 28.8426L6.58594 28.8799ZM5.44727 44.1016L5.94585 44.1392L5.94587 44.1389L5.44727 44.1016ZM25.8359 91.0166L26.1611 90.6368L26.1595 90.6354L25.8359 91.0166ZM30.707 95.1875L31.0345 94.8096L31.0322 94.8077L30.707 95.1875ZM31.6504 96.0078L31.3219 96.3848L32.1504 97.1068V96.0078H31.6504ZM31.6504 71.916L31.3784 71.4965L31.1504 71.6443V71.916H31.6504ZM42.6504 64.7842L42.9224 65.2037L42.4504 64.3259L42.6504 64.7842ZM27.8398 71.248H27.3398V72.0118L28.0398 71.7063L27.8398 71.248ZM27.8398 57.2783L27.613 56.8328L27.3398 56.9718V57.2783H27.8398ZM33.6543 54.3174H34.1543V53.5017L33.4274 53.8718L33.6543 54.3174ZM33.6543 63.6172H33.1543V64.4149L33.8722 64.0672L33.6543 63.6172ZM38.1328 61.4482L38.3507 61.8982L38.6328 61.7616V61.4482H38.1328ZM38.1328 52.3984L37.8965 51.9578L37.6328 52.0992V52.3984H38.1328ZM41.8643 50.3975H42.3643V49.562L41.628 49.9568L41.8643 50.3975ZM41.8643 59.8223H41.3643V60.6364L42.0904 60.2682L41.8643 59.8223ZM46.2246 57.6113L46.4507 58.0573L46.7246 57.9184V57.6113H46.2246ZM46.2246 48.3535L46.026 47.8946L45.7246 48.0251V48.3535H46.2246ZM49.2891 47.0273L49.4876 47.4862L49.7891 47.3558V47.0273H49.2891ZM49.2891 31.2129L49.088 30.7551L48.7891 30.8864V31.2129H49.2891ZM58.8359 32.2139L58.6705 32.6857L58.6748 32.6872L58.8359 32.2139ZM64.8066 31.3379H65.3066V29.8994L64.4144 31.0278L64.8066 31.3379ZM64.8066 38.8867L65.2366 39.1419L65.3066 39.0239V38.8867H64.8066ZM55.5361 38.3438L55.2694 38.7667L55.2741 38.7696L55.5361 38.3438ZM50.4678 38.0352L50.3137 37.5595L49.9678 37.6715V38.0352H50.4678ZM50.4678 111.912H49.9678V113.162L50.8298 112.257L50.4678 111.912ZM50.5068 111.871L50.8687 112.216L51.0068 112.071V111.871H50.5068ZM50.5068 46.5186L50.7068 46.0603L50.0068 45.7548V46.5186H50.5068ZM54.7109 48.3535H55.2109V48.0262L54.9109 47.8953L54.7109 48.3535ZM54.7109 57.6113H54.2109V57.9196L54.4864 58.0581L54.7109 57.6113ZM59.1104 59.8223L58.8858 60.269L59.6104 60.6331V59.8223H59.1104ZM59.1104 50.3975L59.3466 49.9568L58.6104 49.5621V50.3975H59.1104ZM62.8428 52.3984H63.3428V52.0992L63.079 51.9578L62.8428 52.3984ZM62.8428 61.4482H62.3428V61.7616L62.6248 61.8982L62.8428 61.4482ZM67.3213 63.6172L67.1034 64.0672L67.8213 64.4149V63.6172H67.3213ZM67.3213 54.3584L67.5469 53.9122L66.8213 53.5453V54.3584H67.3213ZM73.0957 57.2783H73.5957V56.9709L73.3213 56.8321L73.0957 57.2783ZM73.0957 71.248L72.8777 71.698L73.5957 72.0458V71.248H73.0957ZM57.3428 63.6172L57.5608 63.1672L57.0408 64.0157L57.3428 63.6172ZM69.2852 72.666H69.7852V72.4175L69.5871 72.2675L69.2852 72.666ZM69.2852 94.4062H68.7852V95.4925L69.6103 94.7861L69.2852 94.4062ZM69.835 93.9355L69.5235 93.5444L69.5165 93.55L69.5098 93.5557L69.835 93.9355ZM70.3066 93.5186L70.6181 93.9097L70.6243 93.9048L70.6303 93.8997L70.3066 93.5186ZM73.293 90.9746L73.6092 91.3619L73.6344 91.3413L73.6567 91.3177L73.293 90.9746ZM73.6064 90.6836L73.9701 91.0267L73.9705 91.0263L73.6064 90.6836ZM73.7637 90.5166L73.4366 90.1384L73.4172 90.1552L73.3996 90.1739L73.7637 90.5166ZM93.6816 44.0176L93.183 44.0549L93.1831 44.0557L93.6816 44.0176ZM92.542 28.7969L93.0406 28.7595L93.0168 28.4413L92.7181 28.3289L92.542 28.7969ZM82.3281 19.6631L82.7552 19.4031L82.5689 19.097L82.2191 19.1751L82.3281 19.6631ZM75.4922 20.4141V20.9141H75.4922L75.4922 20.4141ZM61.8604 17.4531L61.656 17.9095L61.6569 17.9099L61.8604 17.4531ZM44.3779 86.8037L44.378 86.3037H44.3778L44.3779 86.8037ZM42.2568 89.0557L41.7568 89.0556V89.0557H42.2568ZM42.2568 96.4785H41.7568V96.9785H42.2568V96.4785ZM46.5 96.4785V96.9785H47V96.4785H46.5ZM46.5 89.0557H47V89.0556L46.5 89.0557ZM56.2812 86.8037L56.2813 86.3037H56.2811L56.2812 86.8037ZM54.1602 89.0557L53.6602 89.0556V89.0557H54.1602ZM54.1602 96.4785H53.6602V96.9785H54.1602V96.4785ZM58.4033 96.4785V96.9785H58.9033V96.4785H58.4033ZM58.4033 89.0557H58.9033V89.0556L58.4033 89.0557ZM37.0322 73.418L37.0323 72.918H37.0322V73.418ZM34.9111 83.0928H34.4111V83.5928H34.9111V83.0928ZM39.1533 83.0928V83.5928H39.6533V83.0928H39.1533ZM63.9033 73.418L63.9035 72.918H63.9033V73.418ZM61.7812 83.0928H61.2812V83.5928H61.7812V83.0928ZM66.0244 83.0928V83.5928H66.5244V83.0928H66.0244ZM51.332 3.6084L50.9317 3.90801C53.2516 7.00749 56.5769 10.5297 63.3472 13.5313L63.5498 13.0742L63.7525 12.6171C57.1665 9.69724 53.9694 6.29766 51.7323 3.30879L51.332 3.6084ZM63.5498 13.0742L63.3486 13.5319C67.2959 15.2672 71.3324 16.1602 75.4141 16.1602V15.6602V15.1602C71.4819 15.1602 67.5819 14.3006 63.751 12.6165L63.5498 13.0742ZM75.4141 15.6602L75.4141 16.1602C77.9726 16.1601 80.4932 15.8204 82.9339 15.1409L82.7998 14.6592L82.6657 14.1775C80.314 14.8323 77.8836 15.1601 75.4141 15.1602L75.4141 15.6602ZM82.7998 14.6592L82.9387 15.1395L84.6673 14.6395L84.5283 14.1592L84.3894 13.6789L82.6609 14.1789L82.7998 14.6592ZM84.5283 14.1592L84.0844 14.3892L84.9486 16.0572L85.3926 15.8271L85.8365 15.5971L84.9723 13.9291L84.5283 14.1592ZM85.3926 15.8271L84.951 16.0618C87.5838 21.0158 90.9794 24.1466 95.0502 25.1942L95.1748 24.71L95.2994 24.2257C91.592 23.2717 88.387 20.3963 85.8341 15.5925L85.3926 15.8271ZM95.1748 24.71L95.0495 25.194L96.6598 25.611L96.7852 25.127L96.9105 24.6429L95.3001 24.2259L95.1748 24.71ZM96.7852 25.127L96.2866 25.1648L97.7007 43.8054L98.1992 43.7676L98.6978 43.7298L97.2837 25.0891L96.7852 25.127ZM98.1992 43.7676L97.7007 43.8055C99.1415 62.7387 91.3554 81.0614 76.2665 94.0577L76.5928 94.4365L76.9191 94.8154C92.2363 81.6225 100.164 62.9957 98.6978 43.7296L98.1992 43.7676ZM76.5928 94.4365L76.2816 94.0451L76.1244 94.1701L76.4355 94.5615L76.7467 94.9529L76.9039 94.8279L76.5928 94.4365ZM76.4355 94.5615L76.0716 94.2187C75.9847 94.311 75.8563 94.4151 75.7541 94.4874L76.043 94.8955L76.3319 95.3036C76.4653 95.2091 76.651 95.062 76.7995 94.9044L76.4355 94.5615ZM76.043 94.8955L75.7117 94.521C75.2447 94.9342 74.7574 95.3478 74.26 95.7711C73.7641 96.1931 73.2588 96.6241 72.7629 97.0663L73.0957 97.4395L73.4285 97.8126C73.9146 97.3792 74.4116 96.9551 74.9081 96.5326C75.4032 96.1113 75.8985 95.6908 76.3743 95.27L76.043 94.8955ZM73.0957 97.4395L72.7843 97.0483C72.6531 97.1527 72.4892 97.2705 72.3393 97.4295L72.7031 97.7725L73.067 98.1154C73.1524 98.0247 73.2247 97.9758 73.4071 97.8306L73.0957 97.4395ZM72.7031 97.7725L72.3738 97.3962L70.1346 99.3562L70.4639 99.7324L70.7932 100.109L73.0324 98.1487L72.7031 97.7725ZM70.4639 99.7324L70.136 99.3549C69.92 99.5426 69.7039 99.7303 69.4879 99.918C69.2719 100.106 69.056 100.293 68.8401 100.481L69.168 100.858L69.4958 101.236C69.7119 101.048 69.9279 100.861 70.1439 100.673C70.3599 100.485 70.5758 100.297 70.7917 100.11L70.4639 99.7324ZM69.168 100.858L68.8352 100.485L67.8528 101.361L68.1855 101.734L68.5183 102.108L69.5007 101.232L69.168 100.858ZM68.1855 101.734L67.8555 101.359C66.717 102.359 65.5738 103.363 64.4701 104.367L64.8066 104.737L65.1431 105.107C66.2393 104.11 67.3758 103.111 68.5155 102.11L68.1855 101.734ZM64.8066 104.737L64.443 104.394L64.2467 104.602L64.6104 104.945L64.974 105.288L65.1703 105.08L64.8066 104.737ZM64.6104 104.945L64.2736 104.576C59.005 109.376 54.8663 113.392 51.708 116.87L52.0781 117.206L52.4483 117.542C55.5755 114.098 59.6875 110.107 64.9471 105.315L64.6104 104.945ZM52.0781 117.206L51.7142 116.863C51.4022 117.194 51.0763 117.541 50.789 117.889L51.1748 118.207L51.5606 118.525C51.8232 118.207 52.1257 117.885 52.4421 117.549L52.0781 117.206ZM51.1748 118.207L50.8068 117.869L49.1574 119.661L49.5254 120L49.8934 120.339L51.5428 118.546L51.1748 118.207ZM49.5254 120L49.9008 119.67L48.2504 117.794L47.875 118.124L47.4996 118.454L49.15 120.33L49.5254 120ZM47.875 118.124L48.249 117.792C43.7489 112.722 37.1297 106.449 28.1293 98.6055L27.8008 98.9824L27.4723 99.3594C36.4638 107.195 43.0443 113.434 47.501 118.456L47.875 118.124ZM27.8008 98.9824L28.1256 98.6023L23.2925 94.4734L22.9678 94.8535L22.643 95.2337L27.476 99.3626L27.8008 98.9824ZM22.9678 94.8535L23.2908 94.4719C7.889 81.4334 -0.0917241 62.9448 1.34918 43.763L0.850587 43.7256L0.351992 43.6881C-1.11419 63.2063 7.01161 82.0009 22.6447 95.2351L22.9678 94.8535ZM0.850587 43.7256L1.34915 43.7634L2.76322 25.1228L2.26465 25.085L1.76608 25.0471L0.352019 43.6878L0.850587 43.7256ZM2.26465 25.085L2.38992 25.569L4.00124 25.152L3.87598 24.668L3.75071 24.1839L2.13938 24.6009L2.26465 25.085ZM3.87598 24.668L3.99945 25.1525C8.10825 24.1054 11.5053 21.0179 14.1396 16.0182L13.6973 15.7852L13.2549 15.5521C10.7039 20.3937 7.50015 23.2284 3.75251 24.1835L3.87598 24.668ZM13.6973 15.7852L14.1412 16.0152L15.0055 14.3472L14.5615 14.1172L14.1176 13.8872L13.2533 15.5551L13.6973 15.7852ZM14.5615 14.1172L14.4226 14.5975L16.1511 15.0975L16.29 14.6172L16.429 14.1369L14.7005 13.6369L14.5615 14.1172ZM16.29 14.6172L16.1559 15.0989C18.5961 15.7782 21.1162 16.1181 23.6357 16.1182L23.6357 15.6182L23.6357 15.1182C21.206 15.1181 18.7761 14.7903 16.4241 14.1355L16.29 14.6172ZM23.6357 15.6182L23.6358 16.1182C27.7163 16.1181 31.7929 15.2266 35.7029 13.4902L35.5 13.0332L35.2971 12.5762C31.5077 14.2591 27.5688 15.1181 23.6357 15.1182L23.6357 15.6182ZM35.5 13.0332L35.7027 13.4903C42.4747 10.4879 45.7988 6.92232 48.1161 3.86866L47.7178 3.56641L47.3195 3.26415C45.0798 6.21551 41.8816 9.65693 35.2973 12.5761L35.5 13.0332ZM47.7178 3.56641L48.1132 3.8724L49.9208 1.53647L49.5254 1.23047L49.13 0.924472L47.3223 3.26041L47.7178 3.56641ZM49.5254 1.23047L49.1273 1.53295L50.9339 3.91088L51.332 3.6084L51.7302 3.30592L49.9235 0.927989L49.5254 1.23047ZM49.6426 8.7373L49.269 8.40495C45.9818 12.0997 42.1919 14.8122 37.1827 17.0382L37.3857 17.4951L37.5888 17.952C42.7147 15.6742 46.625 12.8811 50.0161 9.06966L49.6426 8.7373ZM37.3857 17.4951L37.1838 17.0377C32.8045 18.9712 28.2764 19.956 23.7539 19.9561L23.7539 20.4561L23.7539 20.9561C28.4237 20.956 33.0889 19.9388 37.5877 17.9525L37.3857 17.4951ZM23.7539 20.4561V19.9561C21.4726 19.9561 19.23 19.7094 17.027 19.2171L16.918 19.7051L16.8089 20.193C19.0841 20.7015 21.3999 20.9561 23.7539 20.9561L23.7539 20.4561ZM16.918 19.7051L16.4918 19.4435C13.172 24.8526 9.41017 27.283 6.40986 28.4119L6.58594 28.8799L6.76202 29.3479C9.9686 28.1413 13.9072 25.5665 17.3441 19.9666L16.918 19.7051ZM6.58594 28.8799L6.08733 28.8426L4.94866 44.0643L5.44727 44.1016L5.94587 44.1389L7.08455 28.9172L6.58594 28.8799ZM5.44727 44.1016L4.94869 44.0639C3.60026 61.9156 11.0989 79.1657 25.5124 91.3978L25.8359 91.0166L26.1595 90.6354C11.9738 78.5966 4.62309 61.6511 5.94585 44.1392L5.44727 44.1016ZM25.8359 91.0166L25.5107 91.3964L30.3818 95.5673L30.707 95.1875L31.0322 94.8077L26.1611 90.6368L25.8359 91.0166ZM30.707 95.1875L30.3796 95.5653C30.6965 95.84 31.0105 96.1134 31.3219 96.3848L31.6504 96.0078L31.9789 95.6309C31.6673 95.3594 31.3525 95.0852 31.0345 94.8097L30.707 95.1875ZM31.6504 96.0078H32.1504V71.916H31.6504H31.1504V96.0078H31.6504ZM31.6504 71.916L31.9224 72.3356L42.9224 65.2037L42.6504 64.7842L42.3784 64.3646L31.3784 71.4965L31.6504 71.916ZM42.6504 64.7842L42.4504 64.3259L27.6398 70.7898L27.8398 71.248L28.0398 71.7063L42.8504 65.2424L42.6504 64.7842ZM27.8398 71.248H28.3398V57.2783H27.8398H27.3398V71.248H27.8398ZM27.8398 57.2783L28.0667 57.7239L33.8812 54.7629L33.6543 54.3174L33.4274 53.8718L27.613 56.8328L27.8398 57.2783ZM33.6543 54.3174H33.1543V63.6172H33.6543H34.1543V54.3174H33.6543ZM33.6543 63.6172L33.8722 64.0672L38.3507 61.8982L38.1328 61.4482L37.9149 60.9982L33.4364 63.1672L33.6543 63.6172ZM38.1328 61.4482H38.6328V52.3984H38.1328H37.6328V61.4482H38.1328ZM38.1328 52.3984L38.3691 52.8391L42.1006 50.8381L41.8643 50.3975L41.628 49.9568L37.8965 51.9578L38.1328 52.3984ZM41.8643 50.3975H41.3643V59.8223H41.8643H42.3643V50.3975H41.8643ZM41.8643 59.8223L42.0904 60.2682L46.4507 58.0573L46.2246 57.6113L45.9985 57.1654L41.6381 59.3763L41.8643 59.8223ZM46.2246 57.6113H46.7246V48.3535H46.2246H45.7246V57.6113H46.2246ZM46.2246 48.3535L46.4232 48.8124L49.4876 47.4862L49.2891 47.0273L49.0905 46.5685L46.026 47.8946L46.2246 48.3535ZM49.2891 47.0273H49.7891V31.2129H49.2891H48.7891V47.0273H49.2891ZM49.2891 31.2129L49.4901 31.6707C51.1111 30.9587 52.3566 30.8578 53.6952 31.0955C55.0815 31.3415 56.5496 31.9423 58.6706 32.6857L58.8359 32.2139L59.0013 31.742C56.9582 31.0259 55.3617 30.3756 53.87 30.1109C52.3305 29.8376 50.8846 29.966 49.088 30.7551L49.2891 31.2129ZM58.8359 32.2139L58.6748 32.6872C60.8594 33.4309 62.4741 33.2155 63.5635 32.7736C64.6413 32.3365 65.1606 31.6964 65.1988 31.648L64.8066 31.3379L64.4144 31.0278C64.4439 30.9906 64.0546 31.4954 63.1877 31.8469C62.3323 32.1938 60.966 32.4108 58.9971 31.7405L58.8359 32.2139ZM64.8066 31.3379H64.3066V38.8867H64.8066H65.3066V31.3379H64.8066ZM64.8066 38.8867L64.3767 38.6315C64.1312 39.0451 63.6895 39.3379 63.0513 39.5019C62.4106 39.6664 61.6138 39.6883 60.7441 39.5881C59.0024 39.3876 57.0891 38.7122 55.7982 37.9179L55.5361 38.3438L55.2741 38.7696C56.6938 39.6431 58.7477 40.3648 60.6296 40.5816C61.5717 40.6901 62.5008 40.6757 63.3 40.4704C64.1017 40.2645 64.814 39.854 65.2366 39.1419L64.8066 38.8867ZM55.5361 38.3438L55.8029 37.9209C53.8747 36.7046 51.6163 37.1377 50.3137 37.5595L50.4678 38.0352L50.6218 38.5108C51.8556 38.1113 53.7345 37.7985 55.2694 38.7666L55.5361 38.3438ZM50.4678 38.0352H49.9678V111.912H50.4678H50.9678V38.0352H50.4678ZM50.4678 111.912L50.8298 112.257C50.8432 112.243 50.8557 112.23 50.8687 112.216L50.5068 111.871L50.145 111.526C50.132 111.54 50.1182 111.554 50.1058 111.567L50.4678 111.912ZM50.5068 111.871H51.0068V46.5186H50.5068H50.0068V111.871H50.5068ZM50.5068 46.5186L50.3068 46.9768L54.5109 48.8118L54.7109 48.3535L54.9109 47.8953L50.7068 46.0603L50.5068 46.5186ZM54.7109 48.3535H54.2109V57.6113H54.7109H55.2109V48.3535H54.7109ZM54.7109 57.6113L54.4864 58.0581L58.8858 60.269L59.1104 59.8223L59.3349 59.3755L54.9355 57.1646L54.7109 57.6113ZM59.1104 59.8223H59.6104V50.3975H59.1104H58.6104V59.8223H59.1104ZM59.1104 50.3975L58.8741 50.8381L62.6065 52.8391L62.8428 52.3984L63.079 51.9578L59.3466 49.9568L59.1104 50.3975ZM62.8428 52.3984H62.3428V61.4482H62.8428H63.3428V52.3984H62.8428ZM62.8428 61.4482L62.6248 61.8982L67.1034 64.0672L67.3213 63.6172L67.5392 63.1672L63.0607 60.9982L62.8428 61.4482ZM67.3213 63.6172H67.8213V54.3584H67.3213H66.8213V63.6172H67.3213ZM67.3213 54.3584L67.0957 54.8046L72.8701 57.7245L73.0957 57.2783L73.3213 56.8321L67.5469 53.9122L67.3213 54.3584ZM73.0957 57.2783H72.5957V71.248H73.0957H73.5957V57.2783H73.0957ZM73.0957 71.248L73.3137 70.7981L57.5608 63.1672L57.3428 63.6172L57.1248 64.0672L72.8777 71.698L73.0957 71.248ZM57.3428 63.6172L57.0408 64.0157L68.9832 73.0645L69.2852 72.666L69.5871 72.2675L57.6447 63.2187L57.3428 63.6172ZM69.2852 72.666H68.7852V94.4062H69.2852H69.7852V72.666H69.2852ZM69.2852 94.4062L69.6103 94.7861L70.1601 94.3154L69.835 93.9355L69.5098 93.5557L68.96 94.0264L69.2852 94.4062ZM69.835 93.9355L70.1465 94.3267C70.2424 94.2502 70.3352 94.1637 70.4109 94.0936C70.4925 94.0178 70.557 93.9583 70.6181 93.9097L70.3066 93.5186L69.9952 93.1274C69.8992 93.2038 69.8064 93.2903 69.7307 93.3605C69.649 93.4363 69.5845 93.4958 69.5235 93.5444L69.835 93.9355ZM70.3066 93.5186L70.6303 93.8997C71.6258 93.0542 72.5915 92.1929 73.6092 91.3619L73.293 90.9746L72.9767 90.5873C71.9518 91.4242 70.9515 92.3149 69.983 93.1374L70.3066 93.5186ZM73.293 90.9746L73.6567 91.3177C73.6973 91.2747 73.7401 91.2364 73.7922 91.1911C73.8363 91.1527 73.9094 91.091 73.9701 91.0267L73.6064 90.6836L73.2428 90.3405C73.225 90.3593 73.2001 90.3808 73.1365 90.4361C73.0809 90.4844 73.0061 90.55 72.9292 90.6315L73.293 90.9746ZM73.6064 90.6836L73.9705 91.0263L74.1277 90.8594L73.7637 90.5166L73.3996 90.1739L73.2424 90.3408L73.6064 90.6836ZM73.7637 90.5166L74.0907 90.8948C88.1879 78.7043 95.5287 61.6213 94.1802 43.9795L93.6816 44.0176L93.1831 44.0557C94.5059 61.3605 87.3101 78.1414 73.4366 90.1384L73.7637 90.5166ZM93.6816 44.0176L94.1802 43.9802L93.0406 28.7595L92.542 28.7969L92.0434 28.8342L93.183 44.0549L93.6816 44.0176ZM92.542 28.7969L92.7181 28.3289C89.7208 27.2012 85.9979 24.7303 82.7552 19.4031L82.3281 19.6631L81.901 19.9231C85.2581 25.4382 89.1563 28.0572 92.3659 29.2648L92.542 28.7969ZM82.3281 19.6631L82.2191 19.1751C80.0164 19.6674 77.7346 19.914 75.4922 19.9141L75.4922 20.4141L75.4922 20.9141C77.8066 20.914 80.1616 20.6596 82.4372 20.151L82.3281 19.6631ZM75.4922 20.4141L75.4922 19.9141C70.9299 19.914 66.4023 18.929 62.0638 16.9964L61.8604 17.4531L61.6569 17.9099C66.1178 19.897 70.7836 20.914 75.4922 20.9141V20.4141ZM61.8604 17.4531L62.0647 16.9968C57.0921 14.7699 53.263 12.0568 50.0162 8.40507L49.6426 8.7373L49.2689 9.06954C52.6218 12.8406 56.572 15.6326 61.656 17.9095L61.8604 17.4531ZM44.3779 86.8037L44.3778 86.3037C42.8957 86.304 41.7569 87.5572 41.7568 89.0556L42.2568 89.0557L42.7568 89.0557C42.7569 88.0523 43.5035 87.3039 44.378 87.3037L44.3779 86.8037ZM42.2568 89.0557H41.7568V96.4785H42.2568H42.7568V89.0557H42.2568ZM42.2568 96.4785V96.9785H46.5V96.4785V95.9785H42.2568V96.4785ZM46.5 96.4785H47V89.0557H46.5H46V96.4785H46.5ZM46.5 89.0557L47 89.0556C47 87.5569 45.86 86.3039 44.378 86.3037L44.3779 86.8037L44.3779 87.3037C45.2527 87.3038 46 88.0525 46 89.0557L46.5 89.0557ZM56.2812 86.8037L56.2811 86.3037C54.799 86.304 53.6602 87.5572 53.6602 89.0556L54.1602 89.0557L54.6602 89.0557C54.6602 88.0524 55.4068 87.3039 56.2814 87.3037L56.2812 86.8037ZM54.1602 89.0557H53.6602V96.4785H54.1602H54.6602V89.0557H54.1602ZM54.1602 96.4785V96.9785H58.4033V96.4785V95.9785H54.1602V96.4785ZM58.4033 96.4785H58.9033V89.0557H58.4033H57.9033V96.4785H58.4033ZM58.4033 89.0557L58.9033 89.0556C58.9033 87.5569 57.7633 86.3039 56.2813 86.3037L56.2812 86.8037L56.2812 87.3037C57.156 87.3038 57.9033 88.0525 57.9033 89.0557L58.4033 89.0557ZM37.0322 73.418V72.918C35.5497 72.918 34.4111 74.1713 34.4111 75.6699H34.9111H35.4111C35.4111 74.6663 36.1576 73.918 37.0322 73.918V73.418ZM34.9111 75.6699H34.4111V83.0928H34.9111H35.4111V75.6699H34.9111ZM34.9111 83.0928V83.5928H39.1533V83.0928V82.5928H34.9111V83.0928ZM39.1533 83.0928H39.6533V75.6699H39.1533H38.6533V83.0928H39.1533ZM39.1533 75.6699H39.6533C39.6533 74.1714 38.5145 72.9182 37.0323 72.918L37.0322 73.418L37.0322 73.918C37.9067 73.9181 38.6533 74.6665 38.6533 75.6699H39.1533ZM63.9033 73.418V72.918C62.4211 72.918 61.2812 74.171 61.2812 75.6699H61.7812H62.2812C62.2812 74.6666 63.0284 73.918 63.9033 73.918V73.418ZM61.7812 75.6699H61.2812V83.0928H61.7812H62.2812V75.6699H61.7812ZM61.7812 83.0928V83.5928H66.0244V83.0928V82.5928H61.7812V83.0928ZM66.0244 83.0928H66.5244V75.6699H66.0244H65.5244V83.0928H66.0244ZM66.0244 75.6699H66.5244C66.5244 74.1714 65.3854 72.9184 63.9035 72.918L63.9033 73.418L63.9032 73.918C64.7777 73.9182 65.5244 74.6667 65.5244 75.6699H66.0244Z" fill="black" fill-opacity="0.1"/>
  </g>
</svg>