<svg xmlns="http://www.w3.org/2000/svg" width="109" height="119" viewBox="0 0 109 119" fill="none">
  <g opacity="0.2">
    <path d="M41.3931 0.375412C40.8599 0.551048 40.4584 0.914871 39.9252 1.72406C39.6743 2.1067 36.7324 6.79247 33.3953 12.1432C30.0581 17.4876 25.8052 24.3061 23.9422 27.2919C22.0791 30.2778 19.1121 35.0326 17.3432 37.8616C15.5743 40.6906 11.3966 47.3774 8.05946 52.7281C4.71607 58.0725 1.93095 62.5889 1.86822 62.7646C1.64868 63.3918 1.75531 63.8686 2.22577 64.3327C2.59587 64.7028 3.02242 64.8659 3.63088 64.8659C3.91943 64.8659 5.58171 64.5021 9.86603 63.511C13.084 62.7708 16.3897 62.0055 17.2177 61.8174C18.0457 61.6292 18.7671 61.4598 18.8173 61.4473C18.8988 61.4222 18.9114 61.7484 18.9114 64.1007C18.9177 66.478 18.9302 66.9109 19.0557 67.9396C19.5073 71.6468 20.3228 74.5448 21.7341 77.4429C25.3473 84.8573 32.1971 89.8003 41.9639 92.0585C49.0019 93.6831 57.7086 93.8964 67.6823 92.6795C79.6194 91.2242 88.0375 87.1657 92.7421 80.5918C94.7996 77.7189 96.0729 74.388 96.5748 70.5679C96.7128 69.5015 96.763 66.7039 96.6626 65.512C96.4368 62.7646 95.7969 59.9355 94.8686 57.5644C94.1096 55.6261 93.0181 53.6941 92.1587 52.7595L91.7824 52.3455L91.7134 51.7558C91.4436 49.4788 90.8163 47.2708 89.9507 45.552C89.8127 45.2697 89.7061 45.0439 89.7186 45.0439C89.7374 45.0439 91.7008 44.5923 94.097 44.0403C96.4932 43.482 99.4979 42.792 100.771 42.4972C102.051 42.2024 103.218 41.9013 103.374 41.826C103.726 41.6629 104.228 41.1987 104.378 40.9039C104.673 40.3268 104.566 39.6556 104.108 39.1851C103.939 39.0095 102.076 37.8114 98.7326 35.7288C95.9224 33.9725 89.4865 29.9579 84.4306 26.8027C79.3748 23.6475 73.4909 19.9716 71.3519 18.6355C69.2129 17.2994 62.9777 13.404 57.489 9.97905C52.0066 6.55411 46.543 3.14171 45.3512 2.40152C44.1594 1.66133 43.0616 0.952507 42.9048 0.820778C42.748 0.69532 42.5284 0.538498 42.4092 0.482048C42.1709 0.35659 41.6314 0.300133 41.3931 0.375412ZM47.4902 11.2963C48.9141 13.0402 50.6454 15.1541 51.3417 16.0009C52.6903 17.6381 58.524 24.7577 61.6291 28.5465C62.6641 29.8073 64.3954 31.9213 65.4868 33.2511C66.5783 34.5809 68.3096 36.6949 69.3446 37.9557C70.3733 39.2165 72.1172 41.343 73.2212 42.6791C74.3189 44.0215 75.2285 45.1506 75.2473 45.1945C75.2661 45.2447 73.7606 45.6147 70.3357 46.4114C67.6133 47.0387 62.9526 48.1176 59.9668 48.8076C56.9809 49.4976 54.5283 50.0622 54.5095 50.0622C54.4906 50.0622 54.4279 49.8301 54.3715 49.5415C54.315 49.2592 53.6689 46.4553 52.9413 43.3189C51.6365 37.6734 50.6329 33.3515 48.3935 23.6537C46.7751 16.647 44.8682 8.41712 44.818 8.1913C44.7866 8.06585 44.7929 8.02193 44.8305 8.06585C44.8682 8.09721 46.06 9.5525 47.4902 11.2963ZM42.4845 11.61C43.1933 14.6648 43.9712 18.0459 47.8289 34.7252C50.7332 47.277 51.4922 50.5389 51.5299 50.6393C51.5801 50.7647 51.8749 50.6832 48.613 51.4359C45.3637 52.1824 30.723 55.5697 30.516 55.6198L30.3655 55.6575L30.4533 55.2874C30.5035 55.0867 30.7419 54.0893 30.9802 53.0731C31.7141 49.9806 38.0497 23.1895 38.5201 21.2073C38.7648 20.1911 39.0533 18.9491 39.1725 18.4473C39.2917 17.9455 39.7433 16.0386 40.1761 14.2132C40.609 12.3815 41.1108 10.2613 41.2927 9.49604C41.4683 8.73076 41.6377 8.1223 41.6565 8.14739C41.6816 8.17249 42.0517 9.72813 42.4845 11.61ZM52.314 10.3366C53.9198 11.334 58.4613 14.1755 62.4132 16.6407C66.365 19.1059 73.6352 23.6475 78.5656 26.7274C83.5023 29.8073 90.1828 33.9787 93.4196 36.0048C97.9485 38.8276 99.2783 39.687 99.1905 39.7246C99.1278 39.7497 98.5821 39.8814 97.9799 40.0194C97.064 40.2264 92.6104 41.2552 80.1401 44.1406C78.9043 44.4292 78.6283 44.4731 78.5656 44.4041C78.5217 44.3602 78.1077 43.8584 77.6435 43.2875C77.1793 42.7167 75.8871 41.136 74.7706 39.7748C73.654 38.4136 72.0294 36.4377 71.17 35.3838C70.3106 34.33 69.1627 32.9312 68.6232 32.2788C68.0838 31.6202 66.2207 29.3494 64.4832 27.2292C61.5538 23.6537 58.4864 19.9089 54.6098 15.1855C52.3014 12.369 49.0459 8.39203 48.9643 8.29166C48.9267 8.24149 49.0082 8.27285 49.1462 8.36066C49.2842 8.44221 50.7081 9.33295 52.314 10.3366ZM36.632 15.9758C35.0764 22.5372 34.1229 26.5831 33.458 29.3933C33.1632 30.6353 32.7993 32.1722 32.6488 32.812C32.4982 33.4518 32.0341 35.3964 31.6263 37.1402C31.2123 38.8841 30.0205 43.9211 28.9792 48.3371C27.9317 52.7532 27.0535 56.3851 27.0221 56.4039C26.9907 56.4228 26.3948 56.5733 25.6985 56.7301C25.0023 56.8932 21.6777 57.6585 18.3155 58.4363C7.15618 61.0207 6.50381 61.1713 6.44736 61.1524C6.42227 61.1399 7.04327 60.1049 7.82737 58.8441C9.72803 55.8018 15.6684 46.2859 23.8481 33.1884C27.5177 27.3045 32.1595 19.8775 34.1543 16.6784C36.1553 13.4793 37.7987 10.8698 37.8113 10.8823C37.8176 10.8949 37.2907 13.1907 36.632 15.9758ZM86.8018 46.1417C87.3914 47.0136 88.119 48.9331 88.4139 50.3883C88.4954 50.8149 88.6271 51.6304 88.6961 52.2012C88.7589 52.7657 88.8467 53.3303 88.8843 53.4557C88.9659 53.7443 89.2293 54.1081 89.6935 54.5723C89.8942 54.773 90.2393 55.2121 90.4651 55.5571C92.0333 57.9408 93.1749 61.4661 93.6015 65.2737C93.6956 66.1519 93.6956 68.9683 93.6015 69.7901C93.1185 73.8235 91.7698 77.0916 89.4238 79.9206C85.2336 84.9639 78.0763 88.2133 68.1841 89.5431C65.5997 89.8944 62.1309 90.2017 59.4022 90.3335C56.4979 90.4715 52.4143 90.4025 49.7108 90.1766C40.3079 89.38 33.0816 86.5008 28.3833 81.6707C24.7263 77.9071 22.6311 73.1335 22.0415 67.1869C21.9223 65.995 21.8972 62.6956 21.9976 61.3845L22.0478 60.6945L25.7487 59.8414C27.7874 59.371 31.7957 58.4426 34.6561 57.784C37.5227 57.119 42.1082 56.0589 44.8494 55.4254C47.5906 54.7918 54.0014 53.3115 59.0886 52.1322C64.1758 50.9529 70.5866 49.4725 73.3278 48.839C84.5749 46.242 85.9738 45.9158 86.1557 45.8594C86.4756 45.7653 86.5822 45.8155 86.8018 46.1417Z" fill="black" fill-opacity="0.1"/>
    <path d="M73.8295 52.2951C72.1798 52.6151 70.8751 53.4368 70.0094 54.729C69.5954 55.3437 69.401 55.7389 69.2253 56.3536C68.435 59.076 69.6268 61.8486 72.0794 63.0153C74.4882 64.157 77.4301 63.3227 78.9544 61.0708C79.6256 60.0797 79.9142 59.1952 79.9581 57.9971C80.0082 56.6861 79.7511 55.7138 79.0736 54.6788C78.3522 53.5623 77.2294 52.7468 75.9623 52.4143C75.5671 52.314 74.162 52.2324 73.8295 52.2951ZM75.818 54.522C76.2759 54.6914 76.6523 55.2684 76.6523 55.8016C76.6523 57.2256 74.7328 57.6647 74.0742 56.385C73.9299 56.109 73.9174 55.5507 74.0428 55.2496C74.1432 54.9924 74.4882 54.6474 74.7391 54.5408C74.9649 54.4404 75.5734 54.4279 75.818 54.522Z" fill="black" fill-opacity="0.1"/>
    <path d="M42.9425 57.903C40.9979 58.3233 39.3043 59.9228 38.7397 61.8737C37.9494 64.5961 39.1412 67.3686 41.5938 68.5354C44.0026 69.677 46.9445 68.8427 48.4688 66.5908C49.14 65.5997 49.4286 64.7152 49.4725 63.5171C49.5226 62.2061 49.2717 61.2401 48.6005 60.2176C47.8666 59.0823 46.7501 58.2731 45.4767 57.9344C44.8369 57.7713 43.6262 57.7524 42.9425 57.903ZM45.4955 59.6845C46.2922 59.973 46.7187 60.9641 46.3863 61.7608C45.9723 62.7581 44.6361 62.9902 43.9712 62.181C43.0115 61.0143 44.1155 59.1952 45.4955 59.6845Z" fill="black" fill-opacity="0.1"/>
    <path d="M84.807 60.7948C82.9251 61.3406 81.2691 61.8361 81.1249 61.8863C80.9806 61.9428 80.7736 62.087 80.6669 62.2062C80.5164 62.3819 80.4788 62.4822 80.4788 62.7206C80.4788 63.2538 80.8363 63.6113 81.3695 63.6113C81.6016 63.6113 88.5957 61.5978 88.878 61.4472C89.2042 61.2841 89.3861 61.0018 89.3861 60.6757C89.3861 60.1425 89.0098 59.7787 88.464 59.7912C88.3323 59.7912 86.6888 60.2428 84.807 60.7948Z" fill="black" fill-opacity="0.1"/>
    <path d="M61.2212 63.4042C60.6504 63.4481 59.377 63.6865 58.7247 63.8684C57.8214 64.1256 57.5893 64.3451 57.4513 65.0853C57.3635 65.5683 57.4889 65.9572 57.9029 66.4653C58.5114 67.218 59.3394 67.7387 60.1549 67.8955L60.5375 67.9708L60.4936 68.2844C60.4309 68.7737 60.2301 69.4951 60.0671 69.8589C59.8601 70.3105 59.4084 70.781 59.007 70.9566C58.7184 71.0884 58.5867 71.1072 57.928 71.1072C57.0185 71.1009 56.41 70.9566 55.0927 70.4109C54.4027 70.1286 54.1832 70.0659 53.9887 70.091C53.1168 70.2102 52.9223 71.2264 53.6751 71.7407C53.9887 71.9477 55.4628 72.5123 56.1905 72.6942C56.5606 72.782 56.8679 72.8824 56.8805 72.9012C56.9746 73.1207 57.376 73.6163 57.9092 74.1808C60.2051 76.6021 62.3315 77.0851 64.2385 75.6173C65.0727 74.9775 66.0325 73.5849 66.6535 72.1234C66.8166 71.7407 66.873 71.6717 67.1678 71.5024C68.0774 70.9817 69.3194 69.9028 69.5139 69.4512C69.815 68.7925 69.2692 68.1401 68.529 68.2781C68.3785 68.3095 68.1276 68.4852 67.701 68.8615C66.5531 69.8714 65.5997 70.3795 64.8532 70.3858C64.0942 70.3858 63.4167 69.7962 62.8208 68.6106C62.6326 68.228 62.4758 67.8704 62.4758 67.814C62.4758 67.7512 62.595 67.6258 62.7455 67.5317C63.1344 67.2682 63.8307 66.5845 64.1506 66.1329C64.4831 65.6687 64.8595 64.8532 64.8595 64.5898C64.8595 64.3326 64.6525 63.9311 64.389 63.6739C64.182 63.4732 64.1444 63.4606 63.5296 63.4167C62.8835 63.3666 61.7607 63.3603 61.2212 63.4042ZM62.7455 71.4459C63.2411 71.8223 63.8558 72.0857 64.4078 72.161C64.6713 72.1986 64.9034 72.2363 64.9159 72.2426C64.9598 72.2802 64.4643 73.1207 64.1569 73.5347C62.9212 75.2096 61.6729 75.3789 60.0106 74.0993C59.6217 73.8045 58.756 72.9576 58.7937 72.9137C58.8062 72.9012 58.9756 72.851 59.17 72.8008C60.1549 72.5436 61.0832 71.8035 61.5537 70.9064L61.7921 70.4485L62.1057 70.8249C62.2751 71.0319 62.5636 71.3142 62.7455 71.4459Z" fill="black" fill-opacity="0.1"/>
    <path d="M80.1275 65.9382C80.0146 65.9696 79.8389 66.0951 79.7323 66.2142C79.3559 66.6471 79.519 67.3245 80.0585 67.5629C80.2216 67.6319 81.8462 67.9204 84.2613 68.3094C88.6334 69.0119 88.5142 69.0056 88.8718 68.6042C89.1038 68.3407 89.1666 68.071 89.0725 67.7887C88.9909 67.5253 88.6522 67.2116 88.4013 67.1614C88.0751 67.0924 80.4599 65.8692 80.3909 65.8755C80.3533 65.8755 80.2341 65.9069 80.1275 65.9382Z" fill="black" fill-opacity="0.1"/>
    <path d="M31.5699 70.0723C29.2114 70.204 27.1853 70.3295 27.0661 70.3483C26.5768 70.4424 26.213 70.9944 26.3447 71.446C26.4764 71.904 26.7838 72.0796 27.455 72.0796C28.0133 72.0796 36.2181 71.653 36.6007 71.6091C37.5605 71.4837 37.8302 70.3797 37.0084 69.9406C36.7262 69.79 36.7826 69.7837 31.5699 70.0723Z" fill="black" fill-opacity="0.1"/>
    <path d="M33.163 75.3415C30.7166 76.3765 28.6529 77.2735 28.5713 77.3362C28.3455 77.5056 28.2075 77.7879 28.2075 78.0764C28.2075 78.3838 28.3392 78.6222 28.6215 78.7978C29.0167 79.0487 29.1296 79.0111 33.715 77.0728C36.061 76.0754 38.0934 75.2035 38.2314 75.1345C39.0971 74.6578 38.8524 73.4597 37.8864 73.4597C37.6606 73.4597 36.7511 73.8235 33.163 75.3415Z" fill="black" fill-opacity="0.1"/>
    <path d="M59.6406 104.453C59.5778 104.484 59.5277 104.547 59.5277 104.591C59.5277 104.635 59.3959 105.156 59.2391 105.752C59.007 106.605 58.9568 106.849 59.0196 106.912C59.076 106.968 59.8476 106.987 62.1999 106.987C65.0854 106.987 65.3174 106.981 65.3864 106.881C65.4304 106.818 65.5746 106.366 65.7064 105.877C65.8318 105.381 65.9698 104.892 66.0075 104.786C66.1455 104.359 66.3274 104.384 62.8711 104.384C60.8638 104.384 59.7096 104.409 59.6406 104.453Z" fill="black" fill-opacity="0.1"/>
    <path d="M94.7306 104.466C94.693 104.51 94.6365 104.66 94.6052 104.792C94.5738 104.93 94.4044 105.576 94.2288 106.235C94.0469 106.887 93.6893 108.217 93.4322 109.183C93.175 110.149 92.9053 111.134 92.8425 111.379C92.3972 112.953 92.3093 113.367 92.4034 113.423C92.4975 113.486 98.4253 113.505 98.6511 113.442C98.8079 113.398 98.8456 113.298 99.2408 111.818C99.385 111.266 99.6485 110.262 99.8304 109.591C100.012 108.92 100.238 108.073 100.332 107.709C100.426 107.345 100.658 106.486 100.847 105.802C101.029 105.112 101.173 104.516 101.154 104.466C101.104 104.347 94.831 104.347 94.7306 104.466ZM98.971 106.097C99.0212 106.16 98.9773 106.41 98.8017 107.057C98.5319 108.016 98.0552 109.81 97.5973 111.548L97.5346 111.786H96.0354C95.1446 111.786 94.5236 111.761 94.4985 111.724C94.4797 111.692 94.5174 111.46 94.5926 111.209C94.7495 110.638 95.3015 108.581 95.6653 107.213C95.8158 106.649 95.9726 106.147 96.0228 106.103C96.142 105.978 98.8707 105.978 98.971 106.097Z" fill="black" fill-opacity="0.1"/>
    <path d="M21.5459 95.9914C21.1947 96.1043 20.1471 96.4242 17.4686 97.2272C16.8853 97.4091 16.1827 97.6223 15.9192 97.7102L15.4362 97.867L15.292 98.3186L15.1477 98.7703L11.4656 98.8016C7.8838 98.833 7.77716 98.8393 7.65798 98.9584C7.46353 99.1654 3.44267 105.896 3.48658 105.959C3.5054 105.99 4.16404 106.015 4.98577 106.015C5.78869 106.015 6.49124 106.034 6.5477 106.053C6.60415 106.072 6.64806 106.153 6.64806 106.229C6.64806 106.298 6.45988 107.038 6.24033 107.866C6.01451 108.694 5.71969 109.804 5.58169 110.331C5.43741 110.858 5.29314 111.397 5.24923 111.523L5.17396 111.755L4.70977 111.799C4.45886 111.818 4.21422 111.874 4.17031 111.924C4.1264 111.968 3.24194 113.423 2.20066 115.161L0.306274 118.316L0.325093 118.642L0.343911 118.969L3.29212 118.987C6.08978 119 6.27797 118.994 6.93034 118.868C7.30671 118.793 7.83989 118.649 8.10962 118.542C9.37673 118.065 10.6062 116.911 11.2774 115.575C11.5157 115.105 11.8733 114.113 12.0427 113.467C12.0866 113.304 12.1681 113.129 12.2246 113.078C12.281 113.028 12.6637 112.884 13.0777 112.759C17.3243 111.466 18.1461 111.222 18.2088 111.266C18.2904 111.316 18.2339 111.642 17.9893 112.602C17.6694 113.837 17.6003 114.252 17.6066 114.954C17.6192 116.453 18.1461 117.495 19.2626 118.216C19.9087 118.636 20.1157 118.724 20.7744 118.868C21.3076 118.981 21.5961 119 22.9448 119C24.3561 119 24.513 118.987 24.6008 118.887C24.651 118.831 24.927 118.392 25.2092 117.921C25.4915 117.444 25.7487 117.043 25.7801 117.024C25.893 116.955 25.8428 117.244 25.6232 118.04C25.4978 118.479 25.41 118.868 25.4288 118.918C25.4539 118.987 26.6394 119 32.2975 119C38.7459 119 39.1411 118.994 39.1913 118.887C39.2226 118.831 39.2979 118.58 39.3606 118.341C39.5175 117.727 39.5739 117.683 39.8938 117.896C40.3141 118.172 41.2048 118.536 41.8384 118.68C43.1055 118.981 43.5195 119 48.4248 119C52.8283 119 53.0667 118.994 53.7191 118.868C55.0113 118.624 55.9584 118.159 56.8241 117.338C57.7838 116.428 58.3547 115.324 58.9255 113.26C58.9819 113.053 59.0635 112.815 59.1074 112.727L59.1889 112.57L60.6254 112.552C62.1622 112.533 62.1873 112.539 62.1246 112.853C62.1058 112.94 62.0619 113.135 62.0305 113.292C61.9991 113.449 61.9301 113.775 61.88 114.026C61.673 115.017 61.8549 116.215 62.3441 117.049C62.8522 117.921 63.8433 118.605 64.9473 118.856L65.5809 119H84.2299H102.873L102.929 118.862C102.986 118.699 103.569 116.579 104.09 114.609C104.648 112.514 105.237 110.312 105.507 109.34C105.639 108.838 105.827 108.148 105.915 107.803C106.003 107.464 106.191 106.787 106.323 106.298C106.454 105.815 106.668 105.024 106.793 104.541C106.919 104.058 107.176 103.098 107.364 102.408C107.552 101.718 107.772 100.884 107.859 100.558C107.947 100.232 108.079 99.7488 108.154 99.4854C108.223 99.2219 108.267 98.9584 108.248 98.902C108.211 98.8142 107.954 98.8016 105.727 98.8016C103.682 98.8016 103.236 98.7891 103.211 98.7138C103.18 98.6323 103.23 98.4378 103.688 96.7128C103.795 96.3051 103.864 95.9475 103.845 95.9161C103.826 95.8785 103.538 95.8534 103.211 95.8534C102.678 95.8534 102.521 95.8848 101.693 96.142C101.185 96.3051 100.69 96.4556 100.583 96.4807C100.483 96.5058 100.031 96.6438 99.5794 96.7818C99.134 96.9198 98.1869 97.2083 97.478 97.4216C96.7692 97.6349 96.1607 97.8419 96.1168 97.8733C96.0792 97.9046 95.9851 98.1242 95.9161 98.3625L95.7844 98.7954L93.2439 98.8142C91.3558 98.8267 90.6909 98.8518 90.6344 98.9083C90.5905 98.9522 90.4337 99.4415 90.2831 100.006C90.1389 100.564 89.9883 101.047 89.9507 101.085C89.913 101.123 89.6998 100.959 89.3422 100.614C88.5518 99.8617 87.8242 99.454 86.6888 99.1466C85.5096 98.8267 84.7756 98.8016 76.0314 98.8016H68.0398L68.0775 98.5946C68.1151 98.4127 68.2719 97.8043 68.5417 96.8571C68.711 96.2549 68.7549 96.0228 68.7236 95.935C68.6985 95.8785 68.5354 95.8534 68.1214 95.8534C67.5066 95.8534 67.6572 95.8158 64.9536 96.6375C64.1946 96.8696 63.0091 97.2272 62.3191 97.4342C61.629 97.6412 61.0394 97.8356 61.0018 97.867C60.9704 97.8983 60.8826 98.1179 60.8136 98.35L60.6819 98.7703L53.5685 98.8016C48.2116 98.8267 46.4175 98.8518 46.3172 98.9083C46.2482 98.9522 45.7275 99.4665 45.1693 100.05C44.6047 100.64 44.1154 101.123 44.0841 101.123C44.0088 101.123 44.0527 100.803 44.1907 100.307C44.2472 100.119 44.3475 99.7363 44.4228 99.4665C44.5482 98.9835 44.5482 98.9647 44.4353 98.8832C44.3412 98.8142 42.359 98.8016 33.4203 98.8016C26.169 98.8016 22.5182 98.7828 22.5182 98.7389C22.5182 98.6762 22.9448 97.0641 23.1141 96.5058C23.1643 96.3301 23.2082 96.1106 23.2082 96.0228V95.8534L22.5684 95.8597C22.1105 95.866 21.8157 95.9036 21.5459 95.9914ZM20.95 98.1053C20.95 98.1681 20.8936 98.4002 20.8308 98.6197C20.7618 98.8393 20.6301 99.3285 20.536 99.6986C20.3917 100.276 20.3792 100.389 20.4545 100.439C20.5047 100.47 22.4304 100.495 24.9207 100.495C28.9478 100.495 29.2928 100.502 29.2928 100.602C29.2928 100.715 27.342 104.021 27.1413 104.24C27.0284 104.366 26.9531 104.384 26.4763 104.384C26.1815 104.384 25.8992 104.409 25.8491 104.441C25.7675 104.491 25.5982 105.043 25.1842 106.611C24.8329 107.947 24.7952 108.098 24.651 108.619C24.5757 108.895 24.4189 109.472 24.306 109.904C24.1868 110.337 24.0237 110.958 23.9359 111.284C23.3964 113.279 23.3901 113.304 23.4654 113.392C23.5156 113.455 23.8041 113.48 24.6698 113.492C25.4037 113.505 25.8114 113.536 25.824 113.58C25.8428 113.637 24.0174 116.754 23.6975 117.193L23.5783 117.369H22.606C20.7995 117.369 19.8899 116.993 19.4508 116.052C19.3128 115.763 19.2815 115.6 19.2689 115.036C19.2438 114.277 19.2689 114.12 19.7958 112.163C19.9903 111.454 20.1847 110.732 20.2286 110.563C20.2726 110.387 20.3729 110.036 20.4419 109.779C20.5109 109.522 20.6427 109.026 20.7305 108.681C20.8246 108.336 21.0065 107.659 21.1382 107.176C21.2637 106.693 21.4518 106.003 21.5459 105.639C21.64 105.275 21.7467 104.893 21.7843 104.786C21.916 104.391 21.8972 104.384 20.5862 104.384C19.7017 104.384 19.3818 104.403 19.3316 104.466C19.2313 104.579 19.1184 104.962 18.7545 106.36C18.5789 107.05 18.3907 107.74 18.3468 107.897C18.3029 108.054 18.19 108.468 18.0896 108.819C17.9955 109.177 17.8701 109.503 17.8199 109.547C17.7634 109.597 17.5063 109.697 17.2491 109.773C16.9919 109.848 16.5653 109.98 16.3082 110.061C14.9281 110.494 13.9433 110.783 13.8492 110.783C13.7802 110.783 13.7363 110.739 13.7363 110.67C13.7363 110.576 13.9935 109.547 14.3636 108.179C14.5894 107.351 14.9846 105.89 15.1226 105.376C15.1979 105.106 15.2606 104.78 15.2669 104.654L15.2731 104.416H14.05H12.833L12.7578 104.573C12.7138 104.66 12.6323 104.899 12.5821 105.106C12.35 105.997 12.1618 106.699 12.074 107.019C12.0238 107.207 11.8796 107.728 11.7604 108.179C11.6412 108.625 11.5032 109.133 11.453 109.309C11.4091 109.478 11.2899 109.917 11.1958 110.281C10.7505 111.987 10.3365 113.492 10.1859 113.963C9.76564 115.274 8.86236 116.384 7.82107 116.867C7.60153 116.974 7.13734 117.131 6.79861 117.212C6.22151 117.357 6.06469 117.369 4.5655 117.369C3.52421 117.369 2.94085 117.344 2.91575 117.306C2.89066 117.269 3.37994 116.403 3.99467 115.374L5.1175 113.511L5.75105 113.48C6.10233 113.461 6.40342 113.43 6.42852 113.405C6.45361 113.386 6.53515 113.116 6.6167 112.809C6.69825 112.508 6.8237 112.031 6.89897 111.755C6.97425 111.479 7.0997 111.015 7.18125 110.72C7.34434 110.099 7.72698 108.662 7.93398 107.897C8.10335 107.282 8.54244 105.626 8.72436 104.962C8.79336 104.711 8.83099 104.478 8.81217 104.441C8.78708 104.409 8.26017 104.384 7.58271 104.384C6.51633 104.384 6.39715 104.372 6.39715 104.278C6.39715 104.165 8.34799 100.865 8.55499 100.64L8.67417 100.495L12.5382 100.483L16.4022 100.464L16.5089 100.15C16.5653 99.9746 16.6469 99.6986 16.6908 99.5355C16.7347 99.3474 16.8163 99.2094 16.8978 99.1654C17.1111 99.0463 20.5862 97.9987 20.7807 97.9924C20.9061 97.9862 20.95 98.0175 20.95 98.1053ZM66.4654 98.1555C66.4465 98.2559 66.3775 98.5256 66.3085 98.7703C65.8695 100.37 65.8632 100.395 66.0263 100.458C66.0827 100.476 67.7764 100.495 69.7899 100.495C72.9514 100.495 73.4595 100.508 73.4909 100.589C73.5285 100.677 71.4397 104.24 71.2954 104.334C71.2578 104.359 70.9692 104.384 70.6556 104.384C70.2729 104.384 70.0597 104.409 70.0158 104.46C69.9844 104.504 69.8966 104.767 69.8276 105.043C69.7586 105.319 69.5516 106.078 69.3759 106.737C69.2003 107.389 69.0121 108.085 68.9619 108.274C68.9118 108.462 68.7988 108.888 68.711 109.214C68.6232 109.541 68.4789 110.061 68.3974 110.375C68.3158 110.682 68.1967 111.134 68.1277 111.379C67.6823 112.984 67.6133 113.304 67.6823 113.392C67.7387 113.455 68.0147 113.48 68.8992 113.492C69.8966 113.511 70.0346 113.524 70.0283 113.612C70.022 113.699 68.573 116.171 68.021 117.037L67.8077 117.369H66.7915C65.7001 117.369 65.1606 117.275 64.5898 116.999C63.7555 116.591 63.3352 115.65 63.4795 114.496C63.5485 113.919 63.5611 113.856 63.8182 112.915C64.2009 111.51 64.3013 111.084 64.2699 110.996C64.2385 110.921 63.7618 110.908 61.0645 110.908H57.8967L57.834 111.046C57.8026 111.128 57.6333 111.724 57.4576 112.382C57.0562 113.863 56.8805 114.402 56.5983 114.929C56.1215 115.845 55.2684 116.635 54.3903 116.98C53.5434 117.313 53.0981 117.369 51.3354 117.369C49.9115 117.369 49.7421 117.357 49.7421 117.269C49.7421 117.156 51.6992 113.844 51.9 113.618C52.0066 113.492 52.0819 113.48 52.5649 113.48C52.9036 113.48 53.142 113.449 53.2047 113.405C53.2611 113.361 53.3803 113.053 53.4682 112.727C53.556 112.401 53.694 111.862 53.7818 111.535C53.9637 110.833 54.0641 110.463 54.2899 109.654C54.4467 109.064 54.6412 108.343 54.9987 106.988C55.0991 106.605 55.2496 106.072 55.3249 105.796C55.4002 105.52 55.5005 105.143 55.5507 104.962C55.7075 104.391 55.7703 104.422 54.4153 104.384C53.349 104.359 53.2235 104.34 53.2298 104.246C53.2361 104.159 55.0238 101.123 55.3374 100.665L55.4566 100.495H58.6369C60.387 100.495 61.8486 100.47 61.8925 100.445C61.9301 100.42 62.0242 100.175 62.0995 99.8994C62.1748 99.6234 62.2689 99.3411 62.3128 99.2721C62.3755 99.178 62.8773 98.9961 64.2385 98.5758C65.2547 98.2559 66.1768 97.9987 66.296 97.9924C66.4967 97.9862 66.503 97.9987 66.4654 98.1555ZM101.574 98.0301C101.593 98.0614 101.555 98.2747 101.493 98.5194C101.43 98.7577 101.304 99.247 101.21 99.6045C101.116 99.9621 101.06 100.288 101.079 100.338C101.11 100.42 101.474 100.433 103.55 100.433C105.564 100.433 106.009 100.445 106.065 100.52C106.122 100.589 106.078 100.834 105.877 101.599C105.739 102.151 105.582 102.722 105.532 102.879C105.488 103.036 105.344 103.544 105.225 104.008C105.03 104.767 104.849 105.445 104.604 106.36C104.359 107.245 103.544 110.281 103.381 110.908C103.274 111.303 103.092 111.981 102.973 112.414C102.86 112.846 102.59 113.844 102.383 114.64C101.894 116.466 101.806 116.779 101.712 117.087L101.637 117.338L94.5361 117.357C88.7087 117.369 87.4353 117.357 87.4039 117.288C87.3914 117.244 87.4165 117.049 87.4667 116.861C87.5168 116.673 87.6611 116.152 87.7803 115.707C87.9058 115.255 88.0814 114.609 88.1692 114.264C88.2633 113.919 88.4828 113.085 88.6648 112.414C88.8467 111.742 89.0725 110.896 89.1666 110.532C89.2607 110.168 89.4363 109.522 89.5555 109.089C89.6747 108.656 89.8252 108.104 89.888 107.866C90.0009 107.433 90.2141 106.618 90.465 105.702C90.534 105.445 90.6219 105.131 90.6532 105.012C90.6846 104.893 90.7348 104.692 90.7661 104.573C90.7912 104.453 90.9606 103.832 91.13 103.193C91.3056 102.553 91.5063 101.806 91.5816 101.53C91.7761 100.79 91.8451 100.596 91.9203 100.545C91.958 100.52 93.1122 100.495 94.4796 100.495H96.9762L97.0578 100.351C97.1079 100.276 97.202 100.006 97.2648 99.7551C97.3275 99.5042 97.4216 99.2595 97.4718 99.2156C97.5909 99.109 101.135 97.9987 101.38 97.9924C101.474 97.9862 101.562 98.005 101.574 98.0301ZM35.8416 100.715C35.8353 100.815 35.7601 101.154 35.6723 101.468C35.5342 101.963 35.4213 102.39 35.0262 103.876C34.976 104.058 34.8693 104.453 34.7878 104.755C34.7 105.049 34.4992 105.802 34.3361 106.423C34.1731 107.044 34.0037 107.678 33.9598 107.834C33.8406 108.274 33.6461 108.995 33.4391 109.779C33.1067 111.04 33.069 111.178 32.8683 111.912C32.7554 112.307 32.5735 112.997 32.4543 113.449C32.3414 113.894 32.2034 114.402 32.1595 114.578C32.1093 114.747 31.9525 115.337 31.8082 115.882C31.6639 116.428 31.5134 116.98 31.4695 117.106L31.3942 117.338H29.481C27.6054 117.338 27.5678 117.338 27.5741 117.212C27.5804 117.093 27.7685 116.365 28.3205 114.327C28.4397 113.875 28.6655 113.047 28.8161 112.476C29.2803 110.714 29.9891 108.092 30.2024 107.301C30.3153 106.887 30.5097 106.166 30.6352 105.702C30.8673 104.805 30.9488 104.51 31.1998 103.6C31.3691 102.967 31.5134 102.44 31.8019 101.342C31.9149 100.928 32.034 100.571 32.0717 100.545C32.1156 100.514 32.9812 100.502 33.9974 100.514L35.8479 100.527L35.8416 100.715ZM42.3716 100.552C42.3904 100.583 42.2963 101.016 42.1583 101.511C42.0266 102.007 41.8384 102.703 41.7443 103.067C41.6502 103.431 41.4934 104.021 41.393 104.384C41.2927 104.748 41.0606 105.62 40.8724 106.329C40.6842 107.038 40.4709 107.834 40.4019 108.098C40.2639 108.612 40.2326 108.932 40.3267 108.876C40.358 108.851 40.5211 108.606 40.6842 108.317C41.7819 106.417 43.8645 103.795 46.2607 101.292L47.0323 100.495H49.2027C51.1598 100.495 51.373 100.508 51.373 100.596C51.373 100.652 51.0719 101.01 50.7019 101.399C47.9418 104.259 45.784 106.931 44.4855 109.083C43.6638 110.463 43.4129 111.103 43.4066 111.862C43.4066 112.326 43.6261 112.834 43.921 113.06C44.4165 113.436 44.4291 113.442 47.6031 113.48C49.6041 113.499 50.5199 113.53 50.5388 113.58C50.5576 113.637 48.7385 116.742 48.4186 117.187L48.2931 117.369H45.853C43.6638 117.369 43.3439 117.357 42.7605 117.244C42.3967 117.175 41.9513 117.062 41.7694 116.999C40.3016 116.497 39.461 115.5 39.2352 114.019C39.185 113.681 39.1286 113.386 39.1097 113.367C39.0345 113.292 38.9529 113.474 38.7961 114.076C38.2755 116.052 37.9242 117.281 37.8615 117.319C37.7548 117.394 34.1354 117.382 34.0915 117.306C34.0539 117.244 34.1793 116.748 34.9132 114.013C34.9948 113.699 35.1642 113.066 35.2896 112.602C35.4088 112.138 35.6158 111.36 35.7475 110.877C35.8793 110.394 36.0612 109.716 36.1553 109.371C36.2431 109.026 36.4187 108.374 36.5442 107.929C36.6634 107.477 36.8076 106.956 36.8578 106.768C36.9394 106.461 37.3157 105.049 37.4474 104.541C37.4725 104.435 37.5666 104.083 37.6545 103.757C37.8238 103.142 37.8426 103.067 38.2253 101.624C38.3507 101.16 38.4762 100.715 38.5138 100.633L38.5766 100.495H40.4521C41.5499 100.495 42.3465 100.52 42.3716 100.552ZM85.5911 100.589C87.5858 100.909 88.7275 101.85 89.0788 103.443C89.2607 104.271 89.1729 105.626 88.8718 106.768C88.8028 107.025 88.7212 107.32 88.6961 107.427C88.671 107.527 88.5895 107.828 88.5205 108.085C88.4515 108.343 88.3072 108.882 88.2006 109.277C87.9246 110.331 87.8556 110.582 87.567 111.661C87.4228 112.194 87.2158 112.94 87.1154 113.323C87.015 113.699 86.8394 114.364 86.7202 114.797C86.6073 115.23 86.4191 115.92 86.3125 116.334C86.2121 116.748 86.0866 117.15 86.049 117.231L85.98 117.369L78.2268 117.357L70.4737 117.338L70.4047 116.742C70.3043 115.964 70.1789 113.618 70.2228 113.543C70.2479 113.505 70.756 113.48 71.4397 113.48C72.2802 113.48 72.6441 113.455 72.7131 113.398C72.7695 113.361 72.8636 113.141 72.9201 112.915C72.9765 112.69 73.0769 112.326 73.1396 112.1C73.2023 111.874 73.3278 111.397 73.4219 111.034C73.516 110.67 73.6163 110.306 73.6414 110.218C73.6728 110.13 73.8547 109.453 74.0554 108.713C74.2499 107.972 74.5635 106.799 74.7517 106.109C74.9399 105.419 75.0967 104.761 75.103 104.635L75.1155 104.416L74.5196 104.384L73.9237 104.353L73.9049 104.039C73.8986 103.864 73.8484 103.243 73.7983 102.647C73.6979 101.511 73.6791 100.608 73.7481 100.539C73.7669 100.514 76.3136 100.495 79.4061 100.495C84.0417 100.495 85.1269 100.514 85.5911 100.589ZM52.6276 101.925C52.6276 101.951 52.107 102.848 51.4671 103.908C50.8273 104.974 50.3067 105.877 50.3067 105.928C50.3067 106.003 50.5701 106.015 51.831 106.015C52.6652 106.015 53.3866 106.04 53.4368 106.072C53.5121 106.122 53.5058 106.204 53.3929 106.624C53.3176 106.894 53.1859 107.383 53.0981 107.709C53.0165 108.035 52.8158 108.769 52.6652 109.34C52.5084 109.911 52.3077 110.657 52.2199 111.002C52.1258 111.347 52.0254 111.667 51.9878 111.711C51.9376 111.767 51.1911 111.786 48.5252 111.774L45.1316 111.755L45.1128 111.611C45.0689 111.303 46.1478 109.396 47.0887 108.123C48.2116 106.605 49.4598 105.137 51.2978 103.174C52.4143 101.982 52.6276 101.781 52.6276 101.925ZM29.1987 104.679C29.1109 105.018 28.8475 105.984 28.6216 106.831C28.3958 107.678 28.1135 108.719 28.0006 109.152C27.8877 109.585 27.756 110.093 27.6995 110.281C27.6494 110.469 27.5615 110.795 27.5051 111.002C27.4549 111.209 27.3796 111.473 27.342 111.579L27.273 111.786H26.5955C26.2192 111.786 25.8804 111.799 25.8302 111.818C25.7863 111.836 25.6985 111.818 25.6358 111.774C25.548 111.705 25.5417 111.655 25.5919 111.473C25.6672 111.228 26.3383 108.706 26.7335 107.207C26.9029 106.561 27.0284 106.197 27.1162 106.122C27.1977 106.047 27.342 106.015 27.5929 106.015C27.7874 106.015 27.9755 105.99 28.0195 105.965C28.0571 105.94 28.3205 105.539 28.6028 105.074C29.4183 103.726 29.4559 103.694 29.1987 104.679ZM72.6566 106.015C72.7695 106.015 72.895 106.04 72.9452 106.072C73.033 106.128 73.033 106.141 72.7382 107.207C72.688 107.395 72.4998 108.104 72.3242 108.775C72.1422 109.447 71.8976 110.362 71.7784 110.814C71.6592 111.259 71.5338 111.667 71.4961 111.705C71.4146 111.805 69.8401 111.818 69.7837 111.724C69.7586 111.686 69.8025 111.454 69.8715 111.203C69.9468 110.958 70.16 110.174 70.3482 109.465C70.5364 108.757 70.8124 107.74 70.9567 107.207C71.101 106.674 71.2578 106.185 71.308 106.128C71.3707 106.047 71.5212 106.015 71.8474 105.997C72.0921 105.99 72.3304 105.984 72.3743 105.997C72.4245 106.009 72.55 106.015 72.6566 106.015Z" fill="black" fill-opacity="0.1"/>
    <path d="M79.149 104.453C79.0863 104.485 79.0361 104.566 79.0361 104.623C79.0361 104.679 78.9797 104.924 78.9107 105.168C78.7413 105.771 78.2081 107.721 78.0011 108.524C77.907 108.888 77.7941 109.308 77.7502 109.465C77.7063 109.622 77.6373 109.86 77.5997 109.998C77.5369 110.212 77.4052 110.701 76.803 112.972C76.734 113.223 76.7277 113.329 76.7842 113.392C76.8846 113.517 82.9754 113.524 83.126 113.398C83.1762 113.361 83.2514 113.21 83.2891 113.072C83.402 112.639 83.8599 110.895 83.9854 110.437C84.989 106.755 85.0768 106.392 85.0455 105.858C85.0266 105.463 84.9953 105.357 84.8322 105.124C84.6001 104.792 84.3304 104.61 83.8975 104.478C83.6278 104.403 83.1762 104.384 81.4072 104.384C80.0649 104.384 79.2118 104.409 79.149 104.453ZM83.2703 106.103C83.3832 106.185 83.3832 106.203 83.2891 106.617C83.2326 106.856 83.1197 107.301 83.0319 107.615C82.9002 108.104 82.6618 109.007 82.3356 110.218C82.0784 111.203 81.9718 111.567 81.9153 111.673C81.8589 111.78 81.7522 111.786 80.3848 111.786C79.2745 111.786 78.9169 111.767 78.8981 111.711C78.8668 111.629 78.9107 111.466 79.5003 109.277C79.6948 108.568 79.908 107.765 79.9833 107.489C80.2593 106.435 80.3597 106.141 80.4663 106.084C80.642 105.978 83.126 105.996 83.2703 106.103Z" fill="black" fill-opacity="0.1"/>
  </g>
</svg>