<svg xmlns="http://www.w3.org/2000/svg" width="120" height="120" viewBox="0 0 120 120" fill="none">
  <g opacity="0.2">
    <path d="M60 0C93.137 0 120 26.8539 120 59.98C120 90.9304 96.5493 116.404 66.4408 119.617C66.4438 119.625 66.4465 119.633 66.4495 119.642C64.2873 119.877 62.0907 120 59.8658 120C57.6414 120 55.4448 119.877 53.2826 119.642C53.2887 119.624 53.2939 119.606 53.2996 119.589C32.5803 117.287 15.045 104.439 6.1869 86.5355C6.1501 86.5646 6.11295 86.5934 6.07631 86.623C4.55242 83.5496 3.28438 80.3273 2.29995 76.9834C2.34037 76.9559 2.38105 76.9285 2.4216 76.9011C0.845968 71.5344 0 65.8558 0 59.98C0 55.1969 0.560797 50.5446 1.61893 46.0852C1.57925 46.0778 1.53953 46.07 1.49985 46.063C2.2881 42.7566 3.35003 39.5564 4.66071 36.4878C4.69642 36.4948 4.73218 36.5022 4.7679 36.5092C13.9057 15.0476 35.1951 4.35572e-05 60 0ZM94.8662 80.0132C78.6634 80.0132 65.4608 92.8539 64.8858 108.911C64.8815 109.183 64.8784 109.454 64.8771 109.727C82.5813 108.014 97.5837 97.0711 105.01 81.7707C101.841 80.633 98.4261 80.0132 94.8662 80.0132ZM24.8664 80.0132C21.3914 80.0132 18.0544 80.6043 14.9507 81.6906C22.327 96.9583 37.2414 107.905 54.8642 109.702C54.7026 93.2781 41.3344 80.0132 24.8664 80.0132ZM60 9.99646C39.8121 9.9965 22.4197 21.9572 14.5244 39.1758C35.3344 46.4154 51.972 62.5607 59.8711 83.0465C67.7985 62.4875 84.5266 46.3004 105.44 39.0991C97.5284 21.9215 80.1578 9.99646 60 9.99646ZM11.293 48.6394C10.4475 52.283 10.0003 56.079 10.0003 59.9795C10.0003 64.229 10.5316 68.3543 11.5299 72.2936C15.7011 70.8192 20.1901 70.0168 24.8664 70.0168C32.1543 70.0168 38.9872 71.9656 44.8722 75.37C37.0915 63.0473 25.2819 53.5209 11.293 48.6394ZM108.687 48.5571C94.5975 53.4115 82.6998 62.9723 74.8748 75.3613C80.7563 71.9621 87.5839 70.0168 94.8662 70.0168C99.6344 70.0168 104.207 70.8518 108.448 72.382C109.461 68.4161 110 64.2608 110 59.9795C110 56.0494 109.545 52.2255 108.687 48.5571Z" fill="black" fill-opacity="0.1"/>
    <path d="M60 0.5C92.8609 0.5 119.5 27.1299 119.5 59.9795C119.5 90.6714 96.2449 115.934 66.3877 119.119L65.75 119.188L65.7578 119.209C63.8195 119.4 61.8543 119.5 59.8662 119.5C57.8698 119.5 55.8957 119.398 53.9492 119.206L53.9648 119.159L53.3545 119.092C32.8095 116.809 15.4194 104.069 6.63477 86.3135L6.36035 85.7598L6.25488 85.8428C4.91638 83.0708 3.78623 80.1801 2.88574 77.1895L3.00391 77.1104L2.90137 76.7598C1.33908 71.4384 0.5 65.807 0.5 59.9795C0.500037 55.2359 1.05627 50.6219 2.10547 46.2002L2.22656 45.6904L2.11328 45.6689C2.84804 42.7041 3.80384 39.8271 4.96484 37.0566L5.06934 37.0771L5.22754 36.7051C14.148 15.754 34.7457 0.96772 58.8496 0.510742L60 0.5ZM94.8662 79.5137C78.3935 79.5137 64.9704 92.5676 64.3857 108.893V108.902C64.3814 109.176 64.3783 109.45 64.377 109.725L64.374 110.278L64.9248 110.225C82.8075 108.494 97.9601 97.4417 105.46 81.9893L105.703 81.4883L105.179 81.2998C101.957 80.1429 98.4845 79.5137 94.8662 79.5137ZM24.8662 79.5137C21.3342 79.5137 17.9412 80.1141 14.7852 81.2188L14.2568 81.4033L14.5 81.9082C21.9496 97.3276 37.013 108.383 54.8135 110.199L55.3701 110.257L55.3643 109.697C55.2 92.9991 41.6087 79.5137 24.8662 79.5137ZM60 9.49609C39.6096 9.49614 22.0441 21.578 14.0703 38.9678L13.8408 39.4668L14.3604 39.6484C35.0311 46.8397 51.558 62.8777 59.4043 83.2266L59.8711 84.4365L60.3379 83.2266C68.2123 62.805 84.8291 46.7255 105.603 39.5723L106.126 39.3916L105.895 38.8896C98.029 21.8124 80.9059 9.87373 60.9521 9.50488L60 9.49609ZM10.8057 48.5264C9.95165 52.2067 9.5 56.0406 9.5 59.9795C9.5 64.2706 10.0366 68.4371 11.0449 72.416L11.1797 72.9473L11.6963 72.7646C15.8146 71.3089 20.2475 70.5166 24.8662 70.5166C32.0639 70.5166 38.8111 72.4411 44.6221 75.8027L45.2949 75.1035C37.4549 62.6866 25.5551 53.0862 11.458 48.167L10.9316 47.9834L10.8057 48.5264ZM108.524 48.084C94.3255 52.976 82.337 62.6111 74.4521 75.0947L75.125 75.7939C80.9325 72.4376 87.6741 70.5166 94.8662 70.5166C99.5756 70.5166 104.091 71.3417 108.278 72.8525L108.797 73.0391L108.933 72.5059C109.956 68.5 110.5 64.3029 110.5 59.9795C110.5 56.0107 110.041 52.1487 109.174 48.4434L109.048 47.9043L108.524 48.084Z" stroke="black" stroke-opacity="0.1"/>
  </g>
</svg>