<svg xmlns="http://www.w3.org/2000/svg" width="121" height="121" viewBox="0 0 121 121" fill="none">
  <g opacity="0.2">
    <mask id="mask0_3886_34302" style="mask-type:luminance" maskUnits="userSpaceOnUse" x="0" y="0" width="120" height="120">
      <path d="M119.821 59.9106C119.821 26.8229 92.9984 0 59.9106 0C26.8229 0 0 26.8229 0 59.9106C0 92.9984 26.8229 119.821 59.9106 119.821C92.9984 119.821 119.821 92.9984 119.821 59.9106Z" fill="white"/>
    </mask>
    <g mask="url(#mask0_3886_34302)">
      <g opacity="0.5">
        <path d="M111.467 -24.0027L35.629 23.3862C30.3677 26.6737 28.7678 33.604 32.0554 38.8652L32.0554 38.8652C35.343 44.1265 42.2732 45.7264 47.5344 42.4388L123.372 -4.95004C128.634 -8.23763 130.234 -15.1678 126.946 -20.4291C123.659 -25.6904 116.728 -27.2903 111.467 -24.0027Z" fill="black" fill-opacity="0.1"/>
        <path d="M35.8941 23.8101L111.732 -23.5789C116.759 -26.7199 123.381 -25.1912 126.523 -20.1643C129.664 -15.1373 128.135 -8.51529 123.108 -5.37399L47.2698 42.015C42.2427 45.1562 35.6208 43.6274 32.4795 38.6004C29.3382 33.5733 30.867 26.9514 35.8941 23.8101Z" stroke="black" stroke-opacity="0.1"/>
      </g>
      <g opacity="0.5">
        <path d="M111.468 14.9336L24.7886 69.0966C19.5274 72.3842 17.9274 79.3144 21.215 84.5756L21.215 84.5757C24.5026 89.8369 31.4328 91.4369 36.694 88.1493L123.373 33.9863C128.634 30.6987 130.234 23.7685 126.947 18.5072C123.659 13.2459 116.729 11.646 111.468 14.9336Z" fill="black" fill-opacity="0.1"/>
        <path d="M25.0537 69.5205L111.733 15.3575C116.76 12.2164 123.382 13.7451 126.523 18.7721C129.664 23.7992 128.135 30.4211 123.108 33.5624L36.4294 87.7254C31.4023 90.8667 24.7804 89.3378 21.6391 84.3108C18.4978 79.2838 20.0266 72.6618 25.0537 69.5205Z" stroke="black" stroke-opacity="0.1"/>
      </g>
      <g opacity="0.5">
        <path d="M111.467 53.8702L-3.17121 125.504C-8.43245 128.792 -10.0324 135.722 -6.74482 140.983L-6.74481 140.983C-3.45722 146.245 3.47299 147.845 8.73424 144.557L123.373 72.9228C128.634 69.6352 130.234 62.705 126.946 57.4438C123.659 52.1825 116.729 50.5826 111.467 53.8702Z" fill="black" fill-opacity="0.1"/>
        <path d="M-2.90612 125.928L111.733 54.2939C116.76 51.153 123.381 52.6821 126.522 57.7091C129.663 62.736 128.135 69.3575 123.108 72.4988L8.46955 144.133C3.44252 147.274 -3.17943 145.746 -6.32072 140.719C-9.46198 135.691 -7.93319 129.07 -2.90612 125.928Z" stroke="black" stroke-opacity="0.1"/>
      </g>
      <path d="M119.821 59.9106C119.821 26.8229 92.9984 0 59.9106 0C26.8229 0 0 26.8229 0 59.9106C0 92.9984 26.8229 119.821 59.9106 119.821C92.9984 119.821 119.821 92.9984 119.821 59.9106Z" fill="black" fill-opacity="0.1"/>
      <path d="M59.9111 0.5C92.7225 0.500264 119.321 27.0997 119.321 59.9111C119.321 92.7223 92.7223 119.321 59.9111 119.321C27.0997 119.321 0.500264 92.7225 0.5 59.9111C0.5 27.0995 27.0995 0.5 59.9111 0.5Z" stroke="black" stroke-opacity="0.1"/>
      <mask id="path-10-inside-1_3886_34302" fill="white">
        <path fill-rule="evenodd" clip-rule="evenodd" d="M57.9773 34.5369C65.8438 26.6705 77.9577 25.6398 86.937 31.4451C88.2907 32.3203 89.5732 33.3509 90.7593 34.5369L87.3022 37.9939L79.2771 46.019C82.8153 46.0451 86.3456 47.408 89.0452 50.1077C94.4973 55.5598 94.4973 64.3994 89.0452 69.8515C84.1782 74.7185 76.6119 75.2407 71.1656 71.4185C71.1142 77.2828 68.8514 83.1313 64.377 87.6057C56.5105 95.4722 44.3968 96.5028 35.4174 90.6974C34.0637 89.8222 32.7812 88.7916 31.5953 87.6057L35.0522 84.1488L45.4923 73.7087C41.1012 74.5483 36.385 73.2684 32.9857 69.8691C27.5336 64.417 27.5336 55.5774 32.9857 50.1253C37.9774 45.1336 45.8085 44.7121 51.2798 48.8608C51.7448 43.6349 53.9773 38.5369 57.9773 34.5369ZM61.4344 37.9939C67.3802 32.048 76.4013 31.0513 83.3781 35.0041L83.3655 35.0167L83.2945 35.0876L83.2234 35.1587L83.1521 35.2301L83.0805 35.3017L83.0087 35.3734L82.9367 35.4454L82.8644 35.5177L82.792 35.5901L82.7194 35.6629L82.6464 35.7357L82.5733 35.8088L82.5 35.8821L82.4265 35.9556L82.3528 36.0294L82.2789 36.1032L82.2048 36.1774L82.1305 36.2517L82.0559 36.3263L81.9811 36.401L81.9063 36.4759L81.8312 36.5509L81.7559 36.6262L81.6803 36.7017L81.6047 36.7774L81.5288 36.8533L81.4528 36.9293L81.3766 37.0056L81.3001 37.082L81.2236 37.1586L81.1468 37.2354L81.0699 37.3122L80.9927 37.3894L80.9155 37.4667L80.838 37.5442L80.7604 37.6218L80.6825 37.6996L80.6046 37.7775L80.5265 37.8558L80.4481 37.934L80.3696 38.0125L80.2911 38.091L80.2123 38.1699L80.1334 38.2488L80.0543 38.3279L79.9751 38.4071L79.8957 38.4864L79.8161 38.566L79.7364 38.6457L79.6566 38.7255L79.5767 38.8054L79.4966 38.8856L79.4163 38.9658L79.3359 39.0462L79.2553 39.1268L79.1747 39.2074L79.0939 39.2882L79.013 39.3691L78.9319 39.4502L78.8508 39.5314L78.7695 39.6127L78.688 39.6941L78.6065 39.7756L78.5248 39.8574L78.4429 39.9392L78.361 40.0211L78.279 40.1031L78.1969 40.1853L78.1146 40.2676L78.0323 40.35L77.9498 40.4323L77.8671 40.515L77.7845 40.5977L77.7017 40.6804L77.6188 40.7633L77.5358 40.8464L77.4527 40.9294L77.3694 41.0126L77.2862 41.096L77.2029 41.1794L77.1194 41.2628L77.0358 41.3464L76.9521 41.43L76.8683 41.5138L76.7845 41.5976L76.7006 41.6816L76.6166 41.7655L76.5326 41.8496L76.4484 41.9337L76.3642 42.018L76.2798 42.1023L76.1955 42.1867L76.1111 42.2712L76.0265 42.3556L75.9419 42.4402L75.8572 42.5249L75.7725 42.6096L75.6878 42.6944L75.6028 42.7792L75.518 42.8642L75.4331 42.9491L75.348 43.0341L75.263 43.1193L75.1778 43.2043L75.0927 43.2895L75.0074 43.3747L74.9222 43.46L74.8369 43.5453L74.7515 43.6306L74.666 43.7161L74.5806 43.8015L74.4952 43.8871L74.4096 43.9725L74.324 44.0581L74.2385 44.1437L74.1528 44.2293L74.0671 44.315L73.9814 44.4006L73.8958 44.4863L73.8101 44.5721L73.7243 44.6578L73.6385 44.7436L73.5527 44.8294L73.4669 44.9152L73.3811 45.0011L73.2952 45.0869L73.2094 45.1727L73.1235 45.2586L73.0376 45.3446L72.9517 45.4305L72.8658 45.5163L72.7799 45.6022L72.694 45.6881L72.6082 45.7741L72.5222 45.86L72.4363 45.9459L72.3504 46.0317L72.2645 46.1176L72.1787 46.2035L72.0928 46.2893L72.0068 46.3753L71.921 46.4611L71.8352 46.547L71.7494 46.6328L71.6636 46.7186L71.5778 46.8044L71.492 46.8902L71.4062 46.9759L71.3205 47.0615L71.2349 47.1472L71.1492 47.2329L71.0635 47.3186L70.978 47.4041L70.8924 47.4897L70.8069 47.5752L70.7214 47.6608L70.6359 47.7462L70.5506 47.8317L70.4651 47.917L70.3798 48.0024L70.2945 48.0876L70.2093 48.1729L70.1241 48.2581L70.0389 48.3432L69.9539 48.4284L69.8688 48.5133L69.7839 48.5984L69.6989 48.6832L69.6141 48.7681L69.5293 48.853L69.4446 48.9377L69.3599 49.0224L69.2752 49.1069L69.1907 49.1915L69.1063 49.276L69.0218 49.3603L68.9375 49.4446L68.8532 49.529L68.769 49.6132L68.685 49.6973L68.6009 49.7812L68.517 49.8652L68.433 49.949L68.3493 50.0328L68.2656 50.1165L68.182 50.2001L68.0985 50.2836L68.0152 50.367L67.9318 50.4504L67.8486 50.5336L67.7655 50.6167L67.6824 50.6997L67.5995 50.7827L67.5166 50.8655L67.4339 50.9482L67.3513 51.0308L67.2688 51.1133L67.1864 51.1958L67.1041 51.2781L67.0219 51.3602L66.9399 51.4424L66.8578 51.5242L66.776 51.6061L66.6943 51.6879L66.6127 51.7694L66.5313 51.8509L66.4499 51.9322L66.3686 52.0135L66.2876 52.0947L66.2065 52.1756L66.1257 52.2564L66.0451 52.3371L65.9645 52.4177L65.884 52.4981L65.8038 52.5784L65.7236 52.6586L65.6436 52.7385L65.5638 52.8185L65.484 52.8981L65.4044 52.9777L65.3249 53.0572L65.2457 53.1365L65.1665 53.2156L65.0876 53.2946L65.0088 53.3733L64.93 53.4521L64.8516 53.5305L64.7732 53.6089L64.695 53.6871L64.617 53.7651L64.5392 53.8429L64.4614 53.9207L64.3839 53.9981L64.3066 54.0755L64.2295 54.1528L64.1525 54.2298L64.0756 54.3065L63.999 54.3831L63.9224 54.4597L63.8462 54.5359L63.7701 54.6121L63.6941 54.688L63.6185 54.7637L63.5429 54.8393L63.4675 54.9146L63.3924 54.9897L63.3174 55.0648L63.2426 55.1396L63.1681 55.2141L63.0937 55.2886L63.0195 55.3628L62.9455 55.4367L62.8717 55.5105L62.7981 55.5841L62.7248 55.6574L62.6516 55.7305L62.5786 55.8035L62.5059 55.8762L62.4334 55.9488L62.3611 56.0212L62.2889 56.0932L62.2171 56.165L62.1454 56.2368L62.074 56.3081L62.0028 56.3794L61.9318 56.4504L61.861 56.5212L61.7905 56.5917L61.7202 56.662L61.6501 56.732L61.5803 56.8018L61.5107 56.8715L61.4413 56.9408L61.3723 57.0099L61.3033 57.0788L61.2348 57.1474L61.1663 57.2158L61.0982 57.284L61.0303 57.3518L60.9627 57.4195L60.8952 57.4869L60.8281 57.5541L60.7612 57.6209L60.6945 57.6875L60.6282 57.7539L60.5621 57.82L60.4963 57.8859L60.4307 57.9515L60.3653 58.0168L60.3003 58.0818L60.2355 58.1466L60.171 58.2111L60.1068 58.2754L60.0427 58.3394L59.9791 58.4032L59.9156 58.4665L59.8524 58.5297L59.7896 58.5925L59.727 58.6551L59.6647 58.7174L59.6027 58.7794L59.541 58.8411L59.4795 58.9026L59.4184 58.9637L59.3576 59.0245L59.2971 59.0852L59.2368 59.1454L59.1768 59.2053L59.1171 59.2649L59.0578 59.3243L58.9987 59.3834L58.9399 59.4422L58.8815 59.5006L58.8233 59.5588L58.7655 59.6166L58.7081 59.6741L58.6509 59.7313L58.5939 59.7882L58.5373 59.8448L58.4811 59.9011L58.4444 59.9377C54.4918 52.9608 55.4884 43.9399 61.4344 37.9939ZM60.9201 84.1488C66.866 78.2028 67.8626 69.1817 63.91 62.2049L63.8974 62.2176L63.8265 62.2885L63.7554 62.3596L63.684 62.431L63.6124 62.5025L63.5405 62.5744L63.4685 62.6463L63.3963 62.7186L63.3238 62.7911L63.2512 62.8638L63.1782 62.9366L63.1051 63.0097L63.0319 63.083L62.9583 63.1565L62.8847 63.2302L62.8107 63.3041L62.7366 63.3783L62.6623 63.4526L62.5878 63.5271L62.5131 63.6019L62.4382 63.6768L62.363 63.7518L62.2877 63.8271L62.2122 63.9027L62.1365 63.9783L62.0607 64.0542L61.9846 64.1302L61.9085 64.2065L61.832 64.2829L61.7554 64.3595L61.6787 64.4363L61.6017 64.5132L61.5246 64.5903L61.4473 64.6677L61.3698 64.745L61.2922 64.8228L61.2144 64.9005L61.1364 64.9785L61.0583 65.0566L60.9799 65.1349L60.9016 65.2134L60.8229 65.292L60.7442 65.3708L60.6652 65.4496L60.5861 65.5287L60.5069 65.608L60.4275 65.6874L60.3479 65.7669L60.2684 65.8466L60.1884 65.9264L60.1085 66.0064L60.0284 66.0865L59.9481 66.1667L59.8677 66.2471L59.7873 66.3277L59.7066 66.4083L59.6258 66.4891L59.5448 66.57L59.4638 66.6511L59.3826 66.7322L59.3013 66.8136L59.2198 66.895L59.1383 66.9766L59.0567 67.0582L58.9749 67.1401L58.8929 67.222L58.8109 67.304L58.7287 67.3861L58.6465 67.4684L58.5641 67.5508L58.4816 67.6333L58.399 67.7159L58.3164 67.7985L58.2335 67.8814L58.1506 67.9642L58.0676 68.0472L57.9845 68.1303L57.9013 68.2136L57.818 68.2968L57.7347 68.3803L57.6512 68.4638L57.5676 68.5472L57.4839 68.631L57.4002 68.7147L57.3163 68.7985L57.2325 68.8825L57.1484 68.9665L57.0644 69.0505L56.9802 69.1346L56.896 69.2188L56.8117 69.3032L56.7273 69.3876L56.6429 69.4721L56.5583 69.5565L56.4737 69.6411L56.3892 69.7258L56.3043 69.8105L56.2196 69.8953L56.1347 69.9802L56.0499 70.065L55.9649 70.1501L55.8798 70.235L55.7948 70.3201L55.7097 70.4053L55.6245 70.4904L55.5392 70.5756L55.454 70.6609L55.3687 70.7463L55.2833 70.8316L55.1978 70.917L55.1124 71.0024L55.027 71.0879L54.9414 71.1734L54.8559 71.259L54.7703 71.3445L54.6846 71.4302L54.5991 71.5159L54.5134 71.6016L54.4276 71.6872L54.3419 71.7729L54.2561 71.8587L54.1703 71.9445L54.0845 72.0303L53.9987 72.1161L53.9129 72.2019L53.8271 72.2878L53.7412 72.3736L53.6553 72.4596L53.5695 72.5454L53.4836 72.6313L53.3976 72.7172L53.3117 72.8031L53.2259 72.8891L53.14 72.975L53.0541 73.0608L52.9682 73.1467L52.8822 73.2326L52.7963 73.3185L52.7105 73.4045L52.6246 73.4903L52.5388 73.5762L52.4529 73.662L52.3671 73.7478L52.2813 73.8337L52.1955 73.9195L52.1097 74.0053L52.0239 74.091L51.9381 74.1768L51.8524 74.2625L51.7667 74.3481L51.681 74.4338L51.5955 74.5195L51.5098 74.6051L51.4242 74.6906L51.3387 74.7762L51.2533 74.8617L51.1678 74.9472L51.0824 75.0326L50.997 75.1179L50.9116 75.2032L50.8263 75.2885L50.7411 75.3738L50.656 75.459L50.5708 75.5441L50.4857 75.6292L50.4006 75.7142L50.3157 75.7992L50.2307 75.8841L50.1459 75.9691L50.0611 76.0538L49.9764 76.1386L49.8917 76.2233L49.8071 76.3079L49.7225 76.3924L49.6381 76.4769L49.5536 76.5612L49.4693 76.6456L49.3851 76.7299L49.3009 76.814L49.2168 76.8981L49.1327 76.9822L49.0489 77.0661L48.965 77.15L48.8812 77.2337L48.7974 77.3174L48.7138 77.401L48.6304 77.4845L48.547 77.568L48.4636 77.6512L48.3804 77.7344L48.2973 77.8177L48.2142 77.9007L48.1313 77.9835L48.0485 78.0664L47.9657 78.1491L47.8831 78.2318L47.8006 78.3143L47.7182 78.3966L47.636 78.479L47.5537 78.5611L47.4717 78.6433L47.3897 78.7252L47.3079 78.8071L47.2261 78.8887L47.1445 78.9703L47.0631 79.0519L46.9817 79.1331L46.9005 79.2144L46.8194 79.2955L46.7385 79.3765L46.6576 79.4573L46.5769 79.5379L46.4964 79.6186L46.4159 79.699L46.3356 79.7793L46.2555 79.8595L46.1754 79.9394L46.0956 80.0194L46.0158 80.0991L45.9362 80.1786L45.8568 80.2581L45.7776 80.3374L45.6984 80.4165L45.6194 80.4954L45.5406 80.5743L45.462 80.653L45.3834 80.7314L45.3051 80.8098L45.2268 80.888L45.1489 80.966L45.071 81.0438L44.9933 81.1216L44.9158 81.1991L44.8384 81.2764L44.7613 81.3536L44.6843 81.4306L44.6074 81.5074L44.5308 81.5841L44.4544 81.6606L44.378 81.7368L44.302 81.813L44.226 81.8889L44.1503 81.9645L44.0748 82.0402L43.9994 82.1155L43.9242 82.1907L43.8493 82.2657L43.7745 82.3404L43.6999 82.4151L43.6255 82.4894L43.5513 82.5636L43.4773 82.6376L43.4035 82.7113L43.33 82.7849L43.2566 82.8584L43.1834 82.9314L43.1104 83.0044L43.0377 83.0771L42.9652 83.1497L42.8929 83.222L42.8208 83.2941L42.7489 83.3659L42.6773 83.4376L42.6058 83.5091L42.5347 83.5803L42.4636 83.6512L42.3929 83.722L42.3223 83.7925L42.2521 83.8628L42.182 83.9329L42.1121 84.0027L42.0426 84.0724L41.9732 84.1417L41.9041 84.2107L41.8352 84.2797L41.7666 84.3484L41.6982 84.4167L41.6301 84.4849L41.5621 84.5527L41.4945 84.6204L41.4271 84.6878L41.36 84.7549L41.2931 84.8219L41.2264 84.8885L41.16 84.9548L41.0939 85.021L41.0281 85.0868L40.9625 85.1523L40.8972 85.2177L40.8321 85.2828L40.7673 85.3475L40.7028 85.4121L40.6386 85.4764L40.5746 85.5403L40.5109 85.604L40.4475 85.6674L40.3843 85.7306L40.3214 85.7934L40.2589 85.856L40.1965 85.9183L40.1346 85.9803L40.0729 86.042L40.0114 86.1035L39.9503 86.1646L39.8894 86.2255L39.8289 86.286L39.7686 86.3462L39.7086 86.4062L39.649 86.4659L39.5896 86.5253L39.5306 86.5843L39.4718 86.6431L39.4133 86.7015L39.3552 86.7597L39.2974 86.8175L39.2399 86.8751L39.1827 86.9323L39.1258 86.9891L39.0692 87.0457L39.0129 87.1019L38.9763 87.1386C45.9531 91.0912 54.9742 90.0946 60.9201 84.1488ZM72.7584 66.3945C76.3012 69.9374 82.0453 69.9374 85.5882 66.3945C89.1311 62.8517 89.1311 57.1075 85.5882 53.5646C82.0453 50.0218 76.3012 50.0218 72.7584 53.5646C69.2155 57.1075 69.2155 62.8517 72.7584 66.3945ZM49.2724 66.4121C45.7295 69.955 39.9855 69.955 36.4426 66.4121C32.8998 62.8693 32.8998 57.1252 36.4426 53.5823C39.9855 50.0394 45.7295 50.0394 49.2724 53.5823C52.8154 57.1252 52.8154 62.8693 49.2724 66.4121Z"/>
      </mask>
      <path fill-rule="evenodd" clip-rule="evenodd" d="M57.9773 34.5369C65.8438 26.6705 77.9577 25.6398 86.937 31.4451C88.2907 32.3203 89.5732 33.3509 90.7593 34.5369L87.3022 37.9939L79.2771 46.019C82.8153 46.0451 86.3456 47.408 89.0452 50.1077C94.4973 55.5598 94.4973 64.3994 89.0452 69.8515C84.1782 74.7185 76.6119 75.2407 71.1656 71.4185C71.1142 77.2828 68.8514 83.1313 64.377 87.6057C56.5105 95.4722 44.3968 96.5028 35.4174 90.6974C34.0637 89.8222 32.7812 88.7916 31.5953 87.6057L35.0522 84.1488L45.4923 73.7087C41.1012 74.5483 36.385 73.2684 32.9857 69.8691C27.5336 64.417 27.5336 55.5774 32.9857 50.1253C37.9774 45.1336 45.8085 44.7121 51.2798 48.8608C51.7448 43.6349 53.9773 38.5369 57.9773 34.5369ZM61.4344 37.9939C67.3802 32.048 76.4013 31.0513 83.3781 35.0041L83.3655 35.0167L83.2945 35.0876L83.2234 35.1587L83.1521 35.2301L83.0805 35.3017L83.0087 35.3734L82.9367 35.4454L82.8644 35.5177L82.792 35.5901L82.7194 35.6629L82.6464 35.7357L82.5733 35.8088L82.5 35.8821L82.4265 35.9556L82.3528 36.0294L82.2789 36.1032L82.2048 36.1774L82.1305 36.2517L82.0559 36.3263L81.9811 36.401L81.9063 36.4759L81.8312 36.5509L81.7559 36.6262L81.6803 36.7017L81.6047 36.7774L81.5288 36.8533L81.4528 36.9293L81.3766 37.0056L81.3001 37.082L81.2236 37.1586L81.1468 37.2354L81.0699 37.3122L80.9927 37.3894L80.9155 37.4667L80.838 37.5442L80.7604 37.6218L80.6825 37.6996L80.6046 37.7775L80.5265 37.8558L80.4481 37.934L80.3696 38.0125L80.2911 38.091L80.2123 38.1699L80.1334 38.2488L80.0543 38.3279L79.9751 38.4071L79.8957 38.4864L79.8161 38.566L79.7364 38.6457L79.6566 38.7255L79.5767 38.8054L79.4966 38.8856L79.4163 38.9658L79.3359 39.0462L79.2553 39.1268L79.1747 39.2074L79.0939 39.2882L79.013 39.3691L78.9319 39.4502L78.8508 39.5314L78.7695 39.6127L78.688 39.6941L78.6065 39.7756L78.5248 39.8574L78.4429 39.9392L78.361 40.0211L78.279 40.1031L78.1969 40.1853L78.1146 40.2676L78.0323 40.35L77.9498 40.4323L77.8671 40.515L77.7845 40.5977L77.7017 40.6804L77.6188 40.7633L77.5358 40.8464L77.4527 40.9294L77.3694 41.0126L77.2862 41.096L77.2029 41.1794L77.1194 41.2628L77.0358 41.3464L76.9521 41.43L76.8683 41.5138L76.7845 41.5976L76.7006 41.6816L76.6166 41.7655L76.5326 41.8496L76.4484 41.9337L76.3642 42.018L76.2798 42.1023L76.1955 42.1867L76.1111 42.2712L76.0265 42.3556L75.9419 42.4402L75.8572 42.5249L75.7725 42.6096L75.6878 42.6944L75.6028 42.7792L75.518 42.8642L75.4331 42.9491L75.348 43.0341L75.263 43.1193L75.1778 43.2043L75.0927 43.2895L75.0074 43.3747L74.9222 43.46L74.8369 43.5453L74.7515 43.6306L74.666 43.7161L74.5806 43.8015L74.4952 43.8871L74.4096 43.9725L74.324 44.0581L74.2385 44.1437L74.1528 44.2293L74.0671 44.315L73.9814 44.4006L73.8958 44.4863L73.8101 44.5721L73.7243 44.6578L73.6385 44.7436L73.5527 44.8294L73.4669 44.9152L73.3811 45.0011L73.2952 45.0869L73.2094 45.1727L73.1235 45.2586L73.0376 45.3446L72.9517 45.4305L72.8658 45.5163L72.7799 45.6022L72.694 45.6881L72.6082 45.7741L72.5222 45.86L72.4363 45.9459L72.3504 46.0317L72.2645 46.1176L72.1787 46.2035L72.0928 46.2893L72.0068 46.3753L71.921 46.4611L71.8352 46.547L71.7494 46.6328L71.6636 46.7186L71.5778 46.8044L71.492 46.8902L71.4062 46.9759L71.3205 47.0615L71.2349 47.1472L71.1492 47.2329L71.0635 47.3186L70.978 47.4041L70.8924 47.4897L70.8069 47.5752L70.7214 47.6608L70.6359 47.7462L70.5506 47.8317L70.4651 47.917L70.3798 48.0024L70.2945 48.0876L70.2093 48.1729L70.1241 48.2581L70.0389 48.3432L69.9539 48.4284L69.8688 48.5133L69.7839 48.5984L69.6989 48.6832L69.6141 48.7681L69.5293 48.853L69.4446 48.9377L69.3599 49.0224L69.2752 49.1069L69.1907 49.1915L69.1063 49.276L69.0218 49.3603L68.9375 49.4446L68.8532 49.529L68.769 49.6132L68.685 49.6973L68.6009 49.7812L68.517 49.8652L68.433 49.949L68.3493 50.0328L68.2656 50.1165L68.182 50.2001L68.0985 50.2836L68.0152 50.367L67.9318 50.4504L67.8486 50.5336L67.7655 50.6167L67.6824 50.6997L67.5995 50.7827L67.5166 50.8655L67.4339 50.9482L67.3513 51.0308L67.2688 51.1133L67.1864 51.1958L67.1041 51.2781L67.0219 51.3602L66.9399 51.4424L66.8578 51.5242L66.776 51.6061L66.6943 51.6879L66.6127 51.7694L66.5313 51.8509L66.4499 51.9322L66.3686 52.0135L66.2876 52.0947L66.2065 52.1756L66.1257 52.2564L66.0451 52.3371L65.9645 52.4177L65.884 52.4981L65.8038 52.5784L65.7236 52.6586L65.6436 52.7385L65.5638 52.8185L65.484 52.8981L65.4044 52.9777L65.3249 53.0572L65.2457 53.1365L65.1665 53.2156L65.0876 53.2946L65.0088 53.3733L64.93 53.4521L64.8516 53.5305L64.7732 53.6089L64.695 53.6871L64.617 53.7651L64.5392 53.8429L64.4614 53.9207L64.3839 53.9981L64.3066 54.0755L64.2295 54.1528L64.1525 54.2298L64.0756 54.3065L63.999 54.3831L63.9224 54.4597L63.8462 54.5359L63.7701 54.6121L63.6941 54.688L63.6185 54.7637L63.5429 54.8393L63.4675 54.9146L63.3924 54.9897L63.3174 55.0648L63.2426 55.1396L63.1681 55.2141L63.0937 55.2886L63.0195 55.3628L62.9455 55.4367L62.8717 55.5105L62.7981 55.5841L62.7248 55.6574L62.6516 55.7305L62.5786 55.8035L62.5059 55.8762L62.4334 55.9488L62.3611 56.0212L62.2889 56.0932L62.2171 56.165L62.1454 56.2368L62.074 56.3081L62.0028 56.3794L61.9318 56.4504L61.861 56.5212L61.7905 56.5917L61.7202 56.662L61.6501 56.732L61.5803 56.8018L61.5107 56.8715L61.4413 56.9408L61.3723 57.0099L61.3033 57.0788L61.2348 57.1474L61.1663 57.2158L61.0982 57.284L61.0303 57.3518L60.9627 57.4195L60.8952 57.4869L60.8281 57.5541L60.7612 57.6209L60.6945 57.6875L60.6282 57.7539L60.5621 57.82L60.4963 57.8859L60.4307 57.9515L60.3653 58.0168L60.3003 58.0818L60.2355 58.1466L60.171 58.2111L60.1068 58.2754L60.0427 58.3394L59.9791 58.4032L59.9156 58.4665L59.8524 58.5297L59.7896 58.5925L59.727 58.6551L59.6647 58.7174L59.6027 58.7794L59.541 58.8411L59.4795 58.9026L59.4184 58.9637L59.3576 59.0245L59.2971 59.0852L59.2368 59.1454L59.1768 59.2053L59.1171 59.2649L59.0578 59.3243L58.9987 59.3834L58.9399 59.4422L58.8815 59.5006L58.8233 59.5588L58.7655 59.6166L58.7081 59.6741L58.6509 59.7313L58.5939 59.7882L58.5373 59.8448L58.4811 59.9011L58.4444 59.9377C54.4918 52.9608 55.4884 43.9399 61.4344 37.9939ZM60.9201 84.1488C66.866 78.2028 67.8626 69.1817 63.91 62.2049L63.8974 62.2176L63.8265 62.2885L63.7554 62.3596L63.684 62.431L63.6124 62.5025L63.5405 62.5744L63.4685 62.6463L63.3963 62.7186L63.3238 62.7911L63.2512 62.8638L63.1782 62.9366L63.1051 63.0097L63.0319 63.083L62.9583 63.1565L62.8847 63.2302L62.8107 63.3041L62.7366 63.3783L62.6623 63.4526L62.5878 63.5271L62.5131 63.6019L62.4382 63.6768L62.363 63.7518L62.2877 63.8271L62.2122 63.9027L62.1365 63.9783L62.0607 64.0542L61.9846 64.1302L61.9085 64.2065L61.832 64.2829L61.7554 64.3595L61.6787 64.4363L61.6017 64.5132L61.5246 64.5903L61.4473 64.6677L61.3698 64.745L61.2922 64.8228L61.2144 64.9005L61.1364 64.9785L61.0583 65.0566L60.9799 65.1349L60.9016 65.2134L60.8229 65.292L60.7442 65.3708L60.6652 65.4496L60.5861 65.5287L60.5069 65.608L60.4275 65.6874L60.3479 65.7669L60.2684 65.8466L60.1884 65.9264L60.1085 66.0064L60.0284 66.0865L59.9481 66.1667L59.8677 66.2471L59.7873 66.3277L59.7066 66.4083L59.6258 66.4891L59.5448 66.57L59.4638 66.6511L59.3826 66.7322L59.3013 66.8136L59.2198 66.895L59.1383 66.9766L59.0567 67.0582L58.9749 67.1401L58.8929 67.222L58.8109 67.304L58.7287 67.3861L58.6465 67.4684L58.5641 67.5508L58.4816 67.6333L58.399 67.7159L58.3164 67.7985L58.2335 67.8814L58.1506 67.9642L58.0676 68.0472L57.9845 68.1303L57.9013 68.2136L57.818 68.2968L57.7347 68.3803L57.6512 68.4638L57.5676 68.5472L57.4839 68.631L57.4002 68.7147L57.3163 68.7985L57.2325 68.8825L57.1484 68.9665L57.0644 69.0505L56.9802 69.1346L56.896 69.2188L56.8117 69.3032L56.7273 69.3876L56.6429 69.4721L56.5583 69.5565L56.4737 69.6411L56.3892 69.7258L56.3043 69.8105L56.2196 69.8953L56.1347 69.9802L56.0499 70.065L55.9649 70.1501L55.8798 70.235L55.7948 70.3201L55.7097 70.4053L55.6245 70.4904L55.5392 70.5756L55.454 70.6609L55.3687 70.7463L55.2833 70.8316L55.1978 70.917L55.1124 71.0024L55.027 71.0879L54.9414 71.1734L54.8559 71.259L54.7703 71.3445L54.6846 71.4302L54.5991 71.5159L54.5134 71.6016L54.4276 71.6872L54.3419 71.7729L54.2561 71.8587L54.1703 71.9445L54.0845 72.0303L53.9987 72.1161L53.9129 72.2019L53.8271 72.2878L53.7412 72.3736L53.6553 72.4596L53.5695 72.5454L53.4836 72.6313L53.3976 72.7172L53.3117 72.8031L53.2259 72.8891L53.14 72.975L53.0541 73.0608L52.9682 73.1467L52.8822 73.2326L52.7963 73.3185L52.7105 73.4045L52.6246 73.4903L52.5388 73.5762L52.4529 73.662L52.3671 73.7478L52.2813 73.8337L52.1955 73.9195L52.1097 74.0053L52.0239 74.091L51.9381 74.1768L51.8524 74.2625L51.7667 74.3481L51.681 74.4338L51.5955 74.5195L51.5098 74.6051L51.4242 74.6906L51.3387 74.7762L51.2533 74.8617L51.1678 74.9472L51.0824 75.0326L50.997 75.1179L50.9116 75.2032L50.8263 75.2885L50.7411 75.3738L50.656 75.459L50.5708 75.5441L50.4857 75.6292L50.4006 75.7142L50.3157 75.7992L50.2307 75.8841L50.1459 75.9691L50.0611 76.0538L49.9764 76.1386L49.8917 76.2233L49.8071 76.3079L49.7225 76.3924L49.6381 76.4769L49.5536 76.5612L49.4693 76.6456L49.3851 76.7299L49.3009 76.814L49.2168 76.8981L49.1327 76.9822L49.0489 77.0661L48.965 77.15L48.8812 77.2337L48.7974 77.3174L48.7138 77.401L48.6304 77.4845L48.547 77.568L48.4636 77.6512L48.3804 77.7344L48.2973 77.8177L48.2142 77.9007L48.1313 77.9835L48.0485 78.0664L47.9657 78.1491L47.8831 78.2318L47.8006 78.3143L47.7182 78.3966L47.636 78.479L47.5537 78.5611L47.4717 78.6433L47.3897 78.7252L47.3079 78.8071L47.2261 78.8887L47.1445 78.9703L47.0631 79.0519L46.9817 79.1331L46.9005 79.2144L46.8194 79.2955L46.7385 79.3765L46.6576 79.4573L46.5769 79.5379L46.4964 79.6186L46.4159 79.699L46.3356 79.7793L46.2555 79.8595L46.1754 79.9394L46.0956 80.0194L46.0158 80.0991L45.9362 80.1786L45.8568 80.2581L45.7776 80.3374L45.6984 80.4165L45.6194 80.4954L45.5406 80.5743L45.462 80.653L45.3834 80.7314L45.3051 80.8098L45.2268 80.888L45.1489 80.966L45.071 81.0438L44.9933 81.1216L44.9158 81.1991L44.8384 81.2764L44.7613 81.3536L44.6843 81.4306L44.6074 81.5074L44.5308 81.5841L44.4544 81.6606L44.378 81.7368L44.302 81.813L44.226 81.8889L44.1503 81.9645L44.0748 82.0402L43.9994 82.1155L43.9242 82.1907L43.8493 82.2657L43.7745 82.3404L43.6999 82.4151L43.6255 82.4894L43.5513 82.5636L43.4773 82.6376L43.4035 82.7113L43.33 82.7849L43.2566 82.8584L43.1834 82.9314L43.1104 83.0044L43.0377 83.0771L42.9652 83.1497L42.8929 83.222L42.8208 83.2941L42.7489 83.3659L42.6773 83.4376L42.6058 83.5091L42.5347 83.5803L42.4636 83.6512L42.3929 83.722L42.3223 83.7925L42.2521 83.8628L42.182 83.9329L42.1121 84.0027L42.0426 84.0724L41.9732 84.1417L41.9041 84.2107L41.8352 84.2797L41.7666 84.3484L41.6982 84.4167L41.6301 84.4849L41.5621 84.5527L41.4945 84.6204L41.4271 84.6878L41.36 84.7549L41.2931 84.8219L41.2264 84.8885L41.16 84.9548L41.0939 85.021L41.0281 85.0868L40.9625 85.1523L40.8972 85.2177L40.8321 85.2828L40.7673 85.3475L40.7028 85.4121L40.6386 85.4764L40.5746 85.5403L40.5109 85.604L40.4475 85.6674L40.3843 85.7306L40.3214 85.7934L40.2589 85.856L40.1965 85.9183L40.1346 85.9803L40.0729 86.042L40.0114 86.1035L39.9503 86.1646L39.8894 86.2255L39.8289 86.286L39.7686 86.3462L39.7086 86.4062L39.649 86.4659L39.5896 86.5253L39.5306 86.5843L39.4718 86.6431L39.4133 86.7015L39.3552 86.7597L39.2974 86.8175L39.2399 86.8751L39.1827 86.9323L39.1258 86.9891L39.0692 87.0457L39.0129 87.1019L38.9763 87.1386C45.9531 91.0912 54.9742 90.0946 60.9201 84.1488ZM72.7584 66.3945C76.3012 69.9374 82.0453 69.9374 85.5882 66.3945C89.1311 62.8517 89.1311 57.1075 85.5882 53.5646C82.0453 50.0218 76.3012 50.0218 72.7584 53.5646C69.2155 57.1075 69.2155 62.8517 72.7584 66.3945ZM49.2724 66.4121C45.7295 69.955 39.9855 69.955 36.4426 66.4121C32.8998 62.8693 32.8998 57.1252 36.4426 53.5823C39.9855 50.0394 45.7295 50.0394 49.2724 53.5823C52.8154 57.1252 52.8154 62.8693 49.2724 66.4121Z" fill="black" fill-opacity="0.1" stroke="black" stroke-opacity="0.1" stroke-width="2" mask="url(#path-10-inside-1_3886_34302)"/>
    </g>
  </g>
</svg>