<svg xmlns="http://www.w3.org/2000/svg" width="141" height="119" viewBox="0 0 141 119" fill="none">
  <g opacity="0.2">
    <mask id="path-1-inside-1_3886_34647" fill="white">
      <path d="M84.958 89.0771H112.971V118.814H84.7246V119H28.7832V89.3076H56.7539V59.6152H56.9434V59.3398H84.958V89.0771ZM56.7539 29.9229H28.7832V59.6152H0.811523V0.231445H56.7539V29.9229ZM140.667 59.6152H112.695V29.9229H84.7246V0.231445H140.667V59.6152Z"/>
    </mask>
    <path d="M84.958 89.0771H112.971V118.814H84.7246V119H28.7832V89.3076H56.7539V59.6152H56.9434V59.3398H84.958V89.0771ZM56.7539 29.9229H28.7832V59.6152H0.811523V0.231445H56.7539V29.9229ZM140.667 59.6152H112.695V29.9229H84.7246V0.231445H140.667V59.6152Z" fill="black" fill-opacity="0.1"/>
    <path d="M84.958 89.0771H83.958V90.0771H84.958V89.0771ZM112.971 89.0771H113.971V88.0771H112.971V89.0771ZM112.971 118.814V119.814H113.971V118.814H112.971ZM84.7246 118.814V117.814H83.7246V118.814H84.7246ZM84.7246 119V120H85.7246V119H84.7246ZM28.7832 119H27.7832V120H28.7832V119ZM28.7832 89.3076V88.3076H27.7832V89.3076H28.7832ZM56.7539 89.3076V90.3076H57.7539V89.3076H56.7539ZM56.7539 59.6152V58.6152H55.7539V59.6152H56.7539ZM56.9434 59.6152V60.6152H57.9434V59.6152H56.9434ZM56.9434 59.3398V58.3398H55.9434V59.3398H56.9434ZM84.958 59.3398H85.958V58.3398H84.958V59.3398ZM56.7539 29.9229V30.9229H57.7539V29.9229H56.7539ZM28.7832 29.9229V28.9229H27.7832V29.9229H28.7832ZM28.7832 59.6152V60.6152H29.7832V59.6152H28.7832ZM0.811523 59.6152H-0.188477V60.6152H0.811523V59.6152ZM0.811523 0.231445V-0.768555H-0.188477V0.231445H0.811523ZM56.7539 0.231445H57.7539V-0.768555H56.7539V0.231445ZM140.667 59.6152V60.6152H141.667V59.6152H140.667ZM112.695 59.6152H111.695V60.6152H112.695V59.6152ZM112.695 29.9229H113.695V28.9229H112.695V29.9229ZM84.7246 29.9229H83.7246V30.9229H84.7246V29.9229ZM84.7246 0.231445V-0.768555H83.7246V0.231445H84.7246ZM140.667 0.231445H141.667V-0.768555H140.667V0.231445ZM84.958 89.0771V90.0771H112.971V89.0771V88.0771H84.958V89.0771ZM112.971 89.0771H111.971V118.814H112.971H113.971V89.0771H112.971ZM112.971 118.814V117.814H84.7246V118.814V119.814H112.971V118.814ZM84.7246 118.814H83.7246V119H84.7246H85.7246V118.814H84.7246ZM84.7246 119V118H28.7832V119V120H84.7246V119ZM28.7832 119H29.7832V89.3076H28.7832H27.7832V119H28.7832ZM28.7832 89.3076V90.3076H56.7539V89.3076V88.3076H28.7832V89.3076ZM56.7539 89.3076H57.7539V59.6152H56.7539H55.7539V89.3076H56.7539ZM56.7539 59.6152V60.6152H56.9434V59.6152V58.6152H56.7539V59.6152ZM56.9434 59.6152H57.9434V59.3398H56.9434H55.9434V59.6152H56.9434ZM56.9434 59.3398V60.3398H84.958V59.3398V58.3398H56.9434V59.3398ZM84.958 59.3398H83.958V89.0771H84.958H85.958V59.3398H84.958ZM56.7539 29.9229V28.9229H28.7832V29.9229V30.9229H56.7539V29.9229ZM28.7832 29.9229H27.7832V59.6152H28.7832H29.7832V29.9229H28.7832ZM28.7832 59.6152V58.6152H0.811523V59.6152V60.6152H28.7832V59.6152ZM0.811523 59.6152H1.81152V0.231445H0.811523H-0.188477V59.6152H0.811523ZM0.811523 0.231445V1.23145H56.7539V0.231445V-0.768555H0.811523V0.231445ZM56.7539 0.231445H55.7539V29.9229H56.7539H57.7539V0.231445H56.7539ZM140.667 59.6152V58.6152H112.695V59.6152V60.6152H140.667V59.6152ZM112.695 59.6152H113.695V29.9229H112.695H111.695V59.6152H112.695ZM112.695 29.9229V28.9229H84.7246V29.9229V30.9229H112.695V29.9229ZM84.7246 29.9229H85.7246V0.231445H84.7246H83.7246V29.9229H84.7246ZM84.7246 0.231445V1.23145H140.667V0.231445V-0.768555H84.7246V0.231445ZM140.667 0.231445H139.667V59.6152H140.667H141.667V0.231445H140.667Z" fill="black" fill-opacity="0.1" mask="url(#path-1-inside-1_3886_34647)"/>
  </g>
</svg>