<svg xmlns="http://www.w3.org/2000/svg" width="72" height="124" viewBox="0 0 72 124" fill="none">
  <g opacity="0.2">
    <path d="M5.81846 83.6451V45.5583V45.3438H15.0847V65.5673L23.292 60.2029V45.3438H35.2057V69.4832H22.0741L35.2057 89.5995V122L23.4508 106.926L15.0847 82.0358V95.232L5.81846 83.6451Z" fill="black" fill-opacity="0.1"/>
    <path d="M38.5416 58.3791V45.3438H66.711V58.3791L50.2965 90.565L66.711 72.5945V85.308L38.2239 122L38.4887 89.5995L49.3964 69.4832H55.5386L61.2042 58.3791H38.5416Z" fill="black" fill-opacity="0.1"/>
    <path d="M56.8623 37.941L51.6732 41.9642H66.0756L71 16.8592L41.4009 38.2092H29.3283L27.7398 36.9218L25.7806 40.3013L28.0045 41.9642H42.9365L65.5991 25.4958L62.8986 37.941H56.8623Z" fill="black" fill-opacity="0.1"/>
    <path d="M45.4781 30.2164L48.708 27.8561L35.6293 2L17.6263 37.941H8.30711L5.81846 25.7103L15.0847 32.523L17.1498 29.2508L1 17.5565L5.23601 41.9642H19.9032L35.6293 10.3684L45.4781 30.2164Z" fill="black" fill-opacity="0.1"/>
    <path d="M5.81846 83.6451V45.5583V45.3438H15.0847V65.5673L23.292 60.2029V45.3438H35.2057V69.4832H22.0741L35.2057 89.5995V122L23.4508 106.926L15.0847 82.0358V95.232L5.81846 83.6451Z" stroke="black" stroke-opacity="0.1"/>
    <path d="M38.5416 58.3791V45.3438H66.711V58.3791L50.2965 90.565L66.711 72.5945V85.308L38.2239 122L38.4887 89.5995L49.3964 69.4832H55.5386L61.2042 58.3791H38.5416Z" stroke="black" stroke-opacity="0.1"/>
    <path d="M56.8623 37.941L51.6732 41.9642H66.0756L71 16.8592L41.4009 38.2092H29.3283L27.7398 36.9218L25.7806 40.3013L28.0045 41.9642H42.9365L65.5991 25.4958L62.8986 37.941H56.8623Z" stroke="black" stroke-opacity="0.1"/>
    <path d="M45.4781 30.2164L48.708 27.8561L35.6293 2L17.6263 37.941H8.30711L5.81846 25.7103L15.0847 32.523L17.1498 29.2508L1 17.5565L5.23601 41.9642H19.9032L35.6293 10.3684L45.4781 30.2164Z" stroke="black" stroke-opacity="0.1"/>
  </g>
</svg>