<svg xmlns="http://www.w3.org/2000/svg" width="121" height="120" viewBox="0 0 121 120" fill="none">
  <g opacity="0.2">
    <mask id="path-1-inside-1_3886_34587" fill="white">
      <path d="M94.8411 -0.000976562C99.3142 -0.000940871 103.518 1.17329 107.172 3.23438C107.217 3.25972 107.262 3.28587 107.307 3.31152C107.434 3.38398 107.56 3.45764 107.685 3.53223C107.76 3.57714 107.836 3.6222 107.911 3.66797C108.01 3.728 108.108 3.78925 108.205 3.85059C108.286 3.9013 108.367 3.95219 108.448 4.00391C108.537 4.06135 108.626 4.1192 108.714 4.17773C108.811 4.24184 108.908 4.30649 109.004 4.37207C109.069 4.41596 109.133 4.46042 109.197 4.50488C109.317 4.58855 109.437 4.67375 109.556 4.75977C109.588 4.78279 109.62 4.80593 109.652 4.8291C109.793 4.93187 109.933 5.03651 110.073 5.14258C110.096 5.16013 110.119 5.17768 110.142 5.19531C110.269 5.29243 110.395 5.39039 110.521 5.49023C110.584 5.54023 110.646 5.59102 110.708 5.6416C110.816 5.72917 110.924 5.81762 111.031 5.90723C111.064 5.9357 111.098 5.96452 111.132 5.99316C111.255 6.09759 111.379 6.20241 111.5 6.30957C111.584 6.38296 111.666 6.45776 111.748 6.53223C111.809 6.58686 111.87 6.64096 111.93 6.69629C112.559 7.27514 113.158 7.88603 113.728 8.52539C113.81 8.61747 113.89 8.71072 113.971 8.80371C114.03 8.87139 114.089 8.93853 114.147 9.00684C114.243 9.12089 114.338 9.23621 114.433 9.35156C114.465 9.39093 114.498 9.43017 114.53 9.46973C114.628 9.59096 114.724 9.71333 114.82 9.83594C114.857 9.8846 114.895 9.93347 114.933 9.98242C115.016 10.0913 115.099 10.2006 115.181 10.3105C115.223 10.3671 115.265 10.4235 115.307 10.4805C115.395 10.6005 115.48 10.7216 115.566 10.8428C115.603 10.8951 115.64 10.9474 115.676 11C115.746 11.1008 115.815 11.2022 115.883 11.3037C115.94 11.388 115.996 11.4726 116.052 11.5576C116.113 11.6506 116.173 11.7442 116.233 11.8379C116.287 11.9234 116.341 12.0095 116.395 12.0957C116.442 12.1723 116.49 12.2491 116.536 12.3262C116.608 12.4443 116.678 12.5633 116.748 12.6826C116.785 12.7447 116.821 12.8068 116.857 12.8691C116.924 12.987 116.991 13.1056 117.057 13.2246C117.088 13.2806 117.119 13.3364 117.15 13.3926C117.229 13.5382 117.307 13.6848 117.383 13.832C117.399 13.8636 117.416 13.8952 117.432 13.9268C119.283 17.5246 120.333 21.6181 120.333 25.9619C120.333 33.1544 117.461 39.6633 112.822 44.3652C112.819 44.3677 112.817 44.3706 112.815 44.373C109.54 47.7082 105.601 49.952 101.434 51.1035C88.5957 54.6512 72.3016 53.9141 62.97 63.418L58.8284 67.6367C52.4852 74.0974 52.3958 84.3512 52.3958 93.4053C52.3956 101.569 48.6835 108.851 42.8821 113.61C38.4027 117.589 32.5463 120.001 26.136 120.001C12.0571 120.001 0.643799 108.376 0.643799 94.0371C0.643806 86.5489 3.7573 79.802 8.73657 75.0635C13.3641 70.3549 19.7623 67.4415 26.8303 67.4414C36.1419 67.4414 46.8623 67.5398 53.386 60.8955L58.4094 55.7783C67.2174 46.8076 67.0345 31.9856 70.0208 19.7734C71.1061 15.3349 73.3542 11.128 76.7639 7.65527C76.7721 7.64691 76.7801 7.63823 76.7883 7.62988C81.4036 2.91562 87.7882 -0.000942909 94.8411 -0.000976562ZM94.8411 68.0742C108.92 68.0743 120.333 79.698 120.333 94.0371C120.333 108.376 108.92 120.001 94.8411 120.001C80.7621 120.001 69.3489 108.376 69.3489 94.0371C69.3489 79.6979 80.7621 68.0742 94.8411 68.0742ZM25.8254 -0.000976562C39.9043 -0.000976562 51.3175 11.6228 51.3176 25.9619C51.3176 40.3011 39.9044 51.9258 25.8254 51.9258C11.7465 51.9258 0.333252 40.3011 0.333252 25.9619C0.333396 11.6229 11.7466 -0.000954514 25.8254 -0.000976562Z"/>
    </mask>
    <path d="M94.8411 -0.000976562C99.3142 -0.000940871 103.518 1.17329 107.172 3.23438C107.217 3.25972 107.262 3.28587 107.307 3.31152C107.434 3.38398 107.56 3.45764 107.685 3.53223C107.76 3.57714 107.836 3.6222 107.911 3.66797C108.01 3.728 108.108 3.78925 108.205 3.85059C108.286 3.9013 108.367 3.95219 108.448 4.00391C108.537 4.06135 108.626 4.1192 108.714 4.17773C108.811 4.24184 108.908 4.30649 109.004 4.37207C109.069 4.41596 109.133 4.46042 109.197 4.50488C109.317 4.58855 109.437 4.67375 109.556 4.75977C109.588 4.78279 109.62 4.80593 109.652 4.8291C109.793 4.93187 109.933 5.03651 110.073 5.14258C110.096 5.16013 110.119 5.17768 110.142 5.19531C110.269 5.29243 110.395 5.39039 110.521 5.49023C110.584 5.54023 110.646 5.59102 110.708 5.6416C110.816 5.72917 110.924 5.81762 111.031 5.90723C111.064 5.9357 111.098 5.96452 111.132 5.99316C111.255 6.09759 111.379 6.20241 111.5 6.30957C111.584 6.38296 111.666 6.45776 111.748 6.53223C111.809 6.58686 111.87 6.64096 111.93 6.69629C112.559 7.27514 113.158 7.88603 113.728 8.52539C113.81 8.61747 113.89 8.71072 113.971 8.80371C114.03 8.87139 114.089 8.93853 114.147 9.00684C114.243 9.12089 114.338 9.23621 114.433 9.35156C114.465 9.39093 114.498 9.43017 114.53 9.46973C114.628 9.59096 114.724 9.71333 114.82 9.83594C114.857 9.8846 114.895 9.93347 114.933 9.98242C115.016 10.0913 115.099 10.2006 115.181 10.3105C115.223 10.3671 115.265 10.4235 115.307 10.4805C115.395 10.6005 115.48 10.7216 115.566 10.8428C115.603 10.8951 115.64 10.9474 115.676 11C115.746 11.1008 115.815 11.2022 115.883 11.3037C115.94 11.388 115.996 11.4726 116.052 11.5576C116.113 11.6506 116.173 11.7442 116.233 11.8379C116.287 11.9234 116.341 12.0095 116.395 12.0957C116.442 12.1723 116.49 12.2491 116.536 12.3262C116.608 12.4443 116.678 12.5633 116.748 12.6826C116.785 12.7447 116.821 12.8068 116.857 12.8691C116.924 12.987 116.991 13.1056 117.057 13.2246C117.088 13.2806 117.119 13.3364 117.15 13.3926C117.229 13.5382 117.307 13.6848 117.383 13.832C117.399 13.8636 117.416 13.8952 117.432 13.9268C119.283 17.5246 120.333 21.6181 120.333 25.9619C120.333 33.1544 117.461 39.6633 112.822 44.3652C112.819 44.3677 112.817 44.3706 112.815 44.373C109.54 47.7082 105.601 49.952 101.434 51.1035C88.5957 54.6512 72.3016 53.9141 62.97 63.418L58.8284 67.6367C52.4852 74.0974 52.3958 84.3512 52.3958 93.4053C52.3956 101.569 48.6835 108.851 42.8821 113.61C38.4027 117.589 32.5463 120.001 26.136 120.001C12.0571 120.001 0.643799 108.376 0.643799 94.0371C0.643806 86.5489 3.7573 79.802 8.73657 75.0635C13.3641 70.3549 19.7623 67.4415 26.8303 67.4414C36.1419 67.4414 46.8623 67.5398 53.386 60.8955L58.4094 55.7783C67.2174 46.8076 67.0345 31.9856 70.0208 19.7734C71.1061 15.3349 73.3542 11.128 76.7639 7.65527C76.7721 7.64691 76.7801 7.63823 76.7883 7.62988C81.4036 2.91562 87.7882 -0.000942909 94.8411 -0.000976562ZM94.8411 68.0742C108.92 68.0743 120.333 79.698 120.333 94.0371C120.333 108.376 108.92 120.001 94.8411 120.001C80.7621 120.001 69.3489 108.376 69.3489 94.0371C69.3489 79.6979 80.7621 68.0742 94.8411 68.0742ZM25.8254 -0.000976562C39.9043 -0.000976562 51.3175 11.6228 51.3176 25.9619C51.3176 40.3011 39.9044 51.9258 25.8254 51.9258C11.7465 51.9258 0.333252 40.3011 0.333252 25.9619C0.333396 11.6229 11.7466 -0.000954514 25.8254 -0.000976562Z" fill="black" fill-opacity="0.1"/>
    <path d="M94.8411 -0.000976562L94.8411 -1.00098H94.8411L94.8411 -0.000976562ZM107.172 3.23438L106.681 4.10539L106.682 4.10595L107.172 3.23438ZM107.307 3.31152L107.803 2.44354L107.803 2.443L107.307 3.31152ZM107.685 3.53223L107.173 4.39151L107.174 4.39199L107.685 3.53223ZM107.911 3.66797L108.432 2.81406L108.431 2.81361L107.911 3.66797ZM108.205 3.85059L107.673 4.69733L107.674 4.69771L108.205 3.85059ZM108.448 4.00391L108.989 3.16321L108.989 3.16288L108.448 4.00391ZM108.714 4.17773L108.162 5.0116L108.163 5.01187L108.714 4.17773ZM109.004 4.37207L109.567 3.54585L109.567 3.54564L109.004 4.37207ZM109.197 4.50488L108.626 5.32591L108.626 5.32607L109.197 4.50488ZM109.556 4.75977L110.141 3.94871L110.141 3.94863L109.556 4.75977ZM109.652 4.8291L109.063 5.63745L109.063 5.6375L109.652 4.8291ZM110.073 5.14258L109.467 5.93864L109.467 5.93869L110.073 5.14258ZM110.142 5.19531L110.75 4.40133L110.75 4.40125L110.142 5.19531ZM110.521 5.49023L109.898 6.27263L109.898 6.27277L110.521 5.49023ZM110.708 5.6416L111.338 4.86512L111.338 4.86494L110.708 5.6416ZM111.031 5.90723L110.388 6.67333L110.388 6.67355L111.031 5.90723ZM111.132 5.99316L111.779 5.23041L111.778 5.23017L111.132 5.99316ZM111.5 6.30957L110.839 7.05998L110.84 7.06025L111.5 6.30957ZM111.748 6.53223L112.419 5.79042L112.419 5.79015L111.748 6.53223ZM111.93 6.69629L111.252 7.43172L111.253 7.43197L111.93 6.69629ZM113.728 8.52539L112.981 9.19045L112.981 9.19072L113.728 8.52539ZM113.971 8.80371L114.727 8.14935L114.727 8.14906L113.971 8.80371ZM114.147 9.00684L113.384 9.65335L113.384 9.65364L114.147 9.00684ZM114.433 9.35156L115.207 8.7183L115.207 8.71803L114.433 9.35156ZM114.53 9.46973L113.752 10.0984L113.752 10.0987L114.53 9.46973ZM114.82 9.83594L115.608 9.2213L115.608 9.2211L114.82 9.83594ZM114.933 9.98242L114.14 10.5914L114.14 10.5916L114.933 9.98242ZM115.181 10.3105L115.984 9.71416L115.984 9.71406L115.181 10.3105ZM115.307 10.4805L114.499 11.0703L114.499 11.0704L115.307 10.4805ZM115.566 10.8428L114.748 11.4187L114.748 11.4187L115.566 10.8428ZM115.676 11L116.498 10.4302L116.498 10.4301L115.676 11ZM115.883 11.3037L115.053 11.8617L115.053 11.862L115.883 11.3037ZM116.052 11.5576L116.888 11.0094L116.888 11.0091L116.052 11.5576ZM116.233 11.8379L115.389 12.3752L115.39 12.3756L116.233 11.8379ZM116.395 12.0957L117.244 11.5684L117.244 11.5678L116.395 12.0957ZM116.536 12.3262L115.681 12.8446L115.682 12.8452L116.536 12.3262ZM116.748 12.6826L117.612 12.178L117.611 12.1773L116.748 12.6826ZM116.857 12.8691L115.989 13.3665L115.99 13.3673L116.857 12.8691ZM117.057 13.2246L117.932 12.741L117.932 12.7401L117.057 13.2246ZM117.15 13.3926L116.271 13.8697L116.271 13.8707L117.15 13.3926ZM117.383 13.832L118.271 13.3719L118.27 13.3708L117.383 13.832ZM117.432 13.9268L116.542 14.3832L116.543 14.3844L117.432 13.9268ZM120.333 25.9619H121.333V25.9619L120.333 25.9619ZM112.822 44.3652L112.11 43.6629L112.106 43.6669L112.822 44.3652ZM112.815 44.373L113.528 45.0737H113.528L112.815 44.373ZM101.434 51.1035L101.7 52.0674L101.7 52.0674L101.434 51.1035ZM62.97 63.418L62.2564 62.7174L62.2564 62.7174L62.97 63.418ZM58.8284 67.6367L59.5419 68.3373L59.542 68.3373L58.8284 67.6367ZM52.3958 93.4053L53.3958 93.4053V93.4053H52.3958ZM42.8821 113.61L42.2478 112.837L42.2327 112.85L42.218 112.863L42.8821 113.61ZM26.136 120.001L26.136 121.001H26.136V120.001ZM0.643799 94.0371H-0.356201H0.643799ZM8.73657 75.0635L9.42595 75.7879L9.43807 75.7763L9.44979 75.7644L8.73657 75.0635ZM26.8303 67.4414V66.4414H26.8303L26.8303 67.4414ZM53.386 60.8955L54.0995 61.5961L54.0996 61.596L53.386 60.8955ZM58.4094 55.7783L57.6959 55.0777L57.6958 55.0778L58.4094 55.7783ZM70.0208 19.7734L69.0494 19.5359L69.0494 19.5359L70.0208 19.7734ZM76.7639 7.65527L76.0504 6.95466L76.0504 6.95467L76.7639 7.65527ZM76.7883 7.62988L77.5011 8.33133L77.5029 8.32944L76.7883 7.62988ZM94.8411 68.0742V67.0742V68.0742ZM120.333 94.0371H121.333H120.333ZM94.8411 120.001V121.001V120.001ZM69.3489 94.0371H68.3489H69.3489ZM25.8254 -0.000976562V-1.00098H25.8254L25.8254 -0.000976562ZM51.3176 25.9619H52.3176V25.9619L51.3176 25.9619ZM25.8254 51.9258L25.8254 52.9258H25.8254V51.9258ZM0.333252 25.9619L-0.666748 25.9619V25.9619H0.333252ZM94.8411 -0.000976562L94.8411 0.999023C99.1368 0.999058 103.172 2.12624 106.681 4.10539L107.172 3.23438L107.663 2.36336C103.864 0.220351 99.4916 -1.00094 94.8411 -1.00098L94.8411 -0.000976562ZM107.172 3.23438L106.682 4.10595C106.726 4.13061 106.752 4.14629 106.811 4.18005L107.307 3.31152L107.803 2.443C107.772 2.42546 107.709 2.38883 107.662 2.3628L107.172 3.23438ZM107.307 3.31152L106.81 4.17951C106.932 4.24886 107.053 4.3196 107.173 4.39151L107.685 3.53223L108.196 2.67295C108.067 2.59569 107.936 2.5191 107.803 2.44354L107.307 3.31152ZM107.685 3.53223L107.174 4.39199C107.25 4.43691 107.321 4.47957 107.392 4.52233L107.911 3.66797L108.431 2.81361C108.351 2.76483 108.271 2.71737 108.196 2.67246L107.685 3.53223ZM107.911 3.66797L107.391 4.52188C107.483 4.57807 107.576 4.63618 107.673 4.69733L108.205 3.85059L108.737 3.00384C108.639 2.94231 108.537 2.87792 108.432 2.81406L107.911 3.66797ZM108.205 3.85059L107.674 4.69771C107.755 4.7484 107.831 4.7966 107.907 4.84494L108.448 4.00391L108.989 3.16288C108.903 3.10777 108.818 3.0542 108.737 3.00346L108.205 3.85059ZM108.448 4.00391L107.906 4.8446C107.993 4.9006 108.078 4.95606 108.162 5.0116L108.714 4.17773L109.266 3.34387C109.173 3.28234 109.08 3.2221 108.989 3.16321L108.448 4.00391ZM108.714 4.17773L108.163 5.01187C108.257 5.07442 108.35 5.13635 108.441 5.1985L109.004 4.37207L109.567 3.54564C109.466 3.47662 109.365 3.40926 109.266 3.3436L108.714 4.17773ZM109.004 4.37207L108.441 5.19829C108.501 5.23936 108.562 5.28153 108.626 5.32591L109.197 4.50488L109.767 3.68386C109.703 3.63931 109.636 3.59255 109.567 3.54585L109.004 4.37207ZM109.197 4.50488L108.626 5.32607C108.74 5.4055 108.855 5.48717 108.971 5.5709L109.556 4.75977L110.141 3.94863C110.018 3.86034 109.894 3.77161 109.767 3.6837L109.197 4.50488ZM109.556 4.75977L108.971 5.57083C109.002 5.59316 109.033 5.61537 109.063 5.63745L109.652 4.8291L110.24 4.02075C110.207 3.99649 110.174 3.97242 110.141 3.94871L109.556 4.75977ZM109.652 4.8291L109.063 5.6375C109.198 5.73571 109.333 5.83619 109.467 5.93864L110.073 5.14258L110.678 4.34652C110.533 4.23683 110.388 4.12803 110.24 4.02071L109.652 4.8291ZM110.073 5.14258L109.467 5.93869C109.493 5.95835 109.513 5.97307 109.534 5.98937L110.142 5.19531L110.75 4.40125C110.725 4.3823 110.698 4.36191 110.678 4.34647L110.073 5.14258ZM110.142 5.19531L109.534 5.9893C109.658 6.08461 109.779 6.17832 109.898 6.27263L110.521 5.49023L111.144 4.70784C111.011 4.60245 110.879 4.50024 110.75 4.40133L110.142 5.19531ZM110.521 5.49023L109.898 6.27277C109.956 6.31897 110.013 6.36544 110.078 6.41826L110.708 5.6416L111.338 4.86494C111.279 4.8166 111.211 4.76148 111.143 4.7077L110.521 5.49023ZM110.708 5.6416L110.078 6.41808C110.183 6.50294 110.286 6.58788 110.388 6.67333L111.031 5.90723L111.673 5.14113C111.561 5.04736 111.45 4.95539 111.338 4.86512L110.708 5.6416ZM111.031 5.90723L110.388 6.67355C110.419 6.69983 110.448 6.72461 110.486 6.75616L111.132 5.99316L111.778 5.23017C111.748 5.20443 111.71 5.17157 111.673 5.1409L111.031 5.90723ZM111.132 5.99316L110.485 6.75592C110.609 6.8606 110.726 6.95982 110.839 7.05998L111.5 6.30957L112.161 5.55916C112.032 5.445 111.902 5.33457 111.779 5.23041L111.132 5.99316ZM111.5 6.30957L110.84 7.06025C110.917 7.12808 110.992 7.19653 111.078 7.2743L111.748 6.53223L112.419 5.79015C112.34 5.719 112.251 5.63783 112.161 5.55889L111.5 6.30957ZM111.748 6.53223L111.078 7.27403C111.15 7.33919 111.196 7.37979 111.252 7.43172L111.93 6.69629L112.608 5.96086C112.544 5.90214 112.468 5.83454 112.419 5.79042L111.748 6.53223ZM111.93 6.69629L111.253 7.43197C111.857 7.988 112.433 8.57527 112.981 9.19045L113.728 8.52539L114.475 7.86033C113.884 7.19678 113.261 6.56228 112.607 5.96061L111.93 6.69629ZM113.728 8.52539L112.981 9.19072C113.058 9.27635 113.133 9.3636 113.215 9.45836L113.971 8.80371L114.727 8.14906C114.648 8.05785 114.562 7.95859 114.474 7.86006L113.728 8.52539ZM113.971 8.80371L113.215 9.45807C113.283 9.5369 113.33 9.58963 113.384 9.65335L114.147 9.00684L114.91 8.36032C114.848 8.28744 114.776 8.20588 114.727 8.14935L113.971 8.80371ZM114.147 9.00684L113.384 9.65364C113.475 9.76081 113.565 9.87063 113.659 9.9851L114.433 9.35156L115.207 8.71803C115.111 8.60179 115.012 8.48097 114.909 8.36003L114.147 9.00684ZM114.433 9.35156L113.659 9.98482C113.696 10.0305 113.722 10.0616 113.752 10.0984L114.53 9.46973L115.307 8.84102C115.273 8.79878 115.234 8.75135 115.207 8.7183L114.433 9.35156ZM114.53 9.46973L113.752 10.0987C113.845 10.2134 113.937 10.3305 114.031 10.4508L114.82 9.83594L115.608 9.2211C115.511 9.09614 115.41 8.96855 115.307 8.84076L114.53 9.46973ZM114.82 9.83594L114.031 10.4506C114.067 10.4972 114.103 10.5442 114.14 10.5914L114.933 9.98242L115.726 9.37342C115.687 9.32274 115.648 9.27199 115.608 9.2213L114.82 9.83594ZM114.933 9.98242L114.14 10.5916C114.221 10.6966 114.3 10.8017 114.378 10.907L115.181 10.3105L115.984 9.71406C115.898 9.59955 115.812 9.48594 115.726 9.37325L114.933 9.98242ZM115.181 10.3105L114.378 10.9069C114.424 10.9689 114.461 11.0177 114.499 11.0703L115.307 10.4805L116.114 9.89062C116.07 9.82935 116.022 9.76533 115.984 9.71416L115.181 10.3105ZM115.307 10.4805L114.499 11.0704C114.582 11.183 114.663 11.2982 114.748 11.4187L115.566 10.8428L116.383 10.2669C116.297 10.145 116.207 10.0179 116.114 9.89058L115.307 10.4805ZM115.566 10.8428L114.748 11.4187C114.787 11.4733 114.821 11.5212 114.854 11.5699L115.676 11L116.498 10.4301C116.459 10.3736 116.418 10.3169 116.383 10.2668L115.566 10.8428ZM115.676 11L114.854 11.5698C114.921 11.6654 114.987 11.7627 115.053 11.8617L115.883 11.3037L116.713 10.7457C116.643 10.6416 116.571 10.5361 116.498 10.4302L115.676 11ZM115.883 11.3037L115.053 11.862C115.109 11.9443 115.163 12.0254 115.216 12.1061L116.052 11.5576L116.888 11.0091C116.83 10.9198 116.771 10.8318 116.713 10.7455L115.883 11.3037ZM116.052 11.5576L115.216 12.1058C115.273 12.1935 115.331 12.283 115.389 12.3752L116.233 11.8379L117.076 11.3006C117.015 11.2055 116.953 11.1077 116.888 11.0094L116.052 11.5576ZM116.233 11.8379L115.39 12.3756C115.441 12.457 115.493 12.5395 115.545 12.6236L116.395 12.0957L117.244 11.5678C117.189 11.4794 117.133 11.3899 117.076 11.3001L116.233 11.8379ZM116.395 12.0957L115.545 12.623C115.592 12.6981 115.637 12.7716 115.681 12.8446L116.536 12.3262L117.392 11.8078C117.342 11.7266 117.293 11.6466 117.244 11.5684L116.395 12.0957ZM116.536 12.3262L115.682 12.8452C115.749 12.9567 115.817 13.0706 115.885 13.188L116.748 12.6826L117.611 12.1773C117.54 12.056 117.467 11.9318 117.391 11.8072L116.536 12.3262ZM116.748 12.6826L115.885 13.1872C115.922 13.2508 115.956 13.3086 115.989 13.3665L116.857 12.8691L117.724 12.3718C117.686 12.305 117.647 12.2387 117.612 12.178L116.748 12.6826ZM116.857 12.8691L115.99 13.3673C116.054 13.4794 116.118 13.5933 116.182 13.7092L117.057 13.2246L117.932 12.7401C117.864 12.6179 117.795 12.4945 117.724 12.371L116.857 12.8691ZM117.057 13.2246L116.182 13.7082C116.217 13.7728 116.242 13.8174 116.271 13.8697L117.15 13.3926L118.029 12.9155C117.996 12.8554 117.958 12.7884 117.932 12.741L117.057 13.2246ZM117.15 13.3926L116.271 13.8707C116.347 14.0095 116.421 14.1503 116.496 14.2933L117.383 13.832L118.27 13.3708C118.192 13.2192 118.111 13.0668 118.028 12.9145L117.15 13.3926ZM117.383 13.832L116.495 14.2921C116.511 14.3223 116.526 14.3526 116.542 14.3832L117.432 13.9268L118.322 13.4703C118.305 13.4377 118.288 13.4049 118.271 13.3719L117.383 13.832ZM117.432 13.9268L116.543 14.3844C118.323 17.8438 119.333 21.7808 119.333 25.9619L120.333 25.9619L121.333 25.9619C121.333 21.4554 120.244 17.2053 118.321 13.4692L117.432 13.9268ZM120.333 25.9619H119.333C119.333 32.8835 116.57 39.1423 112.11 43.6629L112.822 44.3652L113.533 45.0676C118.351 40.1843 121.333 33.4253 121.333 25.9619H120.333ZM112.822 44.3652L112.106 43.6669C112.086 43.687 112.071 43.7041 112.062 43.7144C112.058 43.7198 112.054 43.7242 112.052 43.7269C112.05 43.7283 112.049 43.7295 112.049 43.7302C112.048 43.7309 112.048 43.7315 112.048 43.7315C112.047 43.7321 112.049 43.7304 112.05 43.7283C112.052 43.726 112.056 43.7221 112.06 43.7172C112.068 43.7078 112.082 43.6916 112.101 43.6724L112.815 44.373L113.528 45.0737C113.548 45.0532 113.564 45.0358 113.573 45.025C113.578 45.0195 113.582 45.0149 113.584 45.012C113.586 45.0092 113.588 45.0069 113.588 45.0067C113.589 45.0059 113.588 45.0075 113.586 45.0094C113.585 45.0114 113.581 45.0152 113.577 45.0198C113.57 45.0289 113.556 45.0447 113.537 45.0636L112.822 44.3652ZM112.815 44.373L112.101 43.6724C108.952 46.8798 105.168 49.0342 101.167 50.1396L101.434 51.1035L101.7 52.0674C106.034 50.8698 110.128 48.5365 113.528 45.0737L112.815 44.373ZM101.434 51.1035L101.167 50.1396C98.0126 51.0115 94.6318 51.6236 91.156 52.2014C87.6963 52.7765 84.1305 53.3193 80.6801 54.0488C73.7855 55.5065 67.1355 57.7483 62.2564 62.7174L62.97 63.418L63.6835 64.1186C68.1361 59.5838 74.299 57.4421 81.0938 56.0055C84.4882 55.2879 87.9863 54.7557 91.484 54.1743C94.9657 53.5955 98.436 52.9694 101.7 52.0674L101.434 51.1035ZM62.97 63.418L62.2564 62.7174L58.1148 66.9362L58.8284 67.6367L59.542 68.3373L63.6836 64.1185L62.97 63.418ZM58.8284 67.6367L58.1148 66.9361C54.7524 70.3608 53.085 74.7552 52.2494 79.3703C51.4156 83.9753 51.3958 88.8909 51.3958 93.4053H52.3958H53.3958C53.3958 88.8655 53.4206 84.1272 54.2174 79.7266C55.0123 75.3361 56.5612 71.3733 59.5419 68.3373L58.8284 67.6367ZM52.3958 93.4053L51.3958 93.4053C51.3956 101.26 47.8252 108.261 42.2478 112.837L42.8821 113.61L43.5163 114.383C49.5417 109.44 53.3956 101.878 53.3958 93.4053L52.3958 93.4053ZM42.8821 113.61L42.218 112.863C37.9127 116.687 32.2899 119.001 26.136 119.001V120.001V121.001C32.8027 121.001 38.8926 118.491 43.5462 114.358L42.8821 113.61ZM26.136 120.001L26.136 119.001C12.6266 119.001 1.6438 107.841 1.6438 94.0371H0.643799H-0.356201C-0.356201 108.911 11.4876 121.001 26.136 121.001L26.136 120.001ZM0.643799 94.0371H1.6438C1.64381 86.8311 4.63887 80.3435 9.42595 75.7879L8.73657 75.0635L8.04719 74.3391C2.87572 79.2605 -0.356193 86.2667 -0.356201 94.0371H0.643799ZM8.73657 75.0635L9.44979 75.7644C13.8988 71.2375 20.0436 68.4415 26.8303 68.4414L26.8303 67.4414L26.8303 66.4414C19.4809 66.4416 12.8295 69.4722 8.02335 74.3625L8.73657 75.0635ZM26.8303 67.4414V68.4414C31.4642 68.4414 36.5635 68.4688 41.324 67.6454C46.0958 66.8201 50.6358 65.1239 54.0995 61.5961L53.386 60.8955L52.6724 60.1949C49.6125 63.3114 45.5304 64.8882 40.9832 65.6747C36.4246 66.4632 31.5081 66.4414 26.8303 66.4414V67.4414ZM53.386 60.8955L54.0996 61.596L59.123 56.4789L58.4094 55.7783L57.6958 55.0778L52.6724 60.195L53.386 60.8955ZM58.4094 55.7783L59.123 56.4789C63.7234 51.7934 65.9318 45.6243 67.3738 39.2108C68.0956 36.0008 68.6328 32.6919 69.1717 29.4539C69.7127 26.2034 70.2557 23.0225 70.9921 20.011L70.0208 19.7734L69.0494 19.5359C68.2927 22.6304 67.7387 25.8818 67.1988 29.1255C66.6569 32.3816 66.1293 35.6287 65.4226 38.772C64.0075 45.0652 61.9034 50.7925 57.6959 55.0777L58.4094 55.7783ZM70.0208 19.7734L70.9921 20.011C72.0363 15.741 74.1982 11.6957 77.4775 8.35587L76.7639 7.65527L76.0504 6.95467C72.5102 10.5603 70.176 14.9289 69.0494 19.5359L70.0208 19.7734ZM76.7639 7.65527L77.4775 8.35589C77.4832 8.35001 77.4882 8.34481 77.492 8.34086C77.4956 8.33709 77.4991 8.3335 77.5008 8.3317C77.5029 8.32941 77.5035 8.32882 77.5038 8.32852C77.5039 8.32837 77.5029 8.32948 77.5011 8.33133L76.7883 7.62988L76.0756 6.92844C76.0646 6.93967 76.0547 6.95003 76.0515 6.95344C76.0491 6.95591 76.0485 6.95658 76.048 6.95705C76.0478 6.95734 76.0487 6.95636 76.0504 6.95466L76.7639 7.65527ZM76.7883 7.62988L77.5029 8.32944C81.9397 3.79745 88.0706 0.999056 94.8411 0.999023L94.8411 -0.000976562L94.8411 -1.00098C87.5058 -1.00094 80.8674 2.03378 76.0738 6.93032L76.7883 7.62988ZM94.8411 68.0742V69.0742C108.351 69.0743 119.333 80.2329 119.333 94.0371H120.333H121.333C121.333 79.163 109.489 67.0743 94.8411 67.0742V68.0742ZM120.333 94.0371H119.333C119.333 107.841 108.351 119.001 94.8411 119.001V120.001V121.001C109.489 121.001 121.333 108.911 121.333 94.0371H120.333ZM94.8411 120.001V119.001C81.3316 119.001 70.3489 107.841 70.3489 94.0371H69.3489H68.3489C68.3489 108.911 80.1926 121.001 94.8411 121.001V120.001ZM69.3489 94.0371H70.3489C70.3489 80.2329 81.3316 69.0742 94.8411 69.0742V68.0742V67.0742C80.1927 67.0742 68.3489 79.163 68.3489 94.0371H69.3489ZM25.8254 -0.000976562V0.999023C39.3349 0.999023 50.3175 12.1578 50.3176 25.9619L51.3176 25.9619L52.3176 25.9619C52.3175 11.0879 40.4738 -1.00098 25.8254 -1.00098V-0.000976562ZM51.3176 25.9619H50.3176C50.3176 39.7662 39.3349 50.9258 25.8254 50.9258V51.9258V52.9258C40.4739 52.9258 52.3176 40.836 52.3176 25.9619H51.3176ZM25.8254 51.9258L25.8254 50.9258C12.316 50.9258 1.33325 39.7662 1.33325 25.9619H0.333252H-0.666748C-0.666748 40.836 11.177 52.9258 25.8254 52.9258L25.8254 51.9258ZM0.333252 25.9619L1.33325 25.9619C1.33339 12.1578 12.316 0.999045 25.8254 0.999023L25.8254 -0.000976562L25.8254 -1.00098C11.1771 -1.00095 -0.666599 11.0879 -0.666748 25.9619L0.333252 25.9619Z" fill="black" fill-opacity="0.1" mask="url(#path-1-inside-1_3886_34587)"/>
  </g>
</svg>