<svg width="100%" height="100%" viewBox="0 0 513 513" fill="none" xmlns="http://www.w3.org/2000/svg">
<circle cx="256.497" cy="256.802" r="256" fill="#5F5DF8"/>
<g filter="url(#filter0_dii_2046_36912)">
<path fill-rule="evenodd" clip-rule="evenodd" d="M268.687 128.057C268.733 128.077 268.774 128.097 268.819 128.121C269.981 128.744 287.186 137.935 312.208 149.548C337.178 161.136 359.3 168.389 360.889 168.905C360.956 168.927 361.014 168.95 361.078 168.979C381.637 178.192 375.237 209.087 352.598 209.197C352.519 209.197 352.442 209.193 352.363 209.184C350.087 208.92 313.927 204.844 256.504 204.844C199.081 204.844 162.921 208.92 160.645 209.184C160.567 209.193 160.489 209.197 160.41 209.197C137.757 209.087 131.365 178.154 151.968 168.962C152.008 168.944 152.035 168.933 152.075 168.918C153.341 168.452 180.238 158.532 200.247 149.548C220.211 140.584 243.034 128.721 244.205 128.112C244.242 128.093 244.271 128.079 244.31 128.062C252.076 124.642 260.92 124.64 268.687 128.057ZM259.251 149.548C257.501 148.773 255.507 148.773 253.758 149.548L180.722 181.897C178.746 182.772 179.371 185.725 181.532 185.725H331.476C333.638 185.725 334.263 182.772 332.286 181.897L259.251 149.548Z" fill="url(#paint0_linear_2046_36912)"/>
<path fill-rule="evenodd" clip-rule="evenodd" d="M268.687 128.057C268.733 128.077 268.774 128.097 268.819 128.121C269.981 128.744 287.186 137.935 312.208 149.548C337.178 161.136 359.3 168.389 360.889 168.905C360.956 168.927 361.014 168.95 361.078 168.979C381.637 178.192 375.237 209.087 352.598 209.197C352.519 209.197 352.442 209.193 352.363 209.184C350.087 208.92 313.927 204.844 256.504 204.844C199.081 204.844 162.921 208.92 160.645 209.184C160.567 209.193 160.489 209.197 160.41 209.197C137.757 209.087 131.365 178.154 151.968 168.962C152.008 168.944 152.035 168.933 152.075 168.918C153.341 168.452 180.238 158.532 200.247 149.548C220.211 140.584 243.034 128.721 244.205 128.112C244.242 128.093 244.271 128.079 244.31 128.062C252.076 124.642 260.92 124.64 268.687 128.057ZM259.251 149.548C257.501 148.773 255.507 148.773 253.758 149.548L180.722 181.897C178.746 182.772 179.371 185.725 181.532 185.725H331.476C333.638 185.725 334.263 182.772 332.286 181.897L259.251 149.548Z" fill="url(#paint1_radial_2046_36912)"/>
<path fill-rule="evenodd" clip-rule="evenodd" d="M268.687 128.057C268.733 128.077 268.774 128.097 268.819 128.121C269.981 128.744 287.186 137.935 312.208 149.548C337.178 161.136 359.3 168.389 360.889 168.905C360.956 168.927 361.014 168.95 361.078 168.979C381.637 178.192 375.237 209.087 352.598 209.197C352.519 209.197 352.442 209.193 352.363 209.184C350.087 208.92 313.927 204.844 256.504 204.844C199.081 204.844 162.921 208.92 160.645 209.184C160.567 209.193 160.489 209.197 160.41 209.197C137.757 209.087 131.365 178.154 151.968 168.962C152.008 168.944 152.035 168.933 152.075 168.918C153.341 168.452 180.238 158.532 200.247 149.548C220.211 140.584 243.034 128.721 244.205 128.112C244.242 128.093 244.271 128.079 244.31 128.062C252.076 124.642 260.92 124.64 268.687 128.057ZM259.251 149.548C257.501 148.773 255.507 148.773 253.758 149.548L180.722 181.897C178.746 182.772 179.371 185.725 181.532 185.725H331.476C333.638 185.725 334.263 182.772 332.286 181.897L259.251 149.548Z" fill="url(#paint2_radial_2046_36912)"/>
<path fill-rule="evenodd" clip-rule="evenodd" d="M268.687 128.057C268.733 128.077 268.774 128.097 268.819 128.121C269.981 128.744 287.186 137.935 312.208 149.548C337.178 161.136 359.3 168.389 360.889 168.905C360.956 168.927 361.014 168.95 361.078 168.979C381.637 178.192 375.237 209.087 352.598 209.197C352.519 209.197 352.442 209.193 352.363 209.184C350.087 208.92 313.927 204.844 256.504 204.844C199.081 204.844 162.921 208.92 160.645 209.184C160.567 209.193 160.489 209.197 160.41 209.197C137.757 209.087 131.365 178.154 151.968 168.962C152.008 168.944 152.035 168.933 152.075 168.918C153.341 168.452 180.238 158.532 200.247 149.548C220.211 140.584 243.034 128.721 244.205 128.112C244.242 128.093 244.271 128.079 244.31 128.062C252.076 124.642 260.92 124.64 268.687 128.057ZM259.251 149.548C257.501 148.773 255.507 148.773 253.758 149.548L180.722 181.897C178.746 182.772 179.371 185.725 181.532 185.725H331.476C333.638 185.725 334.263 182.772 332.286 181.897L259.251 149.548Z" fill="url(#paint3_radial_2046_36912)" fill-opacity="0.2"/>
</g>
<g filter="url(#filter1_dii_2046_36912)">
<path fill-rule="evenodd" clip-rule="evenodd" d="M139.68 352.372C139.68 345.891 144.934 340.637 151.416 340.637H361.656C368.137 340.637 373.391 345.891 373.391 352.372C373.391 358.854 368.137 364.108 361.656 364.108C361.656 364.108 331.344 358.684 256.536 358.684C181.727 358.684 151.416 364.108 151.416 364.108C144.934 364.108 139.68 358.854 139.68 352.372Z" fill="url(#paint4_linear_2046_36912)"/>
<path fill-rule="evenodd" clip-rule="evenodd" d="M139.68 352.372C139.68 345.891 144.934 340.637 151.416 340.637H361.656C368.137 340.637 373.391 345.891 373.391 352.372C373.391 358.854 368.137 364.108 361.656 364.108C361.656 364.108 331.344 358.684 256.536 358.684C181.727 358.684 151.416 364.108 151.416 364.108C144.934 364.108 139.68 358.854 139.68 352.372Z" fill="url(#paint5_radial_2046_36912)"/>
<path fill-rule="evenodd" clip-rule="evenodd" d="M139.68 352.372C139.68 345.891 144.934 340.637 151.416 340.637H361.656C368.137 340.637 373.391 345.891 373.391 352.372C373.391 358.854 368.137 364.108 361.656 364.108C361.656 364.108 331.344 358.684 256.536 358.684C181.727 358.684 151.416 364.108 151.416 364.108C144.934 364.108 139.68 358.854 139.68 352.372Z" fill="url(#paint6_radial_2046_36912)"/>
<path fill-rule="evenodd" clip-rule="evenodd" d="M139.68 352.372C139.68 345.891 144.934 340.637 151.416 340.637H361.656C368.137 340.637 373.391 345.891 373.391 352.372C373.391 358.854 368.137 364.108 361.656 364.108C361.656 364.108 331.344 358.684 256.536 358.684C181.727 358.684 151.416 364.108 151.416 364.108C144.934 364.108 139.68 358.854 139.68 352.372Z" fill="url(#paint7_radial_2046_36912)" fill-opacity="0.2"/>
</g>
<g filter="url(#filter2_dii_2046_36912)">
<path fill-rule="evenodd" clip-rule="evenodd" d="M176.15 232.195C182.632 232.195 187.886 237.45 187.886 243.931V305.896C187.886 312.378 182.632 317.632 176.15 317.632C169.669 317.632 164.415 312.378 164.415 305.896C164.415 299.415 166.597 292.663 166.597 275.29C166.597 257.916 164.415 250.413 164.415 243.931C164.415 237.45 169.669 232.195 176.15 232.195Z" fill="url(#paint8_linear_2046_36912)"/>
<path fill-rule="evenodd" clip-rule="evenodd" d="M176.15 232.195C182.632 232.195 187.886 237.45 187.886 243.931V305.896C187.886 312.378 182.632 317.632 176.15 317.632C169.669 317.632 164.415 312.378 164.415 305.896C164.415 299.415 166.597 292.663 166.597 275.29C166.597 257.916 164.415 250.413 164.415 243.931C164.415 237.45 169.669 232.195 176.15 232.195Z" fill="url(#paint9_radial_2046_36912)"/>
<path fill-rule="evenodd" clip-rule="evenodd" d="M176.15 232.195C182.632 232.195 187.886 237.45 187.886 243.931V305.896C187.886 312.378 182.632 317.632 176.15 317.632C169.669 317.632 164.415 312.378 164.415 305.896C164.415 299.415 166.597 292.663 166.597 275.29C166.597 257.916 164.415 250.413 164.415 243.931C164.415 237.45 169.669 232.195 176.15 232.195Z" fill="url(#paint10_radial_2046_36912)"/>
<path fill-rule="evenodd" clip-rule="evenodd" d="M176.15 232.195C182.632 232.195 187.886 237.45 187.886 243.931V305.896C187.886 312.378 182.632 317.632 176.15 317.632C169.669 317.632 164.415 312.378 164.415 305.896C164.415 299.415 166.597 292.663 166.597 275.29C166.597 257.916 164.415 250.413 164.415 243.931C164.415 237.45 169.669 232.195 176.15 232.195Z" fill="url(#paint11_radial_2046_36912)" fill-opacity="0.2"/>
</g>
<g filter="url(#filter3_dii_2046_36912)">
<path fill-rule="evenodd" clip-rule="evenodd" d="M229.716 232.195C236.197 232.195 241.452 237.45 241.452 243.931V305.896C241.452 312.378 236.197 317.632 229.716 317.632C223.234 317.632 217.98 312.378 217.98 305.896V243.931C217.98 237.45 223.234 232.195 229.716 232.195Z" fill="url(#paint12_linear_2046_36912)"/>
<path fill-rule="evenodd" clip-rule="evenodd" d="M229.716 232.195C236.197 232.195 241.452 237.45 241.452 243.931V305.896C241.452 312.378 236.197 317.632 229.716 317.632C223.234 317.632 217.98 312.378 217.98 305.896V243.931C217.98 237.45 223.234 232.195 229.716 232.195Z" fill="url(#paint13_radial_2046_36912)"/>
<path fill-rule="evenodd" clip-rule="evenodd" d="M229.716 232.195C236.197 232.195 241.452 237.45 241.452 243.931V305.896C241.452 312.378 236.197 317.632 229.716 317.632C223.234 317.632 217.98 312.378 217.98 305.896V243.931C217.98 237.45 223.234 232.195 229.716 232.195Z" fill="url(#paint14_radial_2046_36912)"/>
<path fill-rule="evenodd" clip-rule="evenodd" d="M229.716 232.195C236.197 232.195 241.452 237.45 241.452 243.931V305.896C241.452 312.378 236.197 317.632 229.716 317.632C223.234 317.632 217.98 312.378 217.98 305.896V243.931C217.98 237.45 223.234 232.195 229.716 232.195Z" fill="url(#paint15_radial_2046_36912)" fill-opacity="0.2"/>
</g>
<g filter="url(#filter4_dii_2046_36912)">
<path fill-rule="evenodd" clip-rule="evenodd" d="M283.316 232.199C289.798 232.199 295.052 237.454 295.052 243.935V305.9C295.052 312.382 289.798 317.636 283.316 317.636C276.835 317.636 271.581 312.382 271.581 305.9V243.935C271.581 237.454 276.835 232.199 283.316 232.199Z" fill="url(#paint16_linear_2046_36912)"/>
<path fill-rule="evenodd" clip-rule="evenodd" d="M283.316 232.199C289.798 232.199 295.052 237.454 295.052 243.935V305.9C295.052 312.382 289.798 317.636 283.316 317.636C276.835 317.636 271.581 312.382 271.581 305.9V243.935C271.581 237.454 276.835 232.199 283.316 232.199Z" fill="url(#paint17_radial_2046_36912)"/>
<path fill-rule="evenodd" clip-rule="evenodd" d="M283.316 232.199C289.798 232.199 295.052 237.454 295.052 243.935V305.9C295.052 312.382 289.798 317.636 283.316 317.636C276.835 317.636 271.581 312.382 271.581 305.9V243.935C271.581 237.454 276.835 232.199 283.316 232.199Z" fill="url(#paint18_radial_2046_36912)"/>
<path fill-rule="evenodd" clip-rule="evenodd" d="M283.316 232.199C289.798 232.199 295.052 237.454 295.052 243.935V305.9C295.052 312.382 289.798 317.636 283.316 317.636C276.835 317.636 271.581 312.382 271.581 305.9V243.935C271.581 237.454 276.835 232.199 283.316 232.199Z" fill="url(#paint19_radial_2046_36912)" fill-opacity="0.2"/>
</g>
<g filter="url(#filter5_dii_2046_36912)">
<path fill-rule="evenodd" clip-rule="evenodd" d="M336.916 232.195C343.397 232.195 348.652 237.45 348.652 243.931C348.652 250.413 345.825 255.27 345.825 274.336C345.825 293.403 348.652 299.415 348.652 305.896C348.652 312.378 343.397 317.632 336.916 317.632C330.434 317.632 325.18 312.378 325.18 305.896V243.931C325.18 237.45 330.434 232.195 336.916 232.195Z" fill="url(#paint20_linear_2046_36912)"/>
<path fill-rule="evenodd" clip-rule="evenodd" d="M336.916 232.195C343.397 232.195 348.652 237.45 348.652 243.931C348.652 250.413 345.825 255.27 345.825 274.336C345.825 293.403 348.652 299.415 348.652 305.896C348.652 312.378 343.397 317.632 336.916 317.632C330.434 317.632 325.18 312.378 325.18 305.896V243.931C325.18 237.45 330.434 232.195 336.916 232.195Z" fill="url(#paint21_radial_2046_36912)"/>
<path fill-rule="evenodd" clip-rule="evenodd" d="M336.916 232.195C343.397 232.195 348.652 237.45 348.652 243.931C348.652 250.413 345.825 255.27 345.825 274.336C345.825 293.403 348.652 299.415 348.652 305.896C348.652 312.378 343.397 317.632 336.916 317.632C330.434 317.632 325.18 312.378 325.18 305.896V243.931C325.18 237.45 330.434 232.195 336.916 232.195Z" fill="url(#paint22_radial_2046_36912)"/>
<path fill-rule="evenodd" clip-rule="evenodd" d="M336.916 232.195C343.397 232.195 348.652 237.45 348.652 243.931C348.652 250.413 345.825 255.27 345.825 274.336C345.825 293.403 348.652 299.415 348.652 305.896C348.652 312.378 343.397 317.632 336.916 317.632C330.434 317.632 325.18 312.378 325.18 305.896V243.931C325.18 237.45 330.434 232.195 336.916 232.195Z" fill="url(#paint23_radial_2046_36912)" fill-opacity="0.2"/>
</g>
<path d="M255.314 472.448C260.597 472.204 271.169 471.393 276.426 470.838C307.227 465.977 335.728 450.129 360.517 431.861C390.753 410.934 418.574 385.115 440.084 355.122C473.588 308.836 482.779 247.467 460.096 194.246C449.434 169.122 432.116 146.254 413.847 126.265C371.259 83.5354 318.603 41.2878 255.317 41.1517C250.07 41.4238 239.521 42.257 234.298 42.8238C203.654 47.7268 175.209 63.3426 150.53 81.5487C126.113 98.386 103.195 119.143 84.2338 142.051C25.5556 213.435 25.7881 299.197 84.3727 370.579C105.616 396.662 130.591 418.952 158.027 438.354C186.523 458.396 219.973 472.363 255.317 472.448L255.314 472.448ZM255.314 438.422C187.356 437.892 131.385 427.003 95.2166 363.319C64.048 302.879 64.3797 209.958 95.3555 149.499C129.322 88.6991 180.24 73.3809 246.332 73.7295C273.635 73.1003 301.09 75.0388 327.789 81.3985C352.354 87.7043 374.935 100.809 392.522 119.165C409.675 137.751 421.301 160.688 427.681 184.976C438.99 232.823 439.08 279.88 427.352 327.615C415.063 376.35 378.245 420.371 327.957 431.73C304.075 437.251 279.607 437.835 255.314 438.422Z" fill="url(#paint24_radial_2046_36912)"/>
<defs>
<filter id="filter0_dii_2046_36912" x="132.835" y="120.915" width="247.339" height="97.0269" filterUnits="userSpaceOnUse" color-interpolation-filters="sRGB">
<feFlood flood-opacity="0" result="BackgroundImageFix"/>
<feColorMatrix in="SourceAlpha" type="matrix" values="0 0 0 0 0 0 0 0 0 0 0 0 0 0 0 0 0 0 127 0" result="hardAlpha"/>
<feOffset dy="2.0821"/>
<feGaussianBlur stdDeviation="3.33137"/>
<feComposite in2="hardAlpha" operator="out"/>
<feColorMatrix type="matrix" values="0 0 0 0 0.4 0 0 0 0 0.419608 0 0 0 0 0.988235 0 0 0 0.55 0"/>
<feBlend mode="normal" in2="BackgroundImageFix" result="effect1_dropShadow_2046_36912"/>
<feBlend mode="normal" in="SourceGraphic" in2="effect1_dropShadow_2046_36912" result="shape"/>
<feColorMatrix in="SourceAlpha" type="matrix" values="0 0 0 0 0 0 0 0 0 0 0 0 0 0 0 0 0 0 127 0" result="hardAlpha"/>
<feOffset dx="0.676562" dy="-0.845703"/>
<feGaussianBlur stdDeviation="2.19883"/>
<feComposite in2="hardAlpha" operator="arithmetic" k2="-1" k3="1"/>
<feColorMatrix type="matrix" values="0 0 0 0 1 0 0 0 0 1 0 0 0 0 1 0 0 0 1 0"/>
<feBlend mode="normal" in2="shape" result="effect2_innerShadow_2046_36912"/>
<feColorMatrix in="SourceAlpha" type="matrix" values="0 0 0 0 0 0 0 0 0 0 0 0 0 0 0 0 0 0 127 0" result="hardAlpha"/>
<feOffset dy="0.676562"/>
<feGaussianBlur stdDeviation="1.01484"/>
<feComposite in2="hardAlpha" operator="arithmetic" k2="-1" k3="1"/>
<feColorMatrix type="matrix" values="0 0 0 0 1 0 0 0 0 1 0 0 0 0 1 0 0 0 1 0"/>
<feBlend mode="normal" in2="effect2_innerShadow_2046_36912" result="effect3_innerShadow_2046_36912"/>
</filter>
<filter id="filter1_dii_2046_36912" x="133.017" y="336.056" width="247.037" height="36.7971" filterUnits="userSpaceOnUse" color-interpolation-filters="sRGB">
<feFlood flood-opacity="0" result="BackgroundImageFix"/>
<feColorMatrix in="SourceAlpha" type="matrix" values="0 0 0 0 0 0 0 0 0 0 0 0 0 0 0 0 0 0 127 0" result="hardAlpha"/>
<feOffset dy="2.0821"/>
<feGaussianBlur stdDeviation="3.33137"/>
<feComposite in2="hardAlpha" operator="out"/>
<feColorMatrix type="matrix" values="0 0 0 0 0.4 0 0 0 0 0.419608 0 0 0 0 0.988235 0 0 0 0.55 0"/>
<feBlend mode="normal" in2="BackgroundImageFix" result="effect1_dropShadow_2046_36912"/>
<feBlend mode="normal" in="SourceGraphic" in2="effect1_dropShadow_2046_36912" result="shape"/>
<feColorMatrix in="SourceAlpha" type="matrix" values="0 0 0 0 0 0 0 0 0 0 0 0 0 0 0 0 0 0 127 0" result="hardAlpha"/>
<feOffset dx="0.676562" dy="-0.845703"/>
<feGaussianBlur stdDeviation="2.19883"/>
<feComposite in2="hardAlpha" operator="arithmetic" k2="-1" k3="1"/>
<feColorMatrix type="matrix" values="0 0 0 0 1 0 0 0 0 1 0 0 0 0 1 0 0 0 1 0"/>
<feBlend mode="normal" in2="shape" result="effect2_innerShadow_2046_36912"/>
<feColorMatrix in="SourceAlpha" type="matrix" values="0 0 0 0 0 0 0 0 0 0 0 0 0 0 0 0 0 0 127 0" result="hardAlpha"/>
<feOffset dy="0.676562"/>
<feGaussianBlur stdDeviation="1.01484"/>
<feComposite in2="hardAlpha" operator="arithmetic" k2="-1" k3="1"/>
<feColorMatrix type="matrix" values="0 0 0 0 1 0 0 0 0 1 0 0 0 0 1 0 0 0 1 0"/>
<feBlend mode="normal" in2="effect2_innerShadow_2046_36912" result="effect3_innerShadow_2046_36912"/>
</filter>
<filter id="filter2_dii_2046_36912" x="157.752" y="227.615" width="36.7971" height="98.7621" filterUnits="userSpaceOnUse" color-interpolation-filters="sRGB">
<feFlood flood-opacity="0" result="BackgroundImageFix"/>
<feColorMatrix in="SourceAlpha" type="matrix" values="0 0 0 0 0 0 0 0 0 0 0 0 0 0 0 0 0 0 127 0" result="hardAlpha"/>
<feOffset dy="2.0821"/>
<feGaussianBlur stdDeviation="3.33137"/>
<feComposite in2="hardAlpha" operator="out"/>
<feColorMatrix type="matrix" values="0 0 0 0 0.4 0 0 0 0 0.419608 0 0 0 0 0.988235 0 0 0 0.55 0"/>
<feBlend mode="normal" in2="BackgroundImageFix" result="effect1_dropShadow_2046_36912"/>
<feBlend mode="normal" in="SourceGraphic" in2="effect1_dropShadow_2046_36912" result="shape"/>
<feColorMatrix in="SourceAlpha" type="matrix" values="0 0 0 0 0 0 0 0 0 0 0 0 0 0 0 0 0 0 127 0" result="hardAlpha"/>
<feOffset dx="0.676562" dy="-0.845703"/>
<feGaussianBlur stdDeviation="2.19883"/>
<feComposite in2="hardAlpha" operator="arithmetic" k2="-1" k3="1"/>
<feColorMatrix type="matrix" values="0 0 0 0 1 0 0 0 0 1 0 0 0 0 1 0 0 0 1 0"/>
<feBlend mode="normal" in2="shape" result="effect2_innerShadow_2046_36912"/>
<feColorMatrix in="SourceAlpha" type="matrix" values="0 0 0 0 0 0 0 0 0 0 0 0 0 0 0 0 0 0 127 0" result="hardAlpha"/>
<feOffset dy="0.676562"/>
<feGaussianBlur stdDeviation="1.01484"/>
<feComposite in2="hardAlpha" operator="arithmetic" k2="-1" k3="1"/>
<feColorMatrix type="matrix" values="0 0 0 0 1 0 0 0 0 1 0 0 0 0 1 0 0 0 1 0"/>
<feBlend mode="normal" in2="effect2_innerShadow_2046_36912" result="effect3_innerShadow_2046_36912"/>
</filter>
<filter id="filter3_dii_2046_36912" x="211.317" y="227.615" width="36.7971" height="98.7621" filterUnits="userSpaceOnUse" color-interpolation-filters="sRGB">
<feFlood flood-opacity="0" result="BackgroundImageFix"/>
<feColorMatrix in="SourceAlpha" type="matrix" values="0 0 0 0 0 0 0 0 0 0 0 0 0 0 0 0 0 0 127 0" result="hardAlpha"/>
<feOffset dy="2.0821"/>
<feGaussianBlur stdDeviation="3.33137"/>
<feComposite in2="hardAlpha" operator="out"/>
<feColorMatrix type="matrix" values="0 0 0 0 0.4 0 0 0 0 0.419608 0 0 0 0 0.988235 0 0 0 0.55 0"/>
<feBlend mode="normal" in2="BackgroundImageFix" result="effect1_dropShadow_2046_36912"/>
<feBlend mode="normal" in="SourceGraphic" in2="effect1_dropShadow_2046_36912" result="shape"/>
<feColorMatrix in="SourceAlpha" type="matrix" values="0 0 0 0 0 0 0 0 0 0 0 0 0 0 0 0 0 0 127 0" result="hardAlpha"/>
<feOffset dx="0.676562" dy="-0.845703"/>
<feGaussianBlur stdDeviation="2.19883"/>
<feComposite in2="hardAlpha" operator="arithmetic" k2="-1" k3="1"/>
<feColorMatrix type="matrix" values="0 0 0 0 1 0 0 0 0 1 0 0 0 0 1 0 0 0 1 0"/>
<feBlend mode="normal" in2="shape" result="effect2_innerShadow_2046_36912"/>
<feColorMatrix in="SourceAlpha" type="matrix" values="0 0 0 0 0 0 0 0 0 0 0 0 0 0 0 0 0 0 127 0" result="hardAlpha"/>
<feOffset dy="0.676562"/>
<feGaussianBlur stdDeviation="1.01484"/>
<feComposite in2="hardAlpha" operator="arithmetic" k2="-1" k3="1"/>
<feColorMatrix type="matrix" values="0 0 0 0 1 0 0 0 0 1 0 0 0 0 1 0 0 0 1 0"/>
<feBlend mode="normal" in2="effect2_innerShadow_2046_36912" result="effect3_innerShadow_2046_36912"/>
</filter>
<filter id="filter4_dii_2046_36912" x="264.918" y="227.619" width="36.7971" height="98.7621" filterUnits="userSpaceOnUse" color-interpolation-filters="sRGB">
<feFlood flood-opacity="0" result="BackgroundImageFix"/>
<feColorMatrix in="SourceAlpha" type="matrix" values="0 0 0 0 0 0 0 0 0 0 0 0 0 0 0 0 0 0 127 0" result="hardAlpha"/>
<feOffset dy="2.0821"/>
<feGaussianBlur stdDeviation="3.33137"/>
<feComposite in2="hardAlpha" operator="out"/>
<feColorMatrix type="matrix" values="0 0 0 0 0.4 0 0 0 0 0.419608 0 0 0 0 0.988235 0 0 0 0.55 0"/>
<feBlend mode="normal" in2="BackgroundImageFix" result="effect1_dropShadow_2046_36912"/>
<feBlend mode="normal" in="SourceGraphic" in2="effect1_dropShadow_2046_36912" result="shape"/>
<feColorMatrix in="SourceAlpha" type="matrix" values="0 0 0 0 0 0 0 0 0 0 0 0 0 0 0 0 0 0 127 0" result="hardAlpha"/>
<feOffset dx="0.676562" dy="-0.845703"/>
<feGaussianBlur stdDeviation="2.19883"/>
<feComposite in2="hardAlpha" operator="arithmetic" k2="-1" k3="1"/>
<feColorMatrix type="matrix" values="0 0 0 0 1 0 0 0 0 1 0 0 0 0 1 0 0 0 1 0"/>
<feBlend mode="normal" in2="shape" result="effect2_innerShadow_2046_36912"/>
<feColorMatrix in="SourceAlpha" type="matrix" values="0 0 0 0 0 0 0 0 0 0 0 0 0 0 0 0 0 0 127 0" result="hardAlpha"/>
<feOffset dy="0.676562"/>
<feGaussianBlur stdDeviation="1.01484"/>
<feComposite in2="hardAlpha" operator="arithmetic" k2="-1" k3="1"/>
<feColorMatrix type="matrix" values="0 0 0 0 1 0 0 0 0 1 0 0 0 0 1 0 0 0 1 0"/>
<feBlend mode="normal" in2="effect2_innerShadow_2046_36912" result="effect3_innerShadow_2046_36912"/>
</filter>
<filter id="filter5_dii_2046_36912" x="318.517" y="227.615" width="36.7971" height="98.7621" filterUnits="userSpaceOnUse" color-interpolation-filters="sRGB">
<feFlood flood-opacity="0" result="BackgroundImageFix"/>
<feColorMatrix in="SourceAlpha" type="matrix" values="0 0 0 0 0 0 0 0 0 0 0 0 0 0 0 0 0 0 127 0" result="hardAlpha"/>
<feOffset dy="2.0821"/>
<feGaussianBlur stdDeviation="3.33137"/>
<feComposite in2="hardAlpha" operator="out"/>
<feColorMatrix type="matrix" values="0 0 0 0 0.4 0 0 0 0 0.419608 0 0 0 0 0.988235 0 0 0 0.55 0"/>
<feBlend mode="normal" in2="BackgroundImageFix" result="effect1_dropShadow_2046_36912"/>
<feBlend mode="normal" in="SourceGraphic" in2="effect1_dropShadow_2046_36912" result="shape"/>
<feColorMatrix in="SourceAlpha" type="matrix" values="0 0 0 0 0 0 0 0 0 0 0 0 0 0 0 0 0 0 127 0" result="hardAlpha"/>
<feOffset dx="0.676562" dy="-0.845703"/>
<feGaussianBlur stdDeviation="2.19883"/>
<feComposite in2="hardAlpha" operator="arithmetic" k2="-1" k3="1"/>
<feColorMatrix type="matrix" values="0 0 0 0 1 0 0 0 0 1 0 0 0 0 1 0 0 0 1 0"/>
<feBlend mode="normal" in2="shape" result="effect2_innerShadow_2046_36912"/>
<feColorMatrix in="SourceAlpha" type="matrix" values="0 0 0 0 0 0 0 0 0 0 0 0 0 0 0 0 0 0 127 0" result="hardAlpha"/>
<feOffset dy="0.676562"/>
<feGaussianBlur stdDeviation="1.01484"/>
<feComposite in2="hardAlpha" operator="arithmetic" k2="-1" k3="1"/>
<feColorMatrix type="matrix" values="0 0 0 0 1 0 0 0 0 1 0 0 0 0 1 0 0 0 1 0"/>
<feBlend mode="normal" in2="effect2_innerShadow_2046_36912" result="effect3_innerShadow_2046_36912"/>
</filter>
<linearGradient id="paint0_linear_2046_36912" x1="324.156" y1="205.819" x2="293.663" y2="109.847" gradientUnits="userSpaceOnUse">
<stop stop-color="white"/>
<stop offset="1" stop-color="#B9FFF7"/>
</linearGradient>
<radialGradient id="paint1_radial_2046_36912" cx="0" cy="0" r="1" gradientUnits="userSpaceOnUse" gradientTransform="translate(479.227 141.702) rotate(168.666) scale(262.965 120.047)">
<stop stop-color="#B9C4FF"/>
<stop offset="0.888301" stop-color="#B9C4FF" stop-opacity="0"/>
</radialGradient>
<radialGradient id="paint2_radial_2046_36912" cx="0" cy="0" r="1" gradientUnits="userSpaceOnUse" gradientTransform="translate(184.077 142.041) rotate(27.7155) scale(154.535 136.763)">
<stop stop-color="white"/>
<stop offset="0.365385" stop-color="white" stop-opacity="0"/>
</radialGradient>
<radialGradient id="paint3_radial_2046_36912" cx="0" cy="0" r="1" gradientUnits="userSpaceOnUse" gradientTransform="translate(498.319 201.524) rotate(-176.494) scale(353.632 127.372)">
<stop offset="0.763241" stop-color="#9CFFF3" stop-opacity="0"/>
<stop offset="1" stop-color="#9CFFF3"/>
</radialGradient>
<linearGradient id="paint4_linear_2046_36912" x1="324.1" y1="363.161" x2="321.477" y2="333.766" gradientUnits="userSpaceOnUse">
<stop stop-color="white"/>
<stop offset="1" stop-color="#B9FFF7"/>
</linearGradient>
<radialGradient id="paint5_radial_2046_36912" cx="0" cy="0" r="1" gradientUnits="userSpaceOnUse" gradientTransform="translate(478.97 345.181) rotate(176.779) scale(257.911 34.2789)">
<stop stop-color="#B9C4FF"/>
<stop offset="0.888301" stop-color="#B9C4FF" stop-opacity="0"/>
</radialGradient>
<radialGradient id="paint6_radial_2046_36912" cx="0" cy="0" r="1" gradientUnits="userSpaceOnUse" gradientTransform="translate(184.202 345.276) rotate(8.39124) scale(138.106 42.8576)">
<stop stop-color="white"/>
<stop offset="0.464944" stop-color="white" stop-opacity="0"/>
</radialGradient>
<radialGradient id="paint7_radial_2046_36912" cx="0" cy="0" r="1" gradientUnits="userSpaceOnUse" gradientTransform="translate(498.037 361.957) rotate(-179.015) scale(352.567 35.7793)">
<stop offset="0.763241" stop-color="#9CFFF3" stop-opacity="0"/>
<stop offset="1" stop-color="#9CFFF3"/>
</radialGradient>
<linearGradient id="paint8_linear_2046_36912" x1="182.936" y1="314.183" x2="152.493" y2="304.768" gradientUnits="userSpaceOnUse">
<stop stop-color="white"/>
<stop offset="1" stop-color="#B9FFF7"/>
</linearGradient>
<radialGradient id="paint9_radial_2046_36912" cx="0" cy="0" r="1" gradientUnits="userSpaceOnUse" gradientTransform="translate(198.489 248.738) rotate(116.117) scale(58.7486 55.0129)">
<stop stop-color="#B9C4FF"/>
<stop offset="0.888301" stop-color="#B9C4FF" stop-opacity="0"/>
</radialGradient>
<radialGradient id="paint10_radial_2046_36912" cx="0" cy="0" r="1" gradientUnits="userSpaceOnUse" gradientTransform="translate(168.886 249.084) rotate(79.4057) scale(74.6332 28.9918)">
<stop stop-color="white"/>
<stop offset="0.365385" stop-color="white" stop-opacity="0"/>
</radialGradient>
<radialGradient id="paint11_radial_2046_36912" cx="0" cy="0" r="1" gradientUnits="userSpaceOnUse" gradientTransform="translate(200.404 309.8) rotate(-148.06) scale(41.7194 110.535)">
<stop offset="0.763241" stop-color="#9CFFF3" stop-opacity="0"/>
<stop offset="1" stop-color="#9CFFF3"/>
</radialGradient>
<linearGradient id="paint12_linear_2046_36912" x1="236.501" y1="314.183" x2="206.058" y2="304.768" gradientUnits="userSpaceOnUse">
<stop stop-color="white"/>
<stop offset="1" stop-color="#B9FFF7"/>
</linearGradient>
<radialGradient id="paint13_radial_2046_36912" cx="0" cy="0" r="1" gradientUnits="userSpaceOnUse" gradientTransform="translate(252.055 248.738) rotate(116.117) scale(58.7486 55.0129)">
<stop stop-color="#B9C4FF"/>
<stop offset="0.888301" stop-color="#B9C4FF" stop-opacity="0"/>
</radialGradient>
<radialGradient id="paint14_radial_2046_36912" cx="0" cy="0" r="1" gradientUnits="userSpaceOnUse" gradientTransform="translate(222.451 249.084) rotate(79.4057) scale(74.6332 28.9918)">
<stop stop-color="white"/>
<stop offset="0.365385" stop-color="white" stop-opacity="0"/>
</radialGradient>
<radialGradient id="paint15_radial_2046_36912" cx="0" cy="0" r="1" gradientUnits="userSpaceOnUse" gradientTransform="translate(253.97 309.8) rotate(-148.06) scale(41.7194 110.535)">
<stop offset="0.763241" stop-color="#9CFFF3" stop-opacity="0"/>
<stop offset="1" stop-color="#9CFFF3"/>
</radialGradient>
<linearGradient id="paint16_linear_2046_36912" x1="290.102" y1="314.188" x2="259.659" y2="304.772" gradientUnits="userSpaceOnUse">
<stop stop-color="white"/>
<stop offset="1" stop-color="#B9FFF7"/>
</linearGradient>
<radialGradient id="paint17_radial_2046_36912" cx="0" cy="0" r="1" gradientUnits="userSpaceOnUse" gradientTransform="translate(305.655 248.742) rotate(116.117) scale(58.7487 55.0129)">
<stop stop-color="#B9C4FF"/>
<stop offset="0.888301" stop-color="#B9C4FF" stop-opacity="0"/>
</radialGradient>
<radialGradient id="paint18_radial_2046_36912" cx="0" cy="0" r="1" gradientUnits="userSpaceOnUse" gradientTransform="translate(276.052 249.088) rotate(79.4057) scale(74.6332 28.9918)">
<stop stop-color="white"/>
<stop offset="0.365385" stop-color="white" stop-opacity="0"/>
</radialGradient>
<radialGradient id="paint19_radial_2046_36912" cx="0" cy="0" r="1" gradientUnits="userSpaceOnUse" gradientTransform="translate(307.57 309.804) rotate(-148.06) scale(41.7194 110.535)">
<stop offset="0.763241" stop-color="#9CFFF3" stop-opacity="0"/>
<stop offset="1" stop-color="#9CFFF3"/>
</radialGradient>
<linearGradient id="paint20_linear_2046_36912" x1="343.701" y1="314.183" x2="313.258" y2="304.768" gradientUnits="userSpaceOnUse">
<stop stop-color="white"/>
<stop offset="1" stop-color="#B9FFF7"/>
</linearGradient>
<radialGradient id="paint21_radial_2046_36912" cx="0" cy="0" r="1" gradientUnits="userSpaceOnUse" gradientTransform="translate(359.255 248.738) rotate(116.117) scale(58.7486 55.0129)">
<stop stop-color="#B9C4FF"/>
<stop offset="0.888301" stop-color="#B9C4FF" stop-opacity="0"/>
</radialGradient>
<radialGradient id="paint22_radial_2046_36912" cx="0" cy="0" r="1" gradientUnits="userSpaceOnUse" gradientTransform="translate(329.651 249.084) rotate(79.4057) scale(74.6332 28.9918)">
<stop stop-color="white"/>
<stop offset="0.365385" stop-color="white" stop-opacity="0"/>
</radialGradient>
<radialGradient id="paint23_radial_2046_36912" cx="0" cy="0" r="1" gradientUnits="userSpaceOnUse" gradientTransform="translate(361.17 309.8) rotate(-148.06) scale(41.7194 110.535)">
<stop offset="0.763241" stop-color="#9CFFF3" stop-opacity="0"/>
<stop offset="1" stop-color="#9CFFF3"/>
</radialGradient>
<radialGradient id="paint24_radial_2046_36912" cx="0" cy="0" r="1" gradientUnits="userSpaceOnUse" gradientTransform="translate(256.448 256.8) rotate(-44.1732) scale(263.427 245.044)">
<stop stop-color="#9FFFF4"/>
<stop offset="0.308778" stop-color="#9FA8FE"/>
<stop offset="0.65774" stop-color="#9CFFF3"/>
<stop offset="0.793158" stop-color="#D0D5FF"/>
<stop offset="0.839832" stop-color="white"/>
<stop offset="0.907743" stop-color="white"/>
<stop offset="1" stop-color="#E8EBFF"/>
</radialGradient>
</defs>
</svg>
