<svg width="100%" height="100%" viewBox="0 0 513 512" fill="none" xmlns="http://www.w3.org/2000/svg">
<circle cx="256.423" cy="256" r="256" fill="#5F5DF8"/>
<path d="M193.66 99.1054C220.923 93.079 248.007 91.1196 275.561 91.9921C314.099 91.8487 354.282 102.989 382.857 129.946C402.848 149.736 417.6 176.064 420.059 204.345C419.655 220.861 419.757 236.863 420.547 253.229C420.708 266.492 420.725 280.681 418.669 294.133C417.251 305.008 414.081 316.62 411.255 327.217C395.792 394.001 341.098 414.065 278.798 418.262C265.392 418.883 251.801 418.798 238.417 419.441C227.503 419.829 216.359 420.771 205.297 419.755C177.149 415.831 150.484 402.377 130.645 381.969L130.642 381.972C115.093 365.617 105.603 344.079 99.6157 322.598C95.5169 306.709 94.7137 290.457 93.2681 274.273C92.3831 260.908 91.7744 247.005 92.5513 233.582C93.1762 219.491 96.0493 206.029 99.0571 191.899C104.909 162.942 119.586 135.205 144.518 118.31C159.184 108.249 176.439 102.708 193.66 99.1054ZM388.337 177.207C384.095 187.619 377.448 196.717 370.925 205.896C357.61 226.104 350.793 249.266 339.668 270.761C333.18 285.746 326.317 301.528 314.026 312.676C302.217 324.404 285.288 329.909 270.06 335.817C255.246 342.298 241.126 349.298 227.56 357.73C213.576 365.746 201.697 376.763 187.077 384.207C184.809 385.317 182.395 386.376 179.879 387.339C189.324 393.208 199.316 398.278 209.738 402.449C219.016 406.158 228.655 410.754 238.776 412.017C259.24 414.827 279.816 407.874 297.45 397.909C326.3 380.323 345.132 351.448 370.74 329.99C377.919 323.508 385.157 316.498 390.989 308.693C405.135 288.027 415.33 262.931 414.222 237.482C414.08 227.073 409.458 217.274 404.914 208.226C399.899 197.564 394.49 187.114 388.337 177.207ZM365.131 147.192C349.326 132.908 305.304 147.641 290.393 160.019C278.147 169.488 267.534 180.998 259.024 194.072C250.784 206.994 243.378 220.561 232.538 231.255C222.307 242.642 205.504 247.153 193.194 255.984C186.967 260.647 180.976 265.627 175.337 270.958C158.417 286.546 148.648 308.968 144.308 330.815C142.471 342.058 141.424 355.417 149.125 363.527H149.128C158.204 369.508 169.966 368.121 181.22 366.373C203.787 363.815 226.332 354.832 242.233 337.978C253.747 327.205 261.819 313.136 268.939 299.196C276.461 285.571 286.465 275.086 299.29 266.5C312.417 258.455 325.703 249.924 336.83 239.127C348.599 229.175 359.536 217.578 364.548 202.741C367.083 195.49 368.048 187.66 368.841 180.326C369.976 168.712 371.842 156.851 365.479 147.561C365.437 147.519 365.396 147.475 365.354 147.433C365.28 147.352 365.205 147.272 365.131 147.192ZM339.456 124.54C307.762 101.944 267.773 90.805 230.21 107.037C201.892 117.088 184.535 142.64 163.987 162.795C151.337 176.714 136.159 188.509 124.398 203.393C118.222 211.094 113.524 220.261 109.706 229.342C99.5472 252.703 96.782 279.938 106.68 303.826C110.369 313.239 114.819 322.256 120.158 330.743C121.817 333.071 123.575 335.395 125.407 337.702C132.213 318.504 146.503 299.418 154.629 284.972C162.886 271.338 169.233 256.656 176.295 242.23C182.872 227.532 186.959 209.302 199.318 198.053C211.049 186.321 226.443 178.985 241.792 172.918C256.931 166.66 271.44 159.884 285.925 152.788C303.813 144.428 320.606 130.803 339.456 124.54Z" fill="url(#paint0_radial_2046_36923)"/>
<mask id="mask0_2046_36923" style="mask-type:alpha" maskUnits="userSpaceOnUse" x="112" y="107" width="295" height="294">
<circle cx="259.981" cy="253.999" r="146.986" fill="#D9D9D9"/>
</mask>
<g mask="url(#mask0_2046_36923)">
<path d="M130.34 381.932C104.842 352.241 139.619 311.027 154.293 284.938C162.55 271.304 168.897 256.622 175.96 242.197C182.536 227.498 186.623 209.269 198.982 198.019C210.713 186.287 226.107 178.951 241.457 172.884C256.596 166.627 271.105 159.851 285.59 152.755C311.791 140.51 335.642 116.963 367.052 121.813C384.594 124.903 395.092 143.763 392.243 160.435C390.425 178.529 380.367 192.104 370.59 205.863C357.275 226.07 350.457 249.232 339.332 270.727C332.844 285.713 325.982 301.494 313.691 312.642C301.882 324.37 284.953 329.875 269.725 335.784C254.91 342.264 240.791 349.264 227.225 357.697C213.241 365.713 201.362 376.729 186.741 384.173C170.045 392.348 145.44 397.801 130.346 381.934L130.34 381.932ZM148.793 363.494C157.869 369.475 169.63 368.087 180.884 366.339C203.451 363.781 225.997 354.799 241.898 337.945C253.412 327.172 261.483 313.102 268.603 299.163C276.126 285.537 286.129 275.052 298.954 266.466C312.081 258.421 325.367 249.891 336.494 239.093C348.263 229.142 359.2 217.545 364.213 202.707C366.748 195.456 367.712 187.627 368.506 180.293C369.646 168.623 371.525 156.704 365.054 147.395C349.474 132.711 305.049 147.54 290.057 159.986C277.811 169.455 267.198 180.965 258.688 194.038C250.448 206.96 243.043 220.527 232.202 231.221C221.971 242.609 205.168 247.12 192.858 255.951C186.632 260.614 180.641 265.594 175.002 270.925C158.082 286.513 148.313 308.934 143.973 330.782C142.135 342.024 141.088 355.383 148.789 363.494L148.793 363.494Z" fill="url(#paint1_radial_2046_36923)"/>
</g>
<defs>
<radialGradient id="paint0_radial_2046_36923" cx="0" cy="0" r="1" gradientUnits="userSpaceOnUse" gradientTransform="translate(258.429 257.757) rotate(135) scale(200.54 186.545)">
<stop stop-color="#9FFFF4"/>
<stop offset="0.308778" stop-color="#9FA8FE"/>
<stop offset="0.65774" stop-color="#9CFFF3"/>
<stop offset="0.793158" stop-color="#D0D5FF"/>
<stop offset="0.871284" stop-color="white"/>
<stop offset="0.907743" stop-color="white"/>
<stop offset="1" stop-color="#E8EBFF"/>
</radialGradient>
<radialGradient id="paint1_radial_2046_36923" cx="0" cy="0" r="1" gradientUnits="userSpaceOnUse" gradientTransform="translate(256.981 256.634) rotate(136.045) scale(259.795 104.004)">
<stop offset="0.107714" stop-color="#ACFFF5"/>
<stop offset="0.576122" stop-color="white"/>
<stop offset="0.777533" stop-color="#B9C4FF"/>
</radialGradient>
</defs>
</svg>
