<svg width="100%" height="100%" viewBox="0 0 30 30" fill="none" xmlns="http://www.w3.org/2000/svg">
<circle cx="15" cy="15" r="15" fill="#5F5DF8"/>
<g filter="url(#filter0_ii_116_3603)">
<path d="M19.8428 7.91797C19.8562 7.91831 19.8766 7.91891 19.8779 7.91895C20.241 7.93736 20.5303 8.23783 20.5303 8.60547C20.5301 8.97295 20.2409 9.27261 19.8779 9.29102L19.8428 9.29199V9.29199C19.4674 9.29199 19.1631 9.5963 19.1631 9.97168V11.2119C19.1629 11.7252 18.9587 12.2171 18.5957 12.5801V12.5801C17.1781 13.6863 17.1117 15.8076 18.4573 17.0004L18.5957 17.123C18.9589 17.4861 19.1629 17.9787 19.1631 18.4922V19.6973C19.1631 20.0921 19.4831 20.4121 19.8779 20.4121V20.4121C20.241 20.4305 20.5302 20.7311 20.5303 21.0986C20.5303 21.4663 20.241 21.7667 19.8779 21.7852C19.8766 21.7852 19.8561 21.7858 19.8428 21.7861C18.1311 21.8291 16.8298 21.5322 15 21.5322C13.1702 21.5322 10.5368 21.7861 10.1572 21.7861C9.77789 21.7859 9.4707 21.478 9.4707 21.0986C9.47079 20.7194 9.77795 20.4124 10.1572 20.4121V20.4121C10.5326 20.4121 10.8369 20.1078 10.8369 19.7324V18.4922L10.8379 18.4443C10.8503 17.9482 11.0524 17.4748 11.4043 17.123L11.5427 17.0003C12.888 15.8074 12.8216 13.6865 11.4043 12.5801V12.5801C11.0414 12.2171 10.8371 11.7251 10.8369 11.2119V9.97168C10.8369 9.5963 10.5326 9.29199 10.1572 9.29199V9.29199C9.778 9.29174 9.47088 8.98466 9.4707 8.60547C9.4707 8.22612 9.77789 7.91822 10.1572 7.91797C10.5368 7.91797 13.1717 8.04199 15 8.04199C16.8283 8.04199 18.1327 7.87488 19.8428 7.91797ZM17.5068 18.0361C16.101 16.7047 13.899 16.7047 12.4932 18.0361C12.3877 18.1415 12.2696 18.3441 12.2695 18.4932V18.4932C12.294 19.56 13.1658 20.4121 14.2329 20.4121H15.8892C16.8896 20.4121 17.7071 19.6135 17.7305 18.6133V18.6133V18.4648C17.7235 18.3259 17.6057 18.1349 17.5068 18.0361ZM14.2764 9.29199C13.2009 9.29199 12.3291 10.1638 12.3291 11.2393V11.2393C12.3356 11.3689 12.3875 11.4927 12.4746 11.5889L12.4932 11.6084C13.9251 12.8726 16.0749 12.8726 17.5068 11.6084L17.5264 11.5889C17.6197 11.4858 17.6718 11.3507 17.6719 11.2109V11.2109C17.6719 10.1511 16.8127 9.29199 15.7529 9.29199H14.2764Z" fill="url(#paint0_linear_116_3603)"/>
<path d="M19.8428 7.91797C19.8562 7.91831 19.8766 7.91891 19.8779 7.91895C20.241 7.93736 20.5303 8.23783 20.5303 8.60547C20.5301 8.97295 20.2409 9.27261 19.8779 9.29102L19.8428 9.29199V9.29199C19.4674 9.29199 19.1631 9.5963 19.1631 9.97168V11.2119C19.1629 11.7252 18.9587 12.2171 18.5957 12.5801V12.5801C17.1781 13.6863 17.1117 15.8076 18.4573 17.0004L18.5957 17.123C18.9589 17.4861 19.1629 17.9787 19.1631 18.4922V19.6973C19.1631 20.0921 19.4831 20.4121 19.8779 20.4121V20.4121C20.241 20.4305 20.5302 20.7311 20.5303 21.0986C20.5303 21.4663 20.241 21.7667 19.8779 21.7852C19.8766 21.7852 19.8561 21.7858 19.8428 21.7861C18.1311 21.8291 16.8298 21.5322 15 21.5322C13.1702 21.5322 10.5368 21.7861 10.1572 21.7861C9.77789 21.7859 9.4707 21.478 9.4707 21.0986C9.47079 20.7194 9.77795 20.4124 10.1572 20.4121V20.4121C10.5326 20.4121 10.8369 20.1078 10.8369 19.7324V18.4922L10.8379 18.4443C10.8503 17.9482 11.0524 17.4748 11.4043 17.123L11.5427 17.0003C12.888 15.8074 12.8216 13.6865 11.4043 12.5801V12.5801C11.0414 12.2171 10.8371 11.7251 10.8369 11.2119V9.97168C10.8369 9.5963 10.5326 9.29199 10.1572 9.29199V9.29199C9.778 9.29174 9.47088 8.98466 9.4707 8.60547C9.4707 8.22612 9.77789 7.91822 10.1572 7.91797C10.5368 7.91797 13.1717 8.04199 15 8.04199C16.8283 8.04199 18.1327 7.87488 19.8428 7.91797ZM17.5068 18.0361C16.101 16.7047 13.899 16.7047 12.4932 18.0361C12.3877 18.1415 12.2696 18.3441 12.2695 18.4932V18.4932C12.294 19.56 13.1658 20.4121 14.2329 20.4121H15.8892C16.8896 20.4121 17.7071 19.6135 17.7305 18.6133V18.6133V18.4648C17.7235 18.3259 17.6057 18.1349 17.5068 18.0361ZM14.2764 9.29199C13.2009 9.29199 12.3291 10.1638 12.3291 11.2393V11.2393C12.3356 11.3689 12.3875 11.4927 12.4746 11.5889L12.4932 11.6084C13.9251 12.8726 16.0749 12.8726 17.5068 11.6084L17.5264 11.5889C17.6197 11.4858 17.6718 11.3507 17.6719 11.2109V11.2109C17.6719 10.1511 16.8127 9.29199 15.7529 9.29199H14.2764Z" fill="url(#paint1_radial_116_3603)"/>
<path d="M19.8428 7.91797C19.8562 7.91831 19.8766 7.91891 19.8779 7.91895C20.241 7.93736 20.5303 8.23783 20.5303 8.60547C20.5301 8.97295 20.2409 9.27261 19.8779 9.29102L19.8428 9.29199V9.29199C19.4674 9.29199 19.1631 9.5963 19.1631 9.97168V11.2119C19.1629 11.7252 18.9587 12.2171 18.5957 12.5801V12.5801C17.1781 13.6863 17.1117 15.8076 18.4573 17.0004L18.5957 17.123C18.9589 17.4861 19.1629 17.9787 19.1631 18.4922V19.6973C19.1631 20.0921 19.4831 20.4121 19.8779 20.4121V20.4121C20.241 20.4305 20.5302 20.7311 20.5303 21.0986C20.5303 21.4663 20.241 21.7667 19.8779 21.7852C19.8766 21.7852 19.8561 21.7858 19.8428 21.7861C18.1311 21.8291 16.8298 21.5322 15 21.5322C13.1702 21.5322 10.5368 21.7861 10.1572 21.7861C9.77789 21.7859 9.4707 21.478 9.4707 21.0986C9.47079 20.7194 9.77795 20.4124 10.1572 20.4121V20.4121C10.5326 20.4121 10.8369 20.1078 10.8369 19.7324V18.4922L10.8379 18.4443C10.8503 17.9482 11.0524 17.4748 11.4043 17.123L11.5427 17.0003C12.888 15.8074 12.8216 13.6865 11.4043 12.5801V12.5801C11.0414 12.2171 10.8371 11.7251 10.8369 11.2119V9.97168C10.8369 9.5963 10.5326 9.29199 10.1572 9.29199V9.29199C9.778 9.29174 9.47088 8.98466 9.4707 8.60547C9.4707 8.22612 9.77789 7.91822 10.1572 7.91797C10.5368 7.91797 13.1717 8.04199 15 8.04199C16.8283 8.04199 18.1327 7.87488 19.8428 7.91797ZM17.5068 18.0361C16.101 16.7047 13.899 16.7047 12.4932 18.0361C12.3877 18.1415 12.2696 18.3441 12.2695 18.4932V18.4932C12.294 19.56 13.1658 20.4121 14.2329 20.4121H15.8892C16.8896 20.4121 17.7071 19.6135 17.7305 18.6133V18.6133V18.4648C17.7235 18.3259 17.6057 18.1349 17.5068 18.0361ZM14.2764 9.29199C13.2009 9.29199 12.3291 10.1638 12.3291 11.2393V11.2393C12.3356 11.3689 12.3875 11.4927 12.4746 11.5889L12.4932 11.6084C13.9251 12.8726 16.0749 12.8726 17.5068 11.6084L17.5264 11.5889C17.6197 11.4858 17.6718 11.3507 17.6719 11.2109V11.2109C17.6719 10.1511 16.8127 9.29199 15.7529 9.29199H14.2764Z" fill="url(#paint2_radial_116_3603)"/>
<path d="M19.8428 7.91797C19.8562 7.91831 19.8766 7.91891 19.8779 7.91895C20.241 7.93736 20.5303 8.23783 20.5303 8.60547C20.5301 8.97295 20.2409 9.27261 19.8779 9.29102L19.8428 9.29199V9.29199C19.4674 9.29199 19.1631 9.5963 19.1631 9.97168V11.2119C19.1629 11.7252 18.9587 12.2171 18.5957 12.5801V12.5801C17.1781 13.6863 17.1117 15.8076 18.4573 17.0004L18.5957 17.123C18.9589 17.4861 19.1629 17.9787 19.1631 18.4922V19.6973C19.1631 20.0921 19.4831 20.4121 19.8779 20.4121V20.4121C20.241 20.4305 20.5302 20.7311 20.5303 21.0986C20.5303 21.4663 20.241 21.7667 19.8779 21.7852C19.8766 21.7852 19.8561 21.7858 19.8428 21.7861C18.1311 21.8291 16.8298 21.5322 15 21.5322C13.1702 21.5322 10.5368 21.7861 10.1572 21.7861C9.77789 21.7859 9.4707 21.478 9.4707 21.0986C9.47079 20.7194 9.77795 20.4124 10.1572 20.4121V20.4121C10.5326 20.4121 10.8369 20.1078 10.8369 19.7324V18.4922L10.8379 18.4443C10.8503 17.9482 11.0524 17.4748 11.4043 17.123L11.5427 17.0003C12.888 15.8074 12.8216 13.6865 11.4043 12.5801V12.5801C11.0414 12.2171 10.8371 11.7251 10.8369 11.2119V9.97168C10.8369 9.5963 10.5326 9.29199 10.1572 9.29199V9.29199C9.778 9.29174 9.47088 8.98466 9.4707 8.60547C9.4707 8.22612 9.77789 7.91822 10.1572 7.91797C10.5368 7.91797 13.1717 8.04199 15 8.04199C16.8283 8.04199 18.1327 7.87488 19.8428 7.91797ZM17.5068 18.0361C16.101 16.7047 13.899 16.7047 12.4932 18.0361C12.3877 18.1415 12.2696 18.3441 12.2695 18.4932V18.4932C12.294 19.56 13.1658 20.4121 14.2329 20.4121H15.8892C16.8896 20.4121 17.7071 19.6135 17.7305 18.6133V18.6133V18.4648C17.7235 18.3259 17.6057 18.1349 17.5068 18.0361ZM14.2764 9.29199C13.2009 9.29199 12.3291 10.1638 12.3291 11.2393V11.2393C12.3356 11.3689 12.3875 11.4927 12.4746 11.5889L12.4932 11.6084C13.9251 12.8726 16.0749 12.8726 17.5068 11.6084L17.5264 11.5889C17.6197 11.4858 17.6718 11.3507 17.6719 11.2109V11.2109C17.6719 10.1511 16.8127 9.29199 15.7529 9.29199H14.2764Z" fill="url(#paint3_radial_116_3603)" fill-opacity="0.2"/>
</g>
<path d="M14.9307 27.6941C15.2403 27.6798 15.8597 27.6323 16.1678 27.5998C17.9725 27.315 19.6425 26.3864 21.095 25.316C22.8666 24.0898 24.4968 22.577 25.7571 20.8196C27.7202 18.1075 28.2588 14.5116 26.9297 11.3932C26.3049 9.9211 25.2902 8.58116 24.2197 7.40995C21.7244 4.90627 18.6391 2.43082 14.9309 2.42285C14.6235 2.43879 14.0054 2.48762 13.6993 2.52083C11.9037 2.80811 10.237 3.7231 8.79107 4.78986C7.36036 5.77642 6.01751 6.99264 4.9065 8.3349C1.46832 12.5176 1.48194 17.5427 4.91463 21.7253C6.15934 23.2535 7.62276 24.5596 9.23033 25.6964C10.9 26.8708 12.86 27.6891 14.9309 27.6941L14.9307 27.6941ZM14.9307 25.7004C10.9488 25.6693 7.66926 25.0313 5.55002 21.2998C3.72374 17.7584 3.74317 12.3138 5.55816 8.7713C7.54836 5.20883 10.5318 4.31128 14.4044 4.3317C16.0042 4.29484 17.6129 4.40842 19.1773 4.78106C20.6167 5.15054 21.9398 5.9184 22.9702 6.99397C23.9753 8.08299 24.6565 9.4269 25.0303 10.85C25.693 13.6536 25.6983 16.4109 25.0111 19.2078C24.291 22.0634 22.1337 24.6428 19.1871 25.3083C17.7878 25.6318 16.3541 25.666 14.9307 25.7004Z" fill="url(#paint4_radial_116_3603)"/>
<defs>
<filter id="filter0_ii_116_3603" x="9.4707" y="7.06543" width="11.7361" height="16.7246" filterUnits="userSpaceOnUse" color-interpolation-filters="sRGB">
<feFlood flood-opacity="0" result="BackgroundImageFix"/>
<feBlend mode="normal" in="SourceGraphic" in2="BackgroundImageFix" result="shape"/>
<feColorMatrix in="SourceAlpha" type="matrix" values="0 0 0 0 0 0 0 0 0 0 0 0 0 0 0 0 0 0 127 0" result="hardAlpha"/>
<feOffset dx="0.676562" dy="-0.845703"/>
<feGaussianBlur stdDeviation="2.19883"/>
<feComposite in2="hardAlpha" operator="arithmetic" k2="-1" k3="1"/>
<feColorMatrix type="matrix" values="0 0 0 0 1 0 0 0 0 1 0 0 0 0 1 0 0 0 1 0"/>
<feBlend mode="normal" in2="shape" result="effect1_innerShadow_116_3603"/>
<feColorMatrix in="SourceAlpha" type="matrix" values="0 0 0 0 0 0 0 0 0 0 0 0 0 0 0 0 0 0 127 0" result="hardAlpha"/>
<feOffset dy="2"/>
<feGaussianBlur stdDeviation="6"/>
<feComposite in2="hardAlpha" operator="arithmetic" k2="-1" k3="1"/>
<feColorMatrix type="matrix" values="0 0 0 0 1 0 0 0 0 1 0 0 0 0 1 0 0 0 1 0"/>
<feBlend mode="normal" in2="effect1_innerShadow_116_3603" result="effect2_innerShadow_116_3603"/>
</filter>
<linearGradient id="paint0_linear_116_3603" x1="17.9263" y1="21.2265" x2="9.33961" y2="14.1718" gradientUnits="userSpaceOnUse">
<stop stop-color="white"/>
<stop offset="1" stop-color="#B9FFF7"/>
</linearGradient>
<radialGradient id="paint1_radial_116_3603" cx="0" cy="0" r="1" gradientUnits="userSpaceOnUse" gradientTransform="translate(21.7846 9.03654) rotate(122.64) scale(15.146 17.333)">
<stop stop-color="#B9C4FF"/>
<stop offset="0.888301" stop-color="#B9C4FF" stop-opacity="0"/>
</radialGradient>
<radialGradient id="paint2_radial_116_3603" cx="0" cy="0" r="1" gradientUnits="userSpaceOnUse" gradientTransform="translate(11.2035 7.91295) rotate(65.8157) scale(16.0644 13.7603)">
<stop stop-color="white"/>
<stop offset="0.649038" stop-color="white" stop-opacity="0"/>
</radialGradient>
<radialGradient id="paint3_radial_116_3603" cx="0" cy="0" r="1" gradientUnits="userSpaceOnUse" gradientTransform="translate(25.4588 20.515) rotate(-166.793) scale(15.6807 20.5839)">
<stop offset="0.763241" stop-color="#9CFFF3" stop-opacity="0"/>
<stop offset="1" stop-color="#9CFFF3"/>
</radialGradient>
<radialGradient id="paint4_radial_116_3603" cx="0" cy="0" r="1" gradientUnits="userSpaceOnUse" gradientTransform="translate(14.9972 15.0585) rotate(-44.1732) scale(15.4352 14.358)">
<stop stop-color="#9FFFF4"/>
<stop offset="0.308778" stop-color="#9FA8FE"/>
<stop offset="0.65774" stop-color="#9CFFF3"/>
<stop offset="0.793158" stop-color="#D0D5FF"/>
<stop offset="0.839832" stop-color="white"/>
<stop offset="0.907743" stop-color="white"/>
<stop offset="1" stop-color="#E8EBFF"/>
</radialGradient>
</defs>
</svg>
