<svg width="100%" height="100%" viewBox="0 0 256 256" fill="none" xmlns="http://www.w3.org/2000/svg">
        <g clipPath="url(#clip0_95_3602)">
          <path
            fill-rule="evenodd"
            clip-rule="evenodd"
            d="M128 0C198.697 0 256 57.3026 256 128C256 198.697 198.697 256 128 256C57.3026 256 0 198.697 0 128C0 57.3026 57.3026 0 128 0Z"
            fill="#F0B90B"
          />
          <path
            d="M70.3488 128L70.4411 161.847L99.2001 178.77V198.585L53.6104 171.847V118.103L70.3488 128ZM70.3488 94.1543V113.877L53.6001 103.97V84.2466L70.3488 74.3389L87.1796 84.2466L70.3488 94.1543ZM111.21 84.2466L127.959 74.3389L144.79 84.2466L127.959 94.1543L111.21 84.2466Z"
            fill="white"
          />
          <path
            d="M82.4512 154.831V135.016L99.1999 144.923V164.647L82.4512 154.831ZM111.21 185.867L127.959 195.775L144.79 185.867V205.59L127.959 215.498L111.21 205.59V185.867ZM168.81 84.2466L185.559 74.3389L202.39 84.2466V103.97L185.559 113.877V94.1543L168.81 84.2466ZM185.559 161.847L185.651 128L202.4 118.093V171.836L156.81 198.575V178.759L185.559 161.847Z"
            fill="white"
          />
          <path d="M173.549 154.831L156.8 164.646V144.923L173.549 135.016V154.831Z" fill="white" />
          <path
            d="M173.549 101.17L173.641 120.985L144.8 137.908V171.836L128.051 181.652L111.302 171.836V137.908L82.4614 120.985V101.17L99.2819 91.2619L127.949 108.267L156.79 91.2619L173.62 101.17H173.549ZM82.4512 67.3337L127.959 40.5029L173.549 67.3337L156.8 77.2414L127.959 60.2363L99.1999 77.2414L82.4512 67.3337Z"
            fill="white"
          />
        </g>
        <defs>
          <clipPath id="clip0_95_3602">
            <rect width="256" height="256" fill="white" />
          </clipPath>
        </defs>
      </svg>