<svg width="100%" height="100%" viewBox="0 0 20 20" fill="none" xmlns="http://www.w3.org/2000/svg">
<g clip-path="url(#clip0_24_57)">
<path d="M0 10C0 15.5228 4.47715 20 10 20C15.5228 20 20 15.5228 20 10C20 4.47715 15.5228 0 10 0C4.47715 0 0 4.47715 0 10Z" fill="#E1E7FF"/>
<path d="M14.0001 10.0925L10.0066 3.5V8.26505L14.0001 10.0925Z" fill="#62688F"/>
<path d="M9.99319 16.4998V13.2383L6.04492 10.8789L9.99319 16.4998Z" fill="#8A92B2"/>
<path d="M10.0066 16.4998V13.2383L13.9549 10.8789L10.0066 16.4998Z" fill="#62688F"/>
<path d="M9.99361 12.4277V8.26514L6 10.0925L9.99361 12.4277Z" fill="#62688F"/>
<path d="M10.0066 12.4277V8.26514L14.0002 10.0925L10.0066 12.4277Z" fill="#454A75"/>
<path d="M6 10.0925L9.99361 3.5V8.26505L6 10.0925Z" fill="#8A92B2"/>
</g>
<defs>
<clipPath id="clip0_24_57">
<rect width="20" height="20" rx="10" fill="white"/>
</clipPath>
</defs>
</svg>
