<svg width="100%" height="100%" viewBox="0 0 20 20" fill="none" xmlns="http://www.w3.org/2000/svg">
<path fill-rule="evenodd" clip-rule="evenodd" d="M9.99998 0C15.5229 0 20 4.47717 20 10C20 15.5228 15.5229 20 9.99998 20C4.47714 20 0 15.5228 0 10C0 4.47717 4.47714 0 9.99998 0Z" fill="#0085FF"/>
<path d="M8.47534 16.1271C8.47534 16.3314 8.31274 16.4472 8.12303 16.3859C5.49431 15.5412 3.59729 13.075 3.59729 10.1523C3.59729 7.23652 5.49431 4.76352 8.12303 3.91875C8.31951 3.85744 8.47534 3.97325 8.47534 4.17763V4.68858C8.47534 4.82484 8.37371 4.98153 8.24499 5.02922C6.16504 5.79905 4.6813 7.80879 4.6813 10.1523C4.6813 12.5027 6.16504 14.5056 8.24499 15.2687C8.37371 15.3163 8.47534 15.473 8.47534 15.6093V16.1271Z" fill="white"/>
<path d="M10.5848 14.3069C10.5848 14.4536 10.4621 14.5737 10.3121 14.5737H9.76677C9.6168 14.5737 9.49409 14.4536 9.49409 14.3069V13.4666C8.30109 13.3065 7.72164 12.6596 7.56485 11.766C7.53758 11.6126 7.66029 11.4792 7.81708 11.4792H8.43744C8.56696 11.4792 8.67604 11.5726 8.7033 11.6926C8.8192 12.2195 9.13278 12.6263 10.0872 12.6263C10.7893 12.6263 11.2938 12.2395 11.2938 11.6659C11.2938 11.0924 11.0007 10.8723 9.96447 10.7056C8.43744 10.5055 7.71482 10.052 7.71482 8.88486C7.71482 7.98452 8.41699 7.27758 9.49409 7.13086V6.30388C9.49409 6.15716 9.6168 6.03711 9.76677 6.03711H10.3121C10.4621 6.03711 10.5848 6.15716 10.5848 6.30388V7.15087C11.4642 7.30426 12.0232 7.79111 12.2073 8.60475C12.2414 8.75815 12.1187 8.8982 11.9551 8.8982H11.3824C11.2597 8.8982 11.1575 8.81817 11.1234 8.70479C10.9666 8.19126 10.5916 7.96451 9.9372 7.96451C9.21459 7.96451 8.83965 8.30464 8.83965 8.78482C8.83965 9.29168 9.05098 9.54511 10.1622 9.6985C11.6619 9.89858 12.4391 10.3187 12.4391 11.5659C12.4391 12.5129 11.7165 13.2799 10.5916 13.4533V14.3069H10.5848Z" fill="white"/>
<path d="M11.8771 16.3859C11.6806 16.4473 11.5248 16.3314 11.5248 16.1267V15.6152C11.5248 15.4652 11.6129 15.322 11.7551 15.2742C13.8283 14.5104 15.3188 12.4985 15.3188 10.1523C15.3188 7.79941 13.8351 5.7943 11.7551 5.03045C11.6264 4.98271 11.5248 4.82584 11.5248 4.68944V4.17794C11.5248 3.97333 11.6874 3.85739 11.8771 3.91877C14.5058 4.75082 16.4028 7.22652 16.4028 10.1455C16.4028 13.0713 14.5058 15.5402 11.8771 16.3859Z" fill="white"/>
</svg>
