<svg width="100%" height="100%" viewBox="0 0 20 20" fill="none" xmlns="http://www.w3.org/2000/svg">
<g clip-path="url(#clip0_24_504)">
<path d="M20 10C20 4.47715 15.5228 0 10 0C4.47715 0 0 4.47715 0 10C0 15.5228 4.47715 20 10 20C15.5228 20 20 15.5228 20 10Z" fill="#50AF95"/>
<path fill-rule="evenodd" clip-rule="evenodd" d="M11.0682 10.6067C11.0085 10.6111 10.7003 10.6292 10.0127 10.6292C9.46578 10.6292 9.07748 10.6131 8.94125 10.6067C6.82773 10.5154 5.25017 10.154 5.25017 9.72135C5.25017 9.28867 6.82773 8.92777 8.94125 8.83499V10.2468C9.07947 10.2566 9.47522 10.2795 10.0221 10.2795C10.6784 10.2795 11.007 10.2527 11.0662 10.2473V8.83596C13.1753 8.92826 14.7493 9.28965 14.7493 9.72135C14.7493 10.1531 13.1758 10.5144 11.0662 10.6063L11.0682 10.6067ZM11.0682 8.68995V7.42657H14.0115V5.5H5.99793V7.42657H8.94075V8.68946C6.54881 8.79738 4.75 9.26279 4.75 9.82049C4.75 10.3782 6.54881 10.8431 8.94075 10.9515V15H11.0677V10.9501C13.4542 10.8421 15.25 10.3772 15.25 9.82C15.25 9.26279 13.4557 8.79787 11.0677 8.68946L11.0682 8.68995Z" fill="white"/>
</g>
<defs>
<clipPath id="clip0_24_504">
<rect width="20" height="20" fill="white"/>
</clipPath>
</defs>
</svg>
