<svg width="100%" height="100%" viewBox="0 0 20 20" fill="none" xmlns="http://www.w3.org/2000/svg">
<g clip-path="url(#clip0_24_143)">
<path d="M20 10C20 4.47715 15.5228 0 10 0C4.47715 0 0 4.47715 0 10C0 15.5228 4.47715 20 10 20C15.5228 20 20 15.5228 20 10Z" fill="#E1E7FF"/>
<path d="M14.1441 14.5981C12.6121 15.9223 11.1082 15.9464 9.17452 15.9861C8.02974 16.0096 5.59886 16.0931 4.69184 15.3644C3.6654 14.5392 5.5432 13.9146 6.16301 13.8797C6.19814 13.8492 5.92768 13.6076 5.89391 13.5687C5.19763 12.7719 4.41139 11.531 4.22685 10.4854C3.5222 6.49415 7.22188 3.16869 11.1255 4.29023C12.018 4.54664 12.6118 5.00326 13.2905 5.6074C13.8477 6.10346 14.5561 6.74083 14.9865 7.33957C16.6066 9.59428 16.2442 12.7828 14.1441 14.5981ZM12.0215 5.21698C9.46578 3.78147 6.23623 4.85303 5.06038 7.52789C5.00526 7.65352 4.74291 8.35547 4.76317 8.43653C4.77857 8.49867 5.39676 8.80182 5.43216 8.77696C6.30027 6.08509 9.26881 4.49125 12.0077 5.27074L12.0215 5.21698ZM15.4893 10.5002C15.4893 7.78402 13.2868 5.582 10.5698 5.582C7.85276 5.582 5.6502 7.78402 5.6502 10.5002C5.6502 13.2164 7.85276 15.4184 10.5698 15.4184C13.2868 15.4184 15.4893 13.2164 15.4893 10.5002ZM4.65158 9.11632C4.60808 9.2633 4.68374 9.61832 4.65158 9.79097L5.16413 10.0204L5.27329 9.38596C5.27437 9.3503 5.25302 9.33976 5.22897 9.32166C5.19034 9.29221 4.74615 9.07525 4.71778 9.07552C4.69211 9.07579 4.6578 9.09605 4.65158 9.11632ZM5.29922 11.7747C5.28301 11.5602 5.22006 11.3521 5.19196 11.14C5.17413 11.0057 5.19736 10.7896 5.15954 10.6596C5.13927 10.5899 4.84342 10.4564 4.75993 10.4521C4.72454 10.4889 4.82964 10.9158 4.85504 10.9911C4.90961 11.1541 5.09847 11.5361 5.19628 11.6755C5.22249 11.7128 5.25626 11.7574 5.29949 11.7744L5.29922 11.7747Z" fill="#070506"/>
<path d="M15.4893 10.5002C15.4893 13.2164 13.2868 15.4185 10.5698 15.4185C7.85277 15.4185 5.65021 13.2164 5.65021 10.5002C5.65021 7.78406 7.85277 5.58203 10.5698 5.58203C13.2868 5.58203 15.4893 7.78406 15.4893 10.5002ZM6.81147 9.5346H6.24462L6.90442 11.5064C7.0052 11.4856 7.30537 11.5405 7.36563 11.4786L7.74281 10.4249L8.1208 11.4778C8.16619 11.5321 8.5304 11.5029 8.62146 11.4924L9.26828 9.5346H8.71494L8.36397 10.6145L7.99597 9.53811H7.5172L7.18919 10.5416C7.19541 10.5718 7.13435 10.5654 7.12219 10.5605C7.07247 10.5405 6.86713 9.65483 6.81174 9.5346H6.81147ZM11.0499 9.5346H9.49767C9.4947 9.5346 9.45714 9.57215 9.45714 9.57513V11.4373C9.45714 11.4462 9.49281 11.4783 9.48416 11.5048H11.0499V11.019H10.024V10.7221H10.9418V10.3308C10.9418 10.3279 10.9043 10.2903 10.9013 10.2903H10.024V10.0204H11.0094C11.0123 10.0204 11.0499 9.98284 11.0499 9.97987V9.5346ZM12.9396 9.5346H11.2117V10.0204H11.7651C11.7681 10.0204 11.8056 10.058 11.8056 10.0609V11.5048H12.3725V10.0204H12.9393V9.5346H12.9396ZM13.7223 10.2633V9.57513C13.7223 9.57215 13.6848 9.5346 13.6818 9.5346H13.1555V11.4643C13.1555 11.4672 13.193 11.5048 13.196 11.5048H13.7223V10.7761H14.3972V11.4643C14.3972 11.4672 14.4348 11.5048 14.4378 11.5048H14.9641V9.5346H14.3972V10.2633H13.7223Z" fill="#FEFEFE"/>
<path d="M12.0215 5.21709L12.0077 5.27085C9.26884 4.49109 6.30029 6.0852 5.43218 8.77707C5.39706 8.80193 4.77887 8.49851 4.7632 8.43664C4.74294 8.35558 5.00502 7.65363 5.06041 7.528C6.23626 4.85341 9.46581 3.78158 12.0215 5.21709Z" fill="#E21E74"/>
<path d="M4.65157 9.11648C4.65751 9.09649 4.6921 9.07595 4.71776 9.07568C4.74613 9.07541 5.19032 9.29237 5.22896 9.32182C5.253 9.3402 5.27435 9.35073 5.27327 9.38613L5.16411 10.0205L4.65157 9.79114C4.68372 9.61849 4.60807 9.26346 4.65157 9.11648Z" fill="#E21E74"/>
<path d="M5.29926 11.7744C5.25576 11.7574 5.22199 11.7128 5.19605 11.6756C5.09824 11.5361 4.90938 11.1541 4.8548 10.9912C4.82968 10.9158 4.7243 10.4889 4.7597 10.4521C4.84319 10.4565 5.13904 10.5899 5.1593 10.6597C5.19713 10.7896 5.17389 11.0055 5.19173 11.14C5.21983 11.3521 5.28278 11.5602 5.29899 11.7747L5.29926 11.7744Z" fill="#E21E74"/>
<path d="M6.81145 9.53467C6.8671 9.65463 7.07218 10.5403 7.12189 10.5606C7.13405 10.5654 7.19511 10.5719 7.1889 10.5417L7.51691 9.53845H7.99568L8.36367 10.6146L8.71464 9.53467H9.26799L8.62116 11.4924C8.53011 11.503 8.16589 11.5322 8.1205 11.4779L7.74251 10.4249L7.36533 11.4787C7.30508 11.5408 7.0049 11.4857 6.90412 11.5065L6.24432 9.53467H6.81118H6.81145Z" fill="#070506"/>
<path d="M13.7223 10.2634H14.3972V9.53467H14.9641V11.5049H14.4378C14.4348 11.5049 14.3972 11.4673 14.3972 11.4643V10.7762H13.7223V11.5049H13.196C13.193 11.5049 13.1555 11.4673 13.1555 11.4643V9.53467H13.6818C13.6848 9.53467 13.7223 9.57222 13.7223 9.5752V10.2634Z" fill="#070506"/>
<path d="M11.0498 9.53467V9.97994C11.0498 9.98291 11.0123 10.0205 11.0093 10.0205H10.0239V10.2904H10.9012C10.9042 10.2904 10.9418 10.3279 10.9418 10.3309V10.7221H10.0239V11.0191H11.0498V11.5049H9.48411C9.49276 11.4784 9.45709 11.4462 9.45709 11.4373V9.5752C9.45709 9.57222 9.49465 9.53467 9.49762 9.53467H11.0498Z" fill="#070506"/>
<path d="M12.9396 9.53467V10.0205H12.3727V11.5049H11.8058V10.061C11.8058 10.058 11.7683 10.0205 11.7653 10.0205H11.212V9.53467H12.9398H12.9396Z" fill="#070506"/>
</g>
<defs>
<clipPath id="clip0_24_143">
<rect width="20" height="20" fill="white"/>
</clipPath>
</defs>
</svg>
